<svg width="116" height="116" viewBox="0 0 116 116" fill="none" xmlns="http://www.w3.org/2000/svg">
<circle cx="57.6537" cy="57.6537" r="57.6537" fill="white"/>
<g clip-path="url(#clip0_10210_11)">
<path d="M81.6533 68.469C78.3665 67.2364 76.3555 66.6526 74.7121 66.1985C73.7607 65.9174 72.9174 65.6795 72.0525 65.3768C71.8578 65.3119 71.8578 65.2903 71.6849 65.2903C71.5551 65.2471 71.2091 65.0741 70.8632 64.4902C70.2577 63.4523 69.5657 60.7061 71.5335 54.1542C74.0634 45.7426 73.9121 42.8451 73.7607 39.1907V38.6717C73.285 28.3789 66.8628 22 56.9809 22C48.1584 22 41.6065 28.2492 40.6767 37.5689C40.6335 38.0663 39.9848 39.6016 39.509 40.726C38.4062 43.3424 37.6927 45.1588 37.6927 46.6292C37.6927 48.3807 38.709 49.4403 40.6983 49.8079C41.347 57.095 41.9092 60.6413 49.0666 61.1818C49.1315 61.4846 49.1748 61.9387 49.218 62.5657C49.2829 63.8199 49.1531 64.7281 48.872 64.8362C45.369 66.0255 42.4498 67.1499 40.1145 68.0365L38.9468 68.469C33.9085 70.3718 29 72.945 29 81.3782C29 82.4378 29.8649 83.2811 30.9029 83.2811C31.9408 83.2811 32.8057 82.4161 32.8057 81.3782C32.8057 75.7993 35.1195 73.983 40.2875 72.0368L41.4552 71.5828C43.7689 70.6962 46.6448 69.615 50.1046 68.4473C53.2832 67.3662 53.0886 63.6037 53.0237 62.3711C52.9373 60.5331 52.5913 58.0248 50.8398 57.4842C50.6884 57.441 50.5154 57.3977 50.3424 57.3977C45.1744 57.2464 45.1528 56.922 44.4176 48.6834C44.223 46.6076 42.3633 46.1967 41.5849 46.067C41.8228 45.0507 42.5147 43.3857 43.012 42.1964C43.8337 40.207 44.3527 38.9528 44.4608 37.9365C45.196 30.5845 50.1046 25.8274 56.9592 25.8274C64.8302 25.8274 69.5441 30.5629 69.8901 38.8447V39.3637C70.0631 42.8018 70.1712 45.2669 67.8359 53.0514C65.9546 59.3438 65.9114 63.9496 67.7277 66.7175C68.8305 68.3825 70.2361 68.8798 70.8632 69.0312C71.793 69.3555 72.6363 69.5934 73.6093 69.8745C75.1662 70.3286 77.1124 70.8692 80.2478 72.0585C84.5941 73.7019 86.6267 76.4913 86.6267 80.8376C86.6267 81.8972 87.4917 82.7621 88.5296 82.7621C89.5675 82.7621 90.4325 81.8972 90.4325 80.8376C90.4325 74.8479 87.4484 70.6962 81.5668 68.4906" fill="#59137E"/>
<path d="M59.4892 57.8945C57.9323 57.8945 56.6997 59.9488 56.6997 62.4787C56.6997 65.0087 57.9539 67.0629 59.4892 67.0629C61.0244 67.0629 62.2786 65.0087 62.2786 62.4787C62.2786 59.9488 61.0244 57.8945 59.4892 57.8945Z" fill="#59137E"/>
<path d="M59.7054 68.5996C58.6459 68.5996 57.8026 69.4646 57.8026 70.5025V78.7843C57.8026 79.8438 58.6675 80.6872 59.7054 80.6872C60.7434 80.6872 61.6083 79.8438 61.6083 78.7843V70.5025C61.6083 69.4429 60.7434 68.5996 59.7054 68.5996Z" fill="#59137E"/>
</g>
<defs>
<clipPath id="clip0_10210_11">
<rect width="61.4973" height="61.3027" fill="white" transform="translate(29 22)"/>
</clipPath>
</defs>
</svg>
