<svg width="116" height="116" viewBox="0 0 116 116" fill="none" xmlns="http://www.w3.org/2000/svg">
<circle cx="57.6537" cy="57.6537" r="57.6537" fill="white"/>
<circle cx="57.6537" cy="57.6537" r="57.6537" fill="white"/>
<g clip-path="url(#clip0_6_2028)">
<path d="M29.9865 43.8512C29.7952 44.5293 29.7431 45.2944 29.8648 46.1115C30.1082 47.5894 30.8385 49.1542 31.9512 50.5452C33.064 51.9361 34.4549 52.9967 35.8459 53.5531C36.524 53.8313 37.1847 53.953 37.7932 53.953C38.6278 53.953 39.3928 53.7096 40.0013 53.2228C42.0182 51.6058 41.6357 47.9024 39.132 44.7901C36.8195 41.9039 33.6551 40.739 31.5861 41.8344C31.0471 41.7474 29.7257 41.2258 29.5866 38.2527C29.5518 37.2616 30.0734 36.3749 30.9602 35.8707C31.8991 35.3491 33.0118 35.3665 33.9159 35.9402C38.0888 38.6178 42.818 39.3654 45.5825 39.5741C45.1826 40.426 44.9566 41.3302 44.9566 42.2864C44.9566 44.7728 46.4171 47.0504 49.0947 48.6848C49.651 49.0325 50.1553 49.502 50.5899 50.0931C51.8766 51.7623 52.1895 53.9356 51.4767 55.883C50.5552 58.3867 49.651 62.6986 50.6247 69.097C52.4503 81.0244 57.1448 82.1893 57.6664 82.2762C57.7359 82.2762 57.8055 82.2762 57.875 82.2762C57.9446 82.2762 58.0315 82.2762 58.0837 82.2762C58.2401 82.2414 59.2312 82.0328 60.4309 80.8679C57.3882 78.8684 55.3887 75.4258 55.3887 71.5137C55.3887 65.7587 59.7354 61.0121 65.334 60.3688C65.1253 58.7518 64.795 57.2391 64.2734 55.8482C63.5431 53.9009 63.8735 51.7275 65.1601 50.0584C65.6122 49.4672 66.1164 48.9978 66.6554 48.65C69.333 46.9983 70.7935 44.7206 70.7935 42.2517C70.7935 41.2954 70.5674 40.3739 70.1675 39.5393C72.932 39.3307 77.6787 38.583 81.8341 35.9055C82.7208 35.3317 83.851 35.2969 84.7899 35.8359C85.6766 36.3401 86.1808 37.2269 86.1461 38.3396C86.007 41.1737 84.7377 41.7127 84.1466 41.7996C82.0775 40.6868 78.9131 41.8865 76.6007 44.7554C74.097 47.8676 73.7318 51.571 75.7487 53.188C76.3573 53.6748 77.1223 53.9182 77.9395 53.9182C78.8783 53.9182 79.9216 53.6053 80.93 53.0315C81.9384 52.4577 82.9469 51.6058 83.7988 50.5278C84.9116 49.1369 85.6592 47.5547 85.8853 46.0942C86.007 45.277 85.9548 44.4946 85.7635 43.8339C87.1023 43.1384 88.4411 41.591 88.5976 38.4787V38.3222C88.6845 36.4097 87.7109 34.6884 86.007 33.7321C84.2857 32.7584 82.1819 32.8106 80.5301 33.8712C75.8009 36.9139 70.0458 37.1747 68.3941 37.1921C66.0642 35.0013 62.2739 33.593 57.875 33.593C53.4761 33.593 49.6858 35.0013 47.356 37.1921C45.7042 37.1921 39.9666 36.9313 35.2199 33.8712C33.5856 32.828 31.4818 32.7758 29.7605 33.7495C28.0566 34.7058 27.0829 36.4097 27.1351 38.3396V38.5135C27.2915 41.6257 28.6303 43.1732 29.9691 43.8686" fill="#59137E"/>
<path d="M69.3852 72.8004H67.8377V74.3478C67.8377 75.0259 67.2813 75.5823 66.6033 75.5823C65.9252 75.5823 65.3688 75.0259 65.3688 74.3478V72.8004H63.8214C63.1433 72.8004 62.5869 72.244 62.5869 71.5659C62.5869 70.8878 63.1433 70.3314 63.8214 70.3314H65.3688V68.784C65.3688 68.1059 65.9252 67.5495 66.6033 67.5495C67.2813 67.5495 67.8377 68.1059 67.8377 68.784V70.3314H69.3852C70.0632 70.3314 70.6196 70.8878 70.6196 71.5659C70.6196 72.244 70.0632 72.8004 69.3852 72.8004ZM66.6206 62.8203C61.7871 62.8203 57.8577 66.7497 57.8577 71.5833C57.8577 76.4168 61.7871 80.3289 66.6206 80.3289C71.4542 80.3289 75.3662 76.3994 75.3662 71.5833C75.3662 66.7671 71.4368 62.8203 66.6206 62.8203Z" fill="#59137E"/>
</g>
<defs>
<clipPath id="clip0_6_2028">
<rect width="61.4973" height="49.2918" fill="white" transform="translate(27.1351 33.0547)"/>
</clipPath>
</defs>
</svg>
