<svg width="116" height="116" viewBox="0 0 116 116" fill="none" xmlns="http://www.w3.org/2000/svg">
<circle cx="57.6537" cy="57.6537" r="57.6537" fill="white"/>
<g clip-path="url(#clip0_5_1998)">
<path d="M28.7867 53.509C28.7867 51.9225 30.0743 50.6119 31.6608 50.6119C33.2473 50.6119 34.5349 51.8995 34.5349 53.509C34.5349 55.1185 33.2473 56.4061 31.6608 56.4061C30.0743 56.4061 28.7867 55.1185 28.7867 53.509ZM91.2574 28.4012C90.6826 25.941 88.4983 24.1016 85.8542 24.1016H84.1067C81.0487 24.1016 78.5655 26.5848 78.5655 29.6658V32.8617C78.5655 35.9197 81.0487 38.4259 84.1067 38.4259H85.8542C86.291 38.4259 86.7049 38.3799 87.1188 38.265C87.1188 46.8642 80.083 53.8539 71.4379 53.8539C62.7927 53.8539 55.757 46.8642 55.757 38.2879C56.1708 38.3799 56.5847 38.4259 57.0215 38.4259H58.792C61.85 38.4259 64.3332 35.9197 64.3332 32.8617V29.6658C64.3332 26.6077 61.85 24.1016 58.792 24.1016H57.0215C54.4004 24.1016 52.1931 25.941 51.6183 28.4012H51.4804V38.2879C51.4804 48.1517 58.769 56.3601 68.2649 57.8776C68.2649 57.9925 68.2189 58.1075 68.2189 58.2455C68.2189 60.2228 69.5755 61.9013 71.4379 62.4761V66.2698C71.4379 76.4325 62.6317 85.0087 52.1931 85.0087C41.7545 85.0087 32.9484 76.4325 32.9484 66.2698V62.798C37.5009 62.1542 41.0188 58.2225 41.0188 53.486C41.0188 48.2897 36.8111 44.0821 31.6378 44.0821C26.4645 44.0821 22.2109 48.2667 22.2109 53.463C22.2109 57.6247 24.924 61.1655 28.6718 62.4071C28.6718 62.5221 28.6258 62.66 28.6258 62.775V66.2468C28.6258 78.7318 39.4093 89.2624 52.1701 89.2624C64.931 89.2624 75.7145 78.7318 75.7145 66.2468V61.6943C76.7721 60.8666 77.4619 59.648 77.4619 58.2225C77.4619 57.8776 77.4159 57.5557 77.3469 57.2338C85.4863 54.7276 91.4184 47.1631 91.4184 38.265V28.4012H91.2574Z" fill="#59137E"/>
</g>
<defs>
<clipPath id="clip0_5_1998">
<rect width="69.1845" height="65.1838" fill="white" transform="translate(22.2109 24.1016)"/>
</clipPath>
</defs>
</svg>
