<svg width="85" height="85" viewBox="0 0 85 85" fill="none" xmlns="http://www.w3.org/2000/svg">
<g clip-path="url(#clip0_6001_9)">
<path d="M42.4959 84.9918C65.9658 84.9918 84.9918 65.9658 84.9918 42.4959C84.9918 19.0261 65.9658 0 42.4959 0C19.0261 0 0 19.0261 0 42.4959C0 65.9658 19.0261 84.9918 42.4959 84.9918Z" fill="white"/>
<path d="M46.7938 37.0776C45.8202 37.7237 44.8544 38.3795 43.8915 39.0449C42.0912 40.2889 40.2784 41.5937 38.4289 42.7942C36.7387 43.8924 35.1489 45.1373 33.4617 46.2403C31.643 47.4292 29.4023 48.6838 27.1607 48.0222C23.987 47.0844 21.5087 46.6923 19.1821 45.7786C16.8554 44.864 17.686 43.2849 19.4312 42.4543C21.1765 41.6237 40.458 33.3118 40.458 33.3118L52.5095 28.3253C53.5555 27.9178 54.5995 27.5073 55.6436 27.0939C56.3476 26.8148 57.0392 26.5019 57.779 26.3338C58.6173 26.1426 59.6169 26.0547 60.3741 26.5444C61.4578 27.2446 61.4568 28.7715 61.3187 29.9044C61.0502 32.1142 60.7189 34.3173 60.3905 36.5193C59.9569 39.4313 59.5088 42.3403 59.0548 45.2493C58.6521 47.831 58.2445 50.4116 57.834 52.9913C57.5375 54.8524 57.3975 56.7734 57.0025 58.6143C56.8238 59.4468 56.5505 60.2852 56.0762 60.9999C54.0886 63.9939 50.3625 61.3224 48.3246 59.8245C46.645 58.5901 39.5279 53.9871 37.7653 52.7528C37.1356 52.3114 36.6431 51.5416 36.6498 50.7612C36.6595 49.6873 37.4234 48.874 38.1633 48.1873C39.074 47.3432 40.0138 46.531 40.9178 45.6791C42.2747 44.3994 43.6307 43.1207 44.9877 41.841L48.4811 38.5466C49.1243 37.94 49.7347 37.3103 50.3045 36.6323C50.4764 36.4285 50.5952 36.2663 50.6146 35.9987C50.6281 35.8075 50.5904 35.6192 50.4455 35.483C49.9105 34.9808 49.246 35.4791 48.766 35.7882C48.1044 36.2141 47.4467 36.6449 46.7909 37.0805L46.7938 37.0776Z" fill="#24A1DD"/>
<g clip-path="url(#clip1_6001_9)">
<path d="M42.4959 85.9918C65.9658 85.9918 84.9918 66.9658 84.9918 43.4959C84.9918 20.0261 65.9658 1 42.4959 1C19.0261 1 0 20.0261 0 43.4959C0 66.9658 19.0261 85.9918 42.4959 85.9918Z" fill="white"/>
<path d="M46.7938 38.0776C45.8202 38.7237 44.8544 39.3795 43.8915 40.0449C42.0912 41.2889 40.2784 42.5937 38.4289 43.7942C36.7387 44.8924 35.1489 46.1373 33.4617 47.2403C31.643 48.4292 29.4023 49.6838 27.1607 49.0222C23.987 48.0844 21.5087 47.6923 19.1821 46.7786C16.8554 45.864 17.686 44.2849 19.4312 43.4543C21.1765 42.6237 40.458 34.3118 40.458 34.3118L52.5095 29.3253C53.5555 28.9178 54.5995 28.5073 55.6436 28.0939C56.3476 27.8148 57.0392 27.5019 57.779 27.3338C58.6173 27.1426 59.6169 27.0547 60.3741 27.5444C61.4578 28.2446 61.4568 29.7715 61.3187 30.9044C61.0502 33.1142 60.7189 35.3173 60.3905 37.5193C59.9569 40.4313 59.5088 43.3403 59.0548 46.2493C58.6521 48.831 58.2445 51.4116 57.834 53.9913C57.5375 55.8524 57.3975 57.7734 57.0025 59.6143C56.8238 60.4468 56.5505 61.2852 56.0762 61.9999C54.0886 64.9939 50.3625 62.3224 48.3246 60.8245C46.645 59.5901 39.5279 54.9871 37.7653 53.7528C37.1356 53.3114 36.6431 52.5416 36.6498 51.7612C36.6595 50.6873 37.4234 49.874 38.1633 49.1873C39.074 48.3432 40.0138 47.531 40.9178 46.6791C42.2747 45.3994 43.6307 44.1207 44.9877 42.841L48.4811 39.5466C49.1243 38.94 49.7347 38.3103 50.3045 37.6323C50.4764 37.4285 50.5952 37.2663 50.6146 36.9987C50.6281 36.8075 50.5904 36.6192 50.4455 36.483C49.9105 35.9808 49.246 36.4791 48.766 36.7882C48.1044 37.2141 47.4467 37.6449 46.7909 38.0805L46.7938 38.0776Z" fill="#564E4E"/>
</g>
</g>
<defs>
<clipPath id="clip0_6001_9">
<rect width="84.9918" height="84.9918" fill="white"/>
</clipPath>
<clipPath id="clip1_6001_9">
<rect width="84.9918" height="84.9918" fill="white" transform="translate(0 1)"/>
</clipPath>
</defs>
</svg>
