<svg version="1.2" xmlns="http://www.w3.org/2000/svg" viewBox="0 0 1000 1000" width="150" height="150">
	<title>inlineicons</title>
	<style>
		.s0 { fill: #000000 } 
	</style>
	<g>
		<g id="_x34_99._Up">
			<g>
				<path class="s0" d="m924.3 255c-135.3-234.3-435-314.6-669.3-179.3-234.3 135.3-314.6 434.9-179.3 669.3 135.3 234.3 434.9 314.6 669.2 179.3 234.4-135.3 314.7-435 179.4-669.3zm-228.3 584.4c-187.4 108.2-427.2 44-535.4-143.4-108.2-187.5-44-427.2 143.4-535.4 187.4-108.2 427.2-44 535.4 143.4 108.2 187.5 44 427.2-143.4 535.4zm-161.4-451.7c-9.6-9.6-22.1-14.4-34.6-14.4-12.5 0-25.1 4.8-34.6 14.4l-138.6 138.5c-19.1 19.1-19.1 50.2 0 69.3 19.1 19.1 50.2 19.1 69.3 0l103.9-103.9 103.9 103.9c19.1 19.1 50.2 19.1 69.3 0 19.1-19.1 19.1-50.2 0-69.3z"/>
			</g>
		</g>
	</g>
</svg>