<svg width="85" height="85" viewBox="0 0 85 85" fill="none" xmlns="http://www.w3.org/2000/svg">
<g clip-path="url(#clip0_4_1909)">
<path d="M42.4959 84.9918C65.9658 84.9918 84.9918 65.9658 84.9918 42.4959C84.9918 19.0261 65.9658 0 42.4959 0C19.0261 0 0 19.0261 0 42.4959C0 65.9658 19.0261 84.9918 42.4959 84.9918Z" fill="white"/>
<path d="M44.7443 38.1918C44.7443 39.9245 44.7443 41.6581 44.7443 43.3908C44.7443 43.7462 44.7636 44.0988 44.9124 44.4291C45.1229 44.8965 45.4484 45.0482 45.9429 44.9149C46.3524 44.8048 46.6808 44.5575 47.0014 44.2958C47.9769 43.4971 48.7592 42.5245 49.4961 41.5133C51.4973 38.7694 53.0928 35.7966 54.444 32.6876C54.7763 31.9237 55.2427 31.3278 56.0936 31.1308C56.3699 31.067 56.6519 31.0448 56.9358 31.0448C58.6096 31.0458 60.2824 31.0438 61.9561 31.0467C62.1676 31.0467 62.3801 31.0651 62.5897 31.0912C63.541 31.2071 63.9515 31.7885 63.7497 32.7224C63.541 33.6873 63.1315 34.5729 62.6786 35.4412C61.0444 38.5695 59.0799 41.492 57.0913 44.4001C56.8122 44.8077 56.5205 45.2066 56.281 45.6421C55.9951 46.1608 56.0222 46.6485 56.338 47.1411C56.6393 47.6114 57.0121 48.0209 57.412 48.4034C59.4073 50.3148 61.2511 52.3623 62.9345 54.5528C63.4812 55.2636 63.9892 55.9995 64.389 56.805C64.5465 57.1228 64.6759 57.4502 64.7444 57.7998C64.9482 58.8323 64.447 59.5402 63.4049 59.6754C63.1489 59.7083 62.8881 59.7257 62.6303 59.7266C61.0628 59.7315 59.4952 59.6986 57.9287 59.7392C56.8373 59.7682 55.9459 59.3983 55.2128 58.6198C54.219 57.5651 53.2464 56.4902 52.2516 55.4355C51.0366 54.1471 49.7521 52.9331 48.2715 51.9489C47.5906 51.4969 46.8778 51.1048 46.0202 51.1222C45.1471 51.1396 44.8139 51.4621 44.7646 52.3439C44.7482 52.6375 44.7463 52.9331 44.7463 53.2277C44.7443 54.6899 44.7492 56.1512 44.7434 57.6134C44.7385 58.8091 44.3435 59.3162 43.1614 59.5344C41.0472 59.9256 38.9581 59.7208 36.9048 59.1442C33.3458 58.1437 30.3759 56.1666 27.7836 53.5734C26.0056 51.7944 24.5906 49.7372 23.2221 47.6452C20.9147 44.1161 18.9232 40.4229 17.5035 36.4408C17.1162 35.3533 16.7811 34.2513 16.5889 33.1078C16.3532 31.7035 16.8747 31.0631 18.3273 31.0496C20.0948 31.0332 21.8622 31.0448 23.6297 31.0477C23.7823 31.0477 23.9349 31.0709 24.0865 31.0863C24.7056 31.1491 25.1643 31.4611 25.486 31.9884C25.7641 32.4452 25.9244 32.9503 26.1031 33.4487C27.4668 37.2415 29.1647 40.8691 31.4615 44.1963C32.0912 45.109 32.7721 45.984 33.6384 46.6929C33.904 46.9103 34.1851 47.1044 34.5299 47.1778C35.0514 47.2889 35.4136 47.0802 35.5556 46.5693C35.683 46.1106 35.6898 45.6363 35.6908 45.166C35.6966 42.6317 35.712 40.0964 35.6869 37.5621C35.6724 36.124 35.2803 34.796 34.3319 33.6708C34.1348 33.4371 33.9446 33.1928 33.791 32.9301C33.3313 32.1458 33.7369 31.2631 34.6264 31.0912C34.7983 31.0583 34.977 31.0487 35.1528 31.0487C37.7808 31.0458 40.4088 31.0467 43.0358 31.0477C43.1652 31.0477 43.2956 31.0467 43.4241 31.0602C44.1986 31.1404 44.5888 31.5132 44.6854 32.2897C44.724 32.6046 44.7405 32.9243 44.7414 33.242C44.7463 34.8926 44.7443 36.5432 44.7443 38.1938V38.1918Z" fill="#564E4E"/>
</g>
<defs>
<clipPath id="clip0_4_1909">
<rect width="84.9918" height="84.9918" fill="white"/>
</clipPath>
</defs>
</svg>
