<svg width="298" height="55" viewBox="0 0 298 55" fill="none" xmlns="http://www.w3.org/2000/svg">
<g clip-path="url(#clip0_2_43)">
<path d="M27.3789 35.3565C27.3789 35.3565 27.4066 35.4244 27.402 35.4606C27.3742 35.6553 27.2679 35.8048 27.0459 35.9406C27.0089 35.9089 26.9858 35.8682 26.9488 35.8501C26.7731 35.764 26.7546 35.6191 26.7685 35.447C26.7824 35.275 26.7685 35.1029 26.7685 34.9308C26.7777 34.9218 26.7916 34.9127 26.8009 34.9082C26.9951 35.0576 27.1893 35.2025 27.3789 35.3565ZM28.2482 19.5846C28.0355 19.5393 27.8181 19.5303 27.6008 19.5303C27.5731 19.5303 27.5453 19.5303 27.513 19.5348V16.8405H25.0206V20.771C24.8865 20.848 24.7848 20.9838 24.7385 21.1831C24.6507 21.568 24.5443 21.7265 24.29 21.971V13.0141H25.0252V16.1613H27.5176V13.0141H28.2482V19.5846ZM0.0601123 9.26929L0 51.5857L25.7188 51.3955V47.2929H25.6818V44.1096C25.2749 44.1005 24.9096 44.1503 24.5859 44.2635C24.253 44.3767 23.9617 44.5669 23.7074 44.825C23.4577 45.0831 23.2496 45.4228 23.0878 45.8439C22.9259 46.2605 22.8103 46.7676 22.7456 47.3563H22.0011C22.2 45.459 22.9213 44.259 24.1513 43.7609L22.0196 40.6228H22.7641L24.7663 43.5798C24.9096 43.5481 25.0622 43.5254 25.2241 43.5073C25.372 43.4937 25.5246 43.4847 25.6818 43.4847V40.1292C25.1177 40.1926 24.549 40.2515 23.9848 40.3104C23.8091 40.3285 23.6658 40.4055 23.5363 40.5232C23.4808 40.573 23.4161 40.6183 23.3467 40.6455C23.2404 40.6862 23.171 40.6273 23.1849 40.5141C23.2034 40.3375 23.3005 40.2062 23.4346 40.1021C23.7351 39.8711 24.0819 39.7489 24.4472 39.6855C24.8588 39.613 25.2749 39.5632 25.6865 39.4953V37.598C24.8588 37.5617 24.0912 37.2991 23.3791 36.801C23.0646 36.5791 22.8011 36.3074 22.6207 35.9587C22.4635 35.6463 22.4358 35.3157 22.5283 34.9806C22.6207 34.6501 22.8381 34.4418 23.1479 34.315C23.6611 34.1112 24.1837 34.1203 24.7108 34.2335C24.8865 34.2697 25.0622 34.315 25.2333 34.3648C25.2657 34.3738 25.3073 34.4146 25.3073 34.4418C25.3119 34.6908 25.3073 34.9353 25.3073 35.1753C25.0946 35.1527 24.9004 35.1119 24.7015 35.1119C24.3362 35.1119 24.1605 35.2931 24.2114 35.7368C24.2391 35.995 24.4056 36.167 24.6183 36.2938C24.8865 36.4568 25.1824 36.5293 25.4876 36.5655C25.5524 36.5746 25.6171 36.5791 25.6818 36.5836V29.6373C25.3952 29.6237 25.1131 29.592 24.8356 29.5422C24.4426 29.4743 24.0634 29.3747 23.6981 29.2524C23.4114 29.1528 23.1386 29.0441 22.8843 28.9173C22.8843 28.9671 22.8797 29.0124 22.8843 29.0622C22.9028 29.6192 22.9583 30.1716 23.171 30.6969C23.527 31.5709 24.1652 32.155 25.0345 32.4992C25.2379 32.5807 25.2379 32.5807 25.2379 32.8025C25.2379 33.1059 25.2379 33.4139 25.2379 33.7354C24.8911 33.6946 24.5721 33.6222 24.2623 33.4999C22.6993 32.8886 21.6682 31.7792 21.2428 30.1309C21.0763 29.4833 21.0578 28.8222 21.2613 28.1747C21.4925 27.4275 22.0057 26.9294 22.6716 26.5672C23.2589 26.2502 23.8923 26.0691 24.5397 25.9423C25.2703 25.7974 26.0148 25.7023 26.7269 25.4759C27.3049 25.2902 27.8598 25.0638 28.3407 24.6879C28.8632 24.2849 29.2007 23.7642 29.284 23.1031C29.3626 22.4736 29.247 21.885 28.8632 21.3687C28.5765 20.9838 28.1881 20.7529 27.7025 20.7303C27.2124 20.7031 26.7454 20.7891 26.3385 21.088C26.024 21.3189 25.8206 21.6314 25.7235 22.0118C25.6957 22.1204 25.7235 22.211 25.8159 22.2744C25.8391 22.288 25.8576 22.3106 25.8807 22.3242C26.2552 22.5733 26.3338 22.8133 26.1812 23.3431C26.1581 23.4246 26.1304 23.5106 26.0841 23.5785C25.8529 23.9091 25.6125 24.2351 25.3767 24.5657C25.3767 24.5657 25.372 24.5702 25.3674 24.5747C25.0853 24.851 24.831 24.8147 24.6553 24.4615C24.5859 24.3166 24.5351 24.1627 24.4888 24.0042C24.4056 23.7053 24.3224 23.4019 24.253 23.0985C24.2022 22.8721 24.2345 22.6502 24.3732 22.4555C24.4287 22.3785 24.512 22.3061 24.5952 22.2653C24.7663 22.1884 24.8588 22.0706 24.9096 21.894C25.0345 21.4729 25.2148 21.0789 25.4969 20.7393C25.9084 20.2457 26.4356 19.9831 27.069 19.9197C28.091 19.811 28.9372 20.1733 29.6308 20.9114C30.1024 21.414 30.3614 22.0163 30.3937 22.7136C30.4168 23.1619 30.403 23.6012 30.2827 24.0359C30.1024 24.6925 29.6724 25.1589 29.1175 25.5211C28.3869 25.9966 27.5869 26.3362 26.7639 26.6124C26.0194 26.8615 25.2703 27.0879 24.5212 27.337C24.1513 27.4592 23.7906 27.6177 23.4716 27.8487C23.2866 27.98 23.1479 28.1385 23.0461 28.3105C23.319 28.4419 23.601 28.5551 23.8923 28.6547C24.2253 28.7679 24.5721 28.8539 24.9327 28.9173C25.2934 28.9807 25.6541 29.0124 26.0194 29.0124C26.3847 29.0124 26.75 28.9807 27.106 28.9173C27.4667 28.8539 27.8135 28.7679 28.1464 28.6547C28.4794 28.5415 28.7984 28.4102 29.1036 28.2607C29.4042 28.1068 29.6862 27.9392 29.9359 27.7536L30.2504 28.2517C29.9868 28.4554 29.6955 28.6411 29.3764 28.8086C29.0574 28.9762 28.7152 29.1211 28.3545 29.2479C27.9892 29.3701 27.6147 29.4698 27.2216 29.5377C26.9627 29.583 26.6991 29.6147 26.4309 29.6283V36.5565C26.5882 36.5338 26.7407 36.4976 26.898 36.4478C27.1662 36.3617 27.4066 36.2304 27.5916 36.0085C27.721 35.8501 27.7996 35.6735 27.7858 35.4652C27.7765 35.2659 27.7673 35.0621 27.7257 34.8674C27.6332 34.4418 27.3604 34.1701 26.9442 34.0523C26.8563 34.0252 26.824 33.9889 26.824 33.8939C26.8332 33.5407 26.824 33.1874 26.824 32.8342C26.824 32.798 26.824 32.7573 26.8286 32.712C27.328 32.7573 27.7627 32.9429 28.1464 33.2463C28.632 33.6267 29.0065 34.0976 29.099 34.718C29.2285 35.6191 28.9649 36.3889 28.1834 36.9142C27.6517 37.2719 27.0644 37.4847 26.4309 37.5617V39.287C26.9627 39.0425 27.3049 38.5851 27.3835 37.8742C27.4066 37.6523 27.4713 37.5346 27.6887 37.4621C27.9199 37.3851 28.1233 37.2402 28.3545 37.118C28.4193 37.5572 28.4979 38.001 28.3823 38.4538C28.2436 38.9927 27.8829 39.3459 27.4205 39.6085C27.106 39.7896 26.7731 39.9164 26.4263 39.9979V43.4711C26.5789 43.4711 26.7315 43.4801 26.8795 43.4937C27.0413 43.5118 27.1939 43.5345 27.3372 43.5662L29.3394 40.6092H30.0839L27.943 43.7473C28.5719 44.0009 29.062 44.4265 29.4134 45.0243C29.7649 45.622 29.9961 46.3918 30.1024 47.3473H29.3579C29.2886 46.7586 29.173 46.2514 29.0158 45.8348C28.8539 45.4182 28.6505 45.0786 28.3961 44.816C28.1464 44.5579 27.8505 44.3677 27.5176 44.2545C27.1939 44.1458 26.8332 44.096 26.4309 44.1005V47.2839H26.3893V51.3864H36.6408V9.26929H0.0601123Z" fill="white"/>
<path d="M209.616 50.7661C209.63 50.6439 209.445 50.5352 209.307 49.9329C209.191 49.3941 209.112 48.416 209.145 47.7322C209.223 46.5685 209.052 45.8485 208.664 45.8258C208.299 45.8032 207.48 46.8311 206.884 47.6099C206.287 48.4069 205.607 49.7518 205.607 49.7971C205.593 49.8831 205.732 50.3224 205.986 50.345C206.134 50.345 206.273 50.2952 206.343 50.1503C206.412 50.0144 206.306 49.9194 206.296 49.7473C206.282 49.4439 206.731 48.7692 207.11 48.2077C207.559 47.5601 208.086 46.9715 208.465 46.6771C208.557 46.9081 208.567 46.9805 208.567 47.4243C208.567 48.2439 208.544 49.0137 208.692 49.7835C208.793 50.3224 208.969 51.0197 209.357 51.0424C209.519 51.0559 209.612 50.8341 209.612 50.7616M202.925 49.8877C202.916 49.9873 202.87 50.0326 202.87 50.1322C202.343 50.3133 201.871 50.4265 201.492 50.3903C201.436 50.3903 201.15 50.2092 201.136 50.0009C201.127 49.6703 201.94 48.6696 202.412 48.7058C202.768 48.7284 202.976 49.2311 202.93 49.8922M204.289 47.3654C204.345 46.4235 203.545 45.4455 202.833 45.3821C202.421 45.3594 201.811 45.613 201.788 45.9209C201.788 45.9707 201.843 46.2741 202.065 46.2877C202.338 46.3103 202.25 45.9843 202.801 46.0205C203.295 46.0568 203.744 46.89 203.707 47.3881C203.661 48.2213 203.513 48.7963 203.383 49.136C203.221 48.6107 202.888 48.0582 202.509 48.0356C201.635 47.9767 200.558 49.4303 200.526 49.942C200.493 50.5035 200.937 50.9065 201.386 50.9427C201.774 50.9654 202.329 50.8431 202.879 50.6348C202.935 50.6575 203.212 50.7435 203.305 50.7344C203.49 50.748 204.026 50.4763 203.869 50.1956C203.822 50.096 203.721 50.0507 203.651 50.0009C203.846 49.5978 204.202 48.6696 204.294 47.3609M199.148 46.6952C199.161 46.3919 199.115 46.2062 198.893 46.1926C198.574 46.17 198.491 46.6817 198.352 47.0847C198.227 47.5013 198.056 47.6824 197.857 47.9767C197.284 48.3299 197.03 48.2937 196.493 48.416C196.082 48.5156 195.749 48.5609 195.379 48.5971C195.434 48.1307 195.504 47.6824 195.666 47.0937C195.781 46.6183 196.054 45.9798 196.068 45.8847C196.068 45.7987 195.966 45.4319 195.772 45.4454C195.495 45.459 195.314 46.2424 195.152 46.7903C195.004 47.293 194.819 48.2213 194.764 48.502C194.662 48.6741 194.625 48.9548 194.625 48.9548C194.616 49.0907 194.639 49.3714 194.639 49.4801C194.625 49.702 194.514 49.7744 194.561 49.9556C194.607 50.1367 194.685 50.2997 194.861 50.3088C195.046 50.3224 195.203 50.1639 195.226 49.9782C195.249 49.8197 195.18 49.5616 195.249 49.3171C195.504 49.2175 196.086 49.145 196.627 49.0092C197.062 48.8869 197.409 48.742 197.751 48.665C197.682 48.982 197.612 49.5933 197.58 49.8877C197.511 50.5986 197.728 51.0514 198.029 51.0741C198.223 51.0876 198.477 51.0107 198.486 50.8069C198.486 50.7208 198.496 50.6348 198.431 50.585C198.385 50.5488 198.352 50.5714 198.292 50.5488C198.13 50.4627 198.107 50.2907 198.121 50.096C198.144 49.7065 198.306 49.0952 198.477 48.6062C198.764 47.7865 199.12 47.0756 199.152 46.6862M192.891 47.7684C192.937 47.1571 192.914 46.3013 192.249 46.2515C191.916 46.2288 191.328 46.8628 190.732 47.705C190.33 48.2665 189.941 48.905 189.562 49.4303C189.631 49.0771 189.881 48.022 190.135 47.0937C190.297 46.5186 190.538 45.6854 190.723 45.1511C190.954 44.5172 191.111 44.2092 191.134 43.8787C191.143 43.7428 190.995 43.6342 190.917 43.6342C190.575 43.6115 190.103 45.1647 189.779 46.2152C189.437 47.302 189.183 48.4431 188.965 49.5028C188.817 50.2137 188.656 50.6167 188.494 51.314C188.207 52.514 187.92 54.0174 187.851 54.4566C187.814 54.6876 187.93 54.9457 188.161 54.9955C188.392 55.0317 188.609 54.8144 188.633 54.5789C188.646 54.357 188.656 54.3208 188.711 53.9812C188.919 52.6499 189.1 51.8529 189.502 50.6076C189.913 49.8741 190.339 49.0545 190.982 48.185C191.523 47.4379 191.943 46.976 192.142 46.9986C192.35 47.0213 192.327 47.379 192.313 47.6733C192.267 48.2982 191.934 48.896 191.499 49.3352C190.982 49.8469 190.376 50.1548 190.376 50.2046C190.367 50.4356 190.413 50.5126 190.561 50.5578C190.861 50.6439 191.444 50.105 191.846 49.8016C192.258 49.4711 192.845 48.6152 192.891 47.773M187.726 46.573C187.749 46.2424 187.648 46.1428 187.495 46.1337C187.162 46.1111 186.714 46.9534 186.348 47.5284C185.96 48.1533 185.706 48.8145 185.28 49.0952C184.98 48.8009 184.878 48.4341 184.67 47.9948C184.314 47.2749 184.152 46.0522 183.948 46.0251C183.787 46.0115 183.569 46.0975 183.555 46.2696C183.546 46.4417 183.648 46.8311 183.787 47.3201C183.934 47.8364 184.143 48.4477 184.374 48.8869C184.67 49.4258 184.832 49.4846 185.017 49.6205C184.832 49.9148 184.166 51.0016 183.8 51.6627C183.088 52.9487 182.709 53.9721 182.654 54.194C182.607 54.3661 182.802 54.511 182.954 54.511C183.116 54.511 183.241 54.2167 183.389 53.8272C183.537 53.4242 183.731 52.9487 183.93 52.582C184.341 51.8122 184.549 51.3593 185.021 50.6484C185.285 50.268 185.516 49.8922 185.733 49.6205C186.057 49.3035 186.413 48.8371 186.769 48.2756C187.171 47.6416 187.722 46.8084 187.731 46.5775M182.446 49.7744C182.446 49.6658 182.367 49.5661 182.274 49.5435C182.057 49.4711 181.687 49.6884 181.137 49.6522C180.434 49.5888 180.184 49.2129 179.999 48.8552C179.875 48.6107 179.805 48.3435 179.805 48.099C179.796 47.8182 180.161 47.293 180.393 46.9986C180.624 46.6907 180.934 46.5096 180.957 46.179C180.971 46.0432 180.786 45.9209 180.638 45.8847C180.466 45.8485 180.212 46.0703 179.972 46.4235C179.741 46.7903 179.477 47.2069 179.329 47.5239C179.158 47.7549 178.88 48.1715 178.594 48.5518C178.33 48.905 178.03 49.2356 177.789 49.4077L177.674 49.2854L177.937 47.9405C178.085 47.2567 178.238 46.9488 178.261 46.5594C178.27 46.4009 178.191 46.2153 177.983 46.2062C177.706 46.1836 177.595 46.8039 177.512 47.1209C177.465 47.3156 177.318 47.782 177.179 48.0265C176.971 48.3435 176.837 48.3571 176.638 48.502C176.716 48.2937 176.67 48.2801 176.684 48.0628C176.716 47.5375 176.43 47.1073 176.018 46.6454C175.694 46.2922 175.204 45.9707 175.029 45.9617C174.89 45.9481 174.696 46.1202 174.686 46.256C174.677 46.4371 174.742 46.6952 174.95 46.8175C175.019 46.8401 175.089 46.7088 175.158 46.7541C175.306 46.8266 175.422 46.9488 175.56 47.0711C175.801 47.302 176.125 47.6824 176.101 48.1488C176.078 48.4658 175.759 48.9186 175.436 49.3216C175.204 49.6024 174.987 49.788 174.77 49.9556C174.469 50.2001 174.206 50.336 174.182 50.431C174.15 50.6122 174.252 50.8114 174.437 50.8341C174.733 50.8703 175.264 50.3948 175.815 49.9058C176.263 49.5028 176.804 49.0228 177.156 48.733C177.077 49.1858 176.994 49.7111 176.971 50.019C176.971 50.2861 177.003 50.4582 177.248 50.4718C177.72 50.508 177.928 50.191 178.589 49.3126C178.751 49.0816 178.968 48.8733 179.209 48.579C179.31 48.8462 179.403 49.1179 179.528 49.3126C179.884 49.8514 180.517 50.1186 180.915 50.1548C181.821 50.2182 182.432 49.9329 182.441 49.7744M166.71 47.5873C166.733 47.3292 166.71 47.0484 166.47 47.0484C166.331 47.0484 166.114 47.2703 165.725 47.6733C165.383 48.0175 164.921 48.493 164.416 48.9096C163.959 49.2899 163.039 50.096 162.719 50.0597C162.618 50.0461 162.558 49.9148 162.572 49.7563C162.581 49.6703 162.826 48.7148 162.974 48.2394C163.168 47.5194 163.422 47.1979 163.455 46.8809C163.478 46.6862 163.284 46.6364 163.113 46.6228C162.941 46.6092 162.595 47.456 162.345 48.3481C162.104 49.2401 161.957 49.7654 161.933 50.1322C161.91 50.3993 162.081 50.6348 162.322 50.6801C162.886 50.7888 163.838 50.0914 164.685 49.3216C165.179 48.905 165.559 48.5518 165.924 48.2077C165.868 48.3662 165.753 48.7556 165.646 49.1631C165.545 49.6522 165.508 49.9963 165.452 50.191C165.42 50.4129 165.489 50.7163 165.73 50.7661C165.97 50.8159 166.109 50.6575 166.155 50.4718C166.178 50.3269 166.146 50.019 166.201 49.702C166.257 49.4077 166.326 49.0771 166.419 48.6741C166.52 48.2575 166.682 47.8907 166.719 47.5873M169.429 43.6613C169.438 43.5255 169.327 43.4304 169.244 43.4168C169.096 43.4032 168.795 43.5617 168.268 43.6477C167.57 43.77 167.108 43.77 166.433 43.7202C165.425 43.6477 165.11 43.2538 165.031 43.2538C164.8 43.2311 164.652 43.3987 164.643 43.5345C164.611 44.0734 165.734 44.2545 166.275 44.2907C166.927 44.3406 167.769 44.2681 168.375 44.1323C169.202 43.924 169.42 43.8742 169.429 43.6568M160.625 46.976C160.625 46.8039 160.407 46.659 160.338 46.6454C160.042 46.6318 160.121 46.7813 159.455 47.5647C159.201 47.8952 158.734 48.3979 158.202 48.8462C157.638 49.3216 156.893 49.9329 156.662 49.9329C156.56 49.9193 156.491 49.7744 156.491 49.6386C156.477 49.3805 156.639 48.6741 156.801 48.0854C156.949 47.4877 157.295 46.7269 157.319 46.5549C157.342 46.3737 157.194 46.1654 157.023 46.1654C156.69 46.1519 156.426 47.4243 156.172 48.2801C155.987 48.8914 155.862 49.4529 155.83 49.8831C155.816 50.0552 156.001 50.5442 156.38 50.5669C156.907 50.6031 157.735 49.9058 158.47 49.2854C159.011 48.8462 159.33 48.4658 159.746 47.9994C159.668 48.3028 159.621 48.8416 159.584 49.3307C159.552 49.8695 159.538 50.3088 159.755 50.3314C159.996 50.345 160.204 50.2092 160.25 49.9646C160.296 49.6612 160.112 49.6477 160.149 49.0952C160.158 48.8733 160.273 48.425 160.38 48.0084C160.505 47.4967 160.634 47.2024 160.634 46.9669M154.447 50.499C154.456 50.3903 154.401 50.2409 154.239 50.2544C153.999 50.268 153.596 50.3269 153.138 50.3178C152.45 50.3178 151.622 50.0507 151.691 48.9231C151.728 48.5337 152.334 47.9813 152.727 47.6416C153.231 47.2115 153.425 47.053 153.448 46.6998C153.458 46.4054 153.171 46.2968 152.991 46.2832C152.736 46.2605 152.292 46.7224 151.936 47.0892C151.372 47.6643 150.984 48.2892 150.961 48.5835C150.951 48.8779 150.914 48.9503 150.928 49.145C150.789 49.2311 150.665 49.3262 150.494 49.462C150.262 49.6341 149.999 49.9284 149.929 49.9284C149.814 49.9148 149.758 49.7473 149.781 49.4529C149.791 49.308 149.906 48.5609 150.013 47.9994C150.105 47.5103 150.207 47.0077 150.267 46.7632C150.304 46.582 150.128 46.3964 149.943 46.41C149.666 46.4235 149.555 47.302 149.425 47.9496C149.287 48.6243 149.162 49.2582 149.148 49.5526C149.148 50.028 149.18 50.6892 149.596 50.7254C149.999 50.748 150.193 50.4809 150.47 50.1775C150.702 49.9193 150.919 49.7246 151.067 49.6884C151.215 50.0326 151.594 50.7752 153.018 50.8884C153.629 50.9246 154.429 50.825 154.452 50.508M148.191 49.299C148.2 49.1994 148.121 48.982 148.029 48.982C147.858 48.982 146.859 49.5707 146.068 49.8016C145.241 50.0461 144.575 50.2544 143.923 50.2046C143.382 50.1548 143.141 49.8741 143.178 49.2401C143.201 48.9096 143.65 48.0764 144.029 47.6371C144.556 47.0122 145.153 46.6952 145.324 46.7088C145.37 46.7088 145.416 46.7722 145.449 46.8311C145.379 47.0122 145.37 47.0892 145.379 47.2477C145.402 47.5556 145.634 47.8816 145.791 47.8952C145.953 47.9088 146.434 47.7367 146.466 47.1843C146.503 46.5956 145.879 46.1066 145.661 46.0975C145.051 46.0477 144.515 46.4054 144.02 46.8537C143.146 47.6733 142.656 48.7873 142.586 49.4348C142.517 50.182 143.012 50.7163 143.816 50.7797C144.529 50.8386 145.296 50.6303 146.193 50.3269C147.021 50.0326 148.177 49.4212 148.191 49.299ZM140.825 46.8175C140.788 46.9896 140.561 47.293 140.113 47.5013C139.858 47.6099 139.447 47.696 139.146 47.6733C139.091 47.6733 138.975 47.6371 138.859 47.5284C139.1 47.2205 139.202 47.0983 139.479 46.8945C139.835 46.6273 140.307 46.4281 140.501 46.4281C140.686 46.4281 140.857 46.6228 140.825 46.8175ZM141.338 46.9035C141.384 46.2786 140.913 45.939 140.487 45.9119C140.131 45.8892 139.729 46.0115 139.327 46.2922C138.855 46.6092 138.383 47.1118 138.073 47.5647C137.717 48.0673 137.5 48.8371 137.486 49.0952C137.431 49.9737 137.888 50.7933 138.98 50.8793C139.405 50.902 140.612 50.7344 140.589 50.3269C140.566 50.2046 140.51 50.1186 140.395 50.096C140.177 50.0597 139.784 50.3631 139.155 50.3269C138.684 50.2907 138.032 49.9601 138.078 49.2628C138.11 48.8235 138.355 48.3345 138.527 48.0899C138.698 48.1896 138.86 48.262 139.248 48.2982C139.488 48.3118 140.076 48.1624 140.418 47.9677C140.968 47.6598 141.315 47.293 141.338 46.9035ZM136.057 50.3631C136.067 50.2182 135.956 50.096 135.803 50.105C135.711 50.1186 135.493 50.2861 135.391 50.2997C135.22 50.3359 135.16 50.1277 135.16 49.9963C135.207 49.3986 135.447 48.6514 135.632 48.1624C135.872 47.4515 136.113 47.0847 136.136 46.8175C136.145 46.6228 136.057 46.5232 135.919 46.5096C135.711 46.4734 135.47 46.89 135.299 47.0983C135.151 47.2794 134.911 47.4288 134.508 47.6507C134.254 47.7866 133.611 48.0175 133.417 47.945C133.223 47.8726 133.153 47.7005 133.163 47.4922C133.172 47.2975 133.278 46.822 133.357 46.6228C133.459 46.4417 133.588 46.3647 133.597 46.2062C133.583 46.0839 133.528 45.9617 133.403 45.9028C133.186 45.8168 132.922 46.2198 132.807 46.6002C132.705 46.9307 132.659 47.3337 132.636 47.6869C132.612 48.0537 132.844 48.5201 133.2 48.5428C133.958 48.6062 134.864 48.1171 135.096 47.945C134.971 48.3118 134.647 49.3397 134.615 49.7654C134.559 50.4492 134.846 50.8793 135.072 50.8884C135.553 50.9246 136.048 50.6937 136.057 50.3631ZM131.137 46.976C131.137 46.8039 130.92 46.659 130.851 46.6454C130.55 46.6318 130.633 46.7813 129.967 47.5647C129.713 47.8952 129.246 48.3979 128.714 48.8462C128.15 49.3216 127.406 49.9329 127.175 49.9329C127.073 49.9193 127.003 49.7744 127.003 49.6386C126.994 49.3805 127.151 48.6741 127.313 48.0854C127.461 47.4877 127.808 46.7269 127.831 46.5549C127.854 46.3737 127.706 46.1654 127.531 46.1654C127.198 46.1519 126.934 47.4243 126.68 48.2801C126.495 48.8914 126.37 49.4529 126.338 49.8831C126.328 50.0552 126.509 50.5442 126.888 50.5669C127.415 50.6031 128.243 49.9058 128.978 49.2854C129.519 48.8462 129.838 48.4658 130.254 47.9994C130.176 48.3028 130.129 48.8416 130.092 49.3307C130.06 49.8695 130.046 50.3088 130.263 50.3314C130.504 50.345 130.712 50.2092 130.758 49.9646C130.804 49.6612 130.619 49.6477 130.656 49.0952C130.666 48.8733 130.781 48.425 130.888 48.0084C131.013 47.4967 131.142 47.2024 131.142 46.9669M122.111 47.5239C122.167 47.3654 121.986 47.216 121.811 47.2069C121.626 47.1934 121.422 47.6235 121.214 48.1714C120.96 48.8552 120.858 49.7744 120.844 49.9329C120.821 50.3858 120.946 50.7888 121.279 50.7163C121.464 50.6801 121.612 50.4854 121.626 50.3269C121.635 50.2273 121.51 50.105 121.533 49.616C121.543 49.385 121.603 49.0046 121.751 48.502C121.852 48.1715 122.037 47.696 122.107 47.5239M126.074 46.1564C126.083 46.0341 125.972 45.8847 125.857 45.8847C125.639 45.8847 124.95 46.1428 124.433 46.2288C123.535 46.3737 122.643 46.4598 122.449 46.4507C122.301 46.4371 121.815 46.3873 121.325 46.2696C121.048 46.1971 120.891 46.0975 120.65 46.0975C120.502 46.0975 120.35 46.1836 120.34 46.342C120.317 46.659 120.719 46.7088 121.085 46.8085C121.519 46.9171 121.843 46.9805 122.338 47.0032C123.221 47.053 124.026 46.8673 124.59 46.736C125.496 46.5051 126.046 46.419 126.083 46.1609M118.851 49.2763C118.898 48.6152 118.153 48.3843 117.51 48.2756C117.233 48.2258 117.006 48.2031 116.766 48.1896C116.974 47.9586 117.177 47.6009 117.316 47.3835C117.695 46.7586 117.742 46.4054 117.751 46.2334C117.797 45.5496 117.302 45.4138 117.177 45.4002C116.914 45.3866 116.396 45.8032 115.947 46.4643C115.545 47.0756 115.166 47.7232 115.157 47.7594C115.189 47.465 115.212 47.0032 115.212 46.1926C115.212 45.9617 115.212 45.3956 114.935 45.459C114.741 45.4953 114.68 45.5587 114.648 45.9481C114.625 46.2515 114.662 46.7043 114.602 47.0711C114.5 47.7458 114.324 48.7103 114.176 49.1994C114.107 49.4439 114.038 49.5526 114.075 49.8243C114.084 49.9827 114.213 50.1186 114.361 50.1412C114.602 50.1775 114.926 49.6386 115.074 49.2628C115.198 48.9322 115.369 48.4069 115.578 47.9541C115.716 47.6598 116.049 47.1571 116.322 46.7813C116.53 46.4869 116.909 46.0115 117.057 46.0341C117.173 46.0477 117.228 46.1428 117.228 46.2651C117.205 46.5685 117.011 46.7768 116.826 47.0983C116.53 47.6235 115.906 48.1398 115.883 48.3707C115.873 48.6514 116.091 48.7737 116.317 48.8009C116.595 48.8235 116.766 48.7873 117.261 48.8507C117.561 48.8733 118.269 48.973 118.25 49.3171C118.227 49.5118 117.954 49.7428 117.7 49.9284C117.358 50.1865 116.715 50.3088 116.692 50.2952C116.553 50.2952 116.623 50.2092 116.567 50.0507C116.535 49.9646 116.521 49.7926 116.419 49.8197C116.28 49.8424 116.1 50.2092 116.165 50.4809C116.22 50.662 116.35 50.8341 116.465 50.8476C116.992 50.8839 117.672 50.6393 118.162 50.259C118.551 49.9782 118.828 49.6839 118.851 49.2809M112.345 46.8175C112.308 46.9896 112.082 47.293 111.633 47.5013C111.379 47.6099 110.967 47.696 110.667 47.6733C110.611 47.6733 110.496 47.6371 110.38 47.5284C110.621 47.2205 110.722 47.0983 111 46.8945C111.356 46.6273 111.827 46.4281 112.022 46.4281C112.207 46.4281 112.378 46.6228 112.345 46.8175ZM112.859 46.9035C112.905 46.2786 112.433 45.939 112.008 45.9119C111.652 45.8892 111.249 46.0115 110.847 46.2922C110.375 46.6092 109.904 47.1118 109.594 47.5647C109.238 48.0673 109.021 48.8371 109.007 49.0952C108.951 49.9737 109.409 50.7933 110.5 50.8793C110.926 50.902 112.128 50.7344 112.11 50.3269C112.086 50.2046 112.031 50.1186 111.915 50.096C111.698 50.0597 111.305 50.3631 110.676 50.3269C110.204 50.2907 109.552 49.9601 109.599 49.2628C109.631 48.8235 109.876 48.3345 110.047 48.0899C110.218 48.1896 110.38 48.262 110.769 48.2982C111.009 48.3118 111.596 48.1624 111.938 47.9677C112.489 47.6598 112.835 47.293 112.859 46.9035ZM107.855 46.8673C107.865 46.6002 107.707 46.4281 107.49 46.4145C107.351 46.4009 107.236 46.5141 107.157 46.5866C106.815 46.65 106.283 46.4417 105.881 46.342C105.354 46.2334 104.711 46.0975 104.517 46.0975C103.967 46.0975 103.439 46.1836 103.393 46.8673C103.384 47.0484 103.338 47.1118 103.439 47.1481C103.495 47.1617 103.518 47.1345 103.601 47.1118C103.555 47.2703 103.523 47.456 103.476 47.6869C103.338 48.3118 103.199 48.8009 103.167 49.3035C103.134 49.8514 103.028 50.6258 103.43 50.6982C103.555 50.7208 103.717 50.6258 103.749 50.4537C103.805 50.2092 103.74 49.9284 103.763 49.5978C103.809 49.0228 103.819 48.6922 103.98 48.1443C104.05 47.8499 104.165 47.5466 104.29 47.2884C104.392 47.0213 104.508 46.822 104.554 46.7405C104.919 46.7632 105.807 46.985 106.297 47.0711C106.686 47.13 106.815 47.13 107.009 47.1435C106.894 47.3518 106.667 47.8635 106.482 48.4522C106.311 49.0137 106.205 49.8333 106.195 50.0054C106.182 50.2499 106.117 51.0061 106.343 51.0197C106.723 51.0424 106.755 50.911 106.778 50.5895C106.778 50.3948 106.787 50.1005 106.833 49.7835C106.903 49.2582 106.958 49.0137 107.143 48.4748C107.444 47.705 107.842 46.9805 107.855 46.8718M100.267 49.8877C100.258 49.9873 100.212 50.0326 100.212 50.1322C99.6847 50.3133 99.2131 50.4265 98.8339 50.3903C98.7784 50.3903 98.4917 50.2092 98.4779 50.0009C98.4686 49.6703 99.2825 48.6696 99.7541 48.7058C100.11 48.7284 100.318 49.2311 100.272 49.8922M101.636 47.3654C101.692 46.4235 100.892 45.4455 100.18 45.3821C99.768 45.3594 99.1576 45.613 99.1345 45.9209C99.1345 45.9707 99.19 46.2741 99.4119 46.2877C99.6894 46.3103 99.5969 45.9843 100.147 46.0205C100.642 46.0568 101.09 46.89 101.053 47.3881C101.007 48.2213 100.859 48.7963 100.73 49.136C100.568 48.6107 100.235 48.0582 99.8558 48.0356C98.9819 47.9767 97.9045 49.4303 97.8675 49.942C97.8351 50.5035 98.279 50.9065 98.7276 50.9427C99.116 50.9654 99.6709 50.8431 100.221 50.6348C100.277 50.6575 100.554 50.7435 100.647 50.7344C100.832 50.748 101.368 50.4763 101.211 50.1956C101.164 50.096 101.063 50.0507 100.993 50.0009C101.188 49.5978 101.544 48.6696 101.636 47.3609M96.3416 47.7684C96.3878 47.1571 96.3647 46.3013 95.6988 46.2515C95.3659 46.2288 94.7787 46.8628 94.1822 47.705C93.7799 48.2665 93.3914 48.905 93.0123 49.4303C93.0816 49.0771 93.336 48.022 93.5857 47.0937C93.7475 46.5186 93.9879 45.6854 94.1729 45.1511C94.4041 44.5172 94.5613 44.2092 94.5844 43.8787C94.5983 43.7428 94.4457 43.6342 94.3671 43.6342C94.0249 43.6115 93.5533 45.1647 93.2296 46.2152C92.8874 47.302 92.6331 48.4431 92.4158 49.5028C92.2678 50.2137 92.106 50.6167 91.9441 51.314C91.6574 52.514 91.3707 54.0174 91.3014 54.4566C91.269 54.6876 91.38 54.9457 91.6112 54.9955C91.8424 55.0317 92.0597 54.8144 92.0828 54.5789C92.0921 54.357 92.106 54.3208 92.1615 53.9812C92.3695 52.6499 92.5499 51.8529 92.9522 50.6076C93.3637 49.8741 93.7891 49.0545 94.4319 48.185C94.9729 47.4379 95.3937 46.976 95.5925 46.9986C95.8006 47.0213 95.7774 47.379 95.7636 47.6733C95.7173 48.2982 95.3844 48.896 94.9497 49.3352C94.4319 49.8469 93.8261 50.1548 93.8261 50.2046C93.8169 50.4356 93.8585 50.5126 94.0111 50.5578C94.3116 50.6439 94.8943 50.105 95.2965 49.8016C95.7081 49.4711 96.2953 48.6152 96.3416 47.773M90.3627 46.8175C90.3257 46.9896 90.0991 47.293 89.6506 47.5013C89.3963 47.6099 88.9847 47.696 88.6842 47.6733C88.6287 47.6733 88.5131 47.6371 88.3975 47.5284C88.6379 47.2205 88.7397 47.0983 89.0171 46.8945C89.3732 46.6273 89.8448 46.4281 90.039 46.4281C90.224 46.4281 90.3951 46.6228 90.3627 46.8175ZM90.8806 46.9035C90.9268 46.2786 90.4552 45.939 90.0298 45.9119C89.6737 45.8892 89.2714 46.0115 88.8692 46.2922C88.3975 46.6092 87.9258 47.1118 87.616 47.5647C87.26 48.0673 87.0427 48.8371 87.0288 49.0952C86.9733 49.9737 87.4311 50.7933 88.5224 50.8793C88.9478 50.902 90.15 50.7344 90.1315 50.3269C90.1084 50.2046 90.0529 50.1186 89.9373 50.096C89.72 50.0597 89.3269 50.3631 88.6981 50.3269C88.2264 50.2907 87.5744 49.9601 87.6207 49.2628C87.653 48.8235 87.8981 48.3345 88.0692 48.0899C88.2403 48.1896 88.4021 48.262 88.7905 48.2982C89.031 48.3118 89.6182 48.1624 89.9604 47.9677C90.5107 47.6598 90.8575 47.293 90.8806 46.9035ZM82.8672 47.5239C82.9227 47.3654 82.7423 47.216 82.5666 47.2069C82.3816 47.1934 82.1782 47.6235 81.9701 48.1714C81.7158 48.8552 81.6141 49.7744 81.6048 49.9329C81.5817 50.3858 81.7065 50.7888 82.0395 50.7163C82.2244 50.6801 82.3724 50.4854 82.3816 50.3269C82.3909 50.2273 82.266 50.105 82.2892 49.616C82.2984 49.385 82.3585 49.0046 82.5065 48.502C82.6082 48.1715 82.7932 47.696 82.8625 47.5239M86.8253 46.1564C86.8346 46.0341 86.7236 45.8847 86.608 45.8847C86.3907 45.8847 85.7017 46.1428 85.1838 46.2288C84.2867 46.3737 83.3943 46.4598 83.2001 46.4507C83.0521 46.4371 82.5666 46.3873 82.0765 46.2696C81.799 46.1971 81.6418 46.0975 81.4013 46.0975C81.2534 46.0975 81.1008 46.1836 81.0915 46.342C81.0684 46.659 81.4707 46.7088 81.836 46.8085C82.2707 46.9171 82.5943 46.9805 83.0891 47.0032C83.9723 47.053 84.7769 46.8673 85.341 46.736C86.2473 46.5051 86.7976 46.419 86.8346 46.1609M73.2908 47.5873C73.3139 47.3292 73.2908 47.0484 73.0504 47.0484C72.9116 47.0484 72.6943 47.2703 72.3059 47.6733C71.9637 48.0175 71.5013 48.493 70.9973 48.9096C70.5395 49.2899 69.6193 50.096 69.3003 50.0597C69.1985 50.0461 69.1384 49.9148 69.1523 49.7563C69.1616 49.6703 69.4066 48.7148 69.5546 48.2394C69.7488 47.5194 70.0031 47.1979 70.0355 46.8809C70.0586 46.6862 69.8644 46.6364 69.6933 46.6228C69.5222 46.6092 69.1754 47.456 68.9257 48.3481C68.6853 49.2401 68.5373 49.7654 68.5142 50.1322C68.4911 50.3993 68.6622 50.6348 68.9026 50.6801C69.4667 50.7888 70.4193 50.0914 71.2655 49.3216C71.7603 48.905 72.1394 48.5518 72.5047 48.2077C72.4492 48.3662 72.3336 48.7556 72.2273 49.1631C72.1255 49.6522 72.0886 49.9963 72.0331 50.191C72.0007 50.4129 72.0701 50.7163 72.3105 50.7661C72.551 50.8159 72.6897 50.6575 72.7359 50.4718C72.759 50.3269 72.7267 50.019 72.7822 49.702C72.8376 49.4077 72.907 49.0771 72.9995 48.6741C73.1012 48.2575 73.2631 47.8907 73.3001 47.5873M76.0144 43.6613C76.0236 43.5255 75.9126 43.4304 75.8294 43.4168C75.6814 43.4032 75.3809 43.5617 74.8537 43.6477C74.1555 43.77 73.6931 43.77 73.018 43.7202C72.01 43.6477 71.6955 43.2538 71.6169 43.2538C71.3857 43.2311 71.2377 43.3987 71.2285 43.5345C71.1961 44.0734 72.3198 44.2545 72.8561 44.2907C73.5081 44.3406 74.3497 44.2681 74.9555 44.1323C75.7832 43.924 76.0005 43.8742 76.0097 43.6568M65.4392 49.068C65.4623 48.6379 65.0369 48.2484 64.7595 48.2258C64.4497 48.2031 64.0705 48.3843 63.7283 48.5699C63.4648 48.7148 63.2243 48.8371 63.0625 48.9367C63.1318 48.3888 63.2798 47.7141 63.3029 47.3111C63.3399 46.7994 63.5572 45.4409 63.0625 45.4047C62.9376 45.4047 62.7526 45.5496 62.7434 45.7081C62.7295 45.9164 62.7896 46.0613 62.7989 46.2832C62.8081 46.5503 62.7989 46.7134 62.7758 46.9805C62.7295 47.8137 62.5584 48.7646 62.4983 49.0952C62.3966 49.2673 62.3735 49.3397 62.3365 49.5254C62.2902 49.7337 62.5307 49.8695 62.7249 49.8695C62.8729 49.8695 62.9654 49.7337 63.1041 49.6114C63.2752 49.4529 63.4925 49.2673 63.7376 49.136C64.0705 48.9503 64.482 48.7918 64.5884 48.8054C64.7132 48.828 64.8427 48.8914 64.8288 49.0726C64.8057 49.3443 64.4497 49.5118 64.1861 49.7337C64.015 49.8786 63.7052 50.0009 63.4879 50.1005C63.2474 50.2227 63.1087 50.3224 63.0856 50.4175C63.0301 50.5759 63.1549 50.7842 63.3029 50.7978C63.4879 50.8114 63.9826 50.5261 64.3572 50.259C64.8612 49.8922 65.4022 49.6114 65.4346 49.0726M67.0715 47.0711C67.0622 46.899 66.9235 46.7269 66.7524 46.7269C66.5212 46.7269 66.3825 47.13 66.3409 47.4379C66.2947 47.8182 66.2715 47.9903 66.2484 48.819C66.2392 49.3941 66.216 50.0416 66.1467 50.5307C66.0912 50.8612 66.0218 51.0197 66.045 51.2144C66.045 51.3005 66.1374 51.3503 66.2068 51.3729C66.5397 51.4454 66.5952 50.9563 66.7016 50.4537C66.7571 50.1095 66.8033 49.5843 66.8264 49.2084C66.8588 48.6831 66.8357 48.0945 66.8727 47.8137C66.9651 47.2522 67.1039 47.3383 67.0807 47.0666M60.94 49.2763C60.9863 48.6152 60.2418 48.3843 59.5991 48.2756C59.3216 48.2258 59.095 48.2031 58.8546 48.1896C59.0627 47.9586 59.2661 47.6009 59.4049 47.3835C59.784 46.7586 59.8303 46.4054 59.8395 46.2334C59.8858 45.5496 59.391 45.4138 59.2661 45.4002C59.0026 45.3866 58.4847 45.8032 58.0361 46.4643C57.6339 47.0756 57.2547 47.7232 57.2454 47.7594C57.2778 47.465 57.3009 47.0032 57.3009 46.1926C57.3009 45.9617 57.3009 45.3956 57.0235 45.459C56.8293 45.4953 56.7692 45.5587 56.7368 45.9481C56.7137 46.2515 56.746 46.7043 56.6905 47.0711C56.5888 47.7458 56.4131 48.7103 56.2651 49.1994C56.1958 49.4439 56.1264 49.5526 56.1634 49.8243C56.1727 49.9827 56.3021 50.1186 56.4501 50.1412C56.6905 50.1775 57.0142 49.6386 57.1622 49.2628C57.2871 48.9322 57.4628 48.4069 57.6662 47.9541C57.8049 47.6598 58.1379 47.1571 58.4107 46.7813C58.6188 46.4869 58.9979 46.0115 59.1459 46.0341C59.2615 46.0477 59.317 46.1428 59.317 46.2651C59.2939 46.5685 59.0997 46.7768 58.9147 47.0983C58.6141 47.6235 57.9945 48.1398 57.9714 48.3707C57.9575 48.6514 58.1795 48.7737 58.4061 48.8009C58.6835 48.8235 58.8546 48.7873 59.3494 48.8507C59.6499 48.8733 60.3574 48.973 60.3389 49.3171C60.3158 49.5118 60.0383 49.7428 59.7886 49.9284C59.4465 50.1865 58.7991 50.3088 58.7806 50.2952C58.6419 50.2952 58.7112 50.2092 58.6558 50.0507C58.6234 49.9646 58.6095 49.7926 58.5078 49.8197C58.3691 49.8424 58.1841 50.2092 58.2535 50.4809C58.309 50.662 58.4384 50.8341 58.554 50.8476C59.0812 50.8839 59.7609 50.6393 60.2511 50.259C60.6395 49.9782 60.9169 49.6839 60.94 49.2809M54.1797 48.3209C54.1335 48.9684 53.7913 49.2763 53.4121 49.6069C52.8017 50.1186 52.0711 50.2182 51.8723 50.2046C51.4007 50.1684 51.1278 49.6069 51.1602 49.0545C51.1926 48.6741 51.3914 47.7956 51.655 47.4877C51.7336 47.6371 51.8492 47.7684 51.9972 47.782C52.1821 47.7956 52.3625 47.7594 52.4688 47.6009C52.5382 47.5284 52.5705 47.3428 52.5613 47.2477C52.7463 47.1254 53.0792 46.9669 53.3659 46.9805C53.7543 47.0167 54.2398 47.533 54.1797 48.3254M54.7901 48.2484C54.8224 47.7367 54.3647 46.4371 53.4491 46.3783C53.0144 46.342 52.6676 46.5503 52.3486 46.7451C52.085 46.6726 52.085 46.4643 51.8677 46.4417C51.4099 46.4054 51.0862 47.1617 50.8365 47.8092C50.7117 48.1533 50.6053 48.4839 50.5822 48.9594C50.5267 49.8424 50.9475 50.7435 51.7197 50.8069C52.2931 50.8567 53.167 50.5125 53.7265 50.0507C54.3832 49.5616 54.7485 48.8507 54.7947 48.253M49.084 46.6952C49.0933 46.3919 49.0517 46.2062 48.8297 46.1926C48.506 46.17 48.4274 46.6817 48.2887 47.0847C48.1638 47.5013 47.9928 47.6824 47.7939 47.9767C47.2205 48.3299 46.9662 48.2937 46.4298 48.416C46.0183 48.5156 45.6854 48.5609 45.3154 48.5971C45.3709 48.1307 45.4403 47.6824 45.6021 47.0937C45.7177 46.6183 45.9906 45.9798 46.0044 45.8847C46.0044 45.7987 45.9027 45.4319 45.7039 45.4454C45.4264 45.459 45.2461 46.2424 45.0842 46.7903C44.9363 47.293 44.7513 48.2213 44.6958 48.502C44.5941 48.6741 44.5571 48.9548 44.5571 48.9548C44.5479 49.0907 44.5664 49.3714 44.5664 49.4801C44.5571 49.702 44.4415 49.7744 44.4877 49.9556C44.534 50.1367 44.6126 50.2997 44.7883 50.3088C44.9733 50.3224 45.1305 50.1639 45.1536 49.9782C45.1767 49.8197 45.1074 49.5616 45.1767 49.3171C45.431 49.2175 46.0137 49.145 46.5547 49.0092C46.9893 48.8869 47.3361 48.742 47.6783 48.665C47.609 48.982 47.5396 49.5933 47.5072 49.8877C47.4379 50.5986 47.6552 51.0514 47.9558 51.0741C48.15 51.0876 48.4043 51.0107 48.4135 50.8069C48.4135 50.7208 48.4228 50.6348 48.3581 50.585C48.3118 50.5488 48.2794 50.5714 48.2193 50.5488C48.0575 50.4627 48.0344 50.2907 48.0482 50.096C48.0714 49.7065 48.2332 49.0952 48.4043 48.6062C48.691 47.7865 49.047 47.0756 49.084 46.6862" fill="white"/>
<path d="M281.011 35.0033C281.011 36.638 281.728 37.3217 283.439 37.3217H295.572C297.283 37.3217 298 36.638 298 35.0033V32.3407H295.415V34.1293C295.415 34.6999 295.096 34.9671 294.541 34.9671H284.674C284.114 34.9671 283.8 34.6999 283.8 34.1293V25.0457H294.342V22.691H283.8V12.9598H293.39C293.949 12.9598 294.264 13.227 294.264 13.7975V15.5862H296.849V12.9236C296.849 11.2889 296.132 10.6051 294.421 10.6051H278.426V12.9598H281.011V35.0033ZM260.125 23.7144V12.9598H266.409C269.71 12.9598 271.782 14.9749 271.782 18.2805C271.782 21.5861 269.715 23.7144 266.372 23.7144H260.125ZM257.336 37.3217H260.12V26.0736H264.855C266.409 26.0736 266.927 26.2638 267.68 27.6675L271.699 35.3067C272.614 37.0546 273.289 37.3217 275.56 37.3217H276.794V34.9671H276.239C275.245 34.9671 274.649 34.8901 274.251 34.0931L270.233 26.4902C269.835 25.7295 269.239 25.4261 269.239 25.4261V25.3491C271.985 24.7785 274.69 22.3469 274.69 18.2035C274.69 13.5666 271.347 10.6006 266.654 10.6006H254.756V12.9553H257.341V37.3172L257.336 37.3217ZM235.654 35.0033C235.654 36.638 236.371 37.3217 238.082 37.3217H250.215C251.926 37.3217 252.643 36.638 252.643 35.0033V32.3407H250.058V34.1293C250.058 34.6999 249.739 34.9671 249.184 34.9671H239.316C238.757 34.9671 238.443 34.6999 238.443 34.1293V25.0457H248.985V22.691H238.443V12.9598H248.033C248.592 12.9598 248.907 13.227 248.907 13.7975V15.5862H251.492V12.9236C251.492 11.2889 250.775 10.6051 249.064 10.6051H233.069V12.9598H235.654V35.0033ZM206.171 23.7551C206.171 31.5482 211.942 37.7791 220.136 37.7791C227.058 37.7791 230.919 33.4456 230.919 33.4456L229.329 31.5075C229.329 31.5075 225.948 35.2705 220.178 35.2705C213.81 35.2705 209.075 30.14 209.075 23.7551C209.075 17.3703 213.852 12.6564 220.057 12.6564C223.28 12.6564 227.816 14.024 227.816 16.5326V18.0133H230.443V15.8081C230.443 11.7417 223.955 10.1433 219.979 10.1433C212.099 10.1433 206.171 16.0345 206.171 23.7506M178.164 23.7914C178.164 17.4835 183.218 12.6564 189.502 12.6564C195.786 12.6564 200.84 17.4835 200.84 23.7914C200.84 30.0992 195.749 35.2705 189.502 35.2705C183.255 35.2705 178.164 30.2532 178.164 23.7914ZM175.26 23.7914C175.26 31.6207 181.544 37.7791 189.502 37.7791C197.46 37.7791 203.744 31.6207 203.744 23.7914C203.744 15.962 197.418 10.1478 189.502 10.1478C181.585 10.1478 175.26 16.116 175.26 23.7914ZM145.934 37.3217H148.88C150.591 37.3217 151.307 36.638 151.307 35.0033V18.2805C151.307 16.8767 151.067 14.7847 151.067 14.7847H151.146C151.146 14.7847 152.459 16.99 153.453 18.2805L167.737 37.3217H170.284V13.7975C170.284 13.227 170.603 12.9598 171.158 12.9598H172.869V10.6051H169.924C168.213 10.6051 167.496 11.2889 167.496 12.9236V29.6464C167.496 31.0547 167.695 33.1422 167.695 33.1422H167.616C167.616 33.1422 166.303 30.9777 165.351 29.6464L151.067 10.6051H148.519V34.1293C148.519 34.6999 148.2 34.9671 147.645 34.9671H145.934V37.3217ZM105.594 37.3217H112.396C114.426 37.3217 115.3 36.484 115.3 34.5459V25.6887C115.3 23.977 114.981 21.6223 114.981 21.6223H115.06C115.06 21.6223 116.253 23.977 117.446 25.6887L125.362 37.3172H131.729V16.6775C131.729 16.1477 132.048 15.8398 132.603 15.8398H134.314V10.1387H127.512C125.482 10.1387 124.608 10.9765 124.608 12.9145V21.808C124.608 23.5197 124.927 25.8744 124.927 25.8744H124.849C124.849 25.8744 123.656 23.5559 122.463 21.808L114.583 10.1387H108.179V30.7784C108.179 31.3128 107.86 31.6162 107.305 31.6162H105.594V37.3172V37.3217ZM81.9192 23.565C81.9192 19.2314 85.2624 15.962 89.4009 15.962C93.5394 15.962 96.8826 19.2314 96.8826 23.565C96.8826 27.8985 93.5394 31.5075 89.4009 31.5075C85.2624 31.5075 81.9192 28.0887 81.9192 23.565ZM74.5208 23.565C74.5208 31.5482 80.8095 37.7791 89.4009 37.7791C97.9924 37.7791 104.281 31.5437 104.281 23.565C104.281 15.5862 97.997 9.69043 89.4009 9.69043C80.8048 9.69043 74.5208 15.7719 74.5208 23.565ZM44.4831 37.3217H51.2851C53.315 37.3217 54.189 36.484 54.189 34.5459V25.6887C54.189 23.977 53.8699 21.6223 53.8699 21.6223H53.9485C53.9485 21.6223 55.1415 23.977 56.3345 25.6887L64.2508 37.3172H70.6181V16.6775C70.6181 16.1477 70.9372 15.8398 71.4921 15.8398H73.2029V10.1387H66.401C64.3711 10.1387 63.4971 10.9765 63.4971 12.9145V21.808C63.4971 23.5197 63.8162 25.8744 63.8162 25.8744H63.7376C63.7376 25.8744 62.5446 23.5559 61.3516 21.808L53.4722 10.1387H47.068V30.7784C47.068 31.3128 46.7489 31.6162 46.194 31.6162H44.4831V37.3172V37.3217Z" fill="white"/>
<path d="M297.279 5.37955V5.65577H297.612C297.884 5.65577 298 5.53804 298 5.25729V0.398485C298 0.117734 297.884 0 297.612 0H297.279V0.276223H297.565C297.658 0.276223 297.713 0.326033 297.713 0.425655V5.22559C297.713 5.32974 297.658 5.37955 297.565 5.37955H297.279ZM294.227 4.46484H294.583L295.679 3.05203L294.583 1.63017H294.227L295.323 3.05203L294.227 4.46484ZM295.3 4.46484H295.656L296.752 3.05203L295.656 1.63017H295.3L296.395 3.05203L295.3 4.46484ZM290.625 4.99918H290.884L292.715 2.53581C292.867 2.32752 293.117 1.95167 293.117 1.95167H293.131C293.131 1.95167 293.099 2.30487 293.099 2.53581V4.60522C293.099 4.88144 293.21 4.99918 293.478 4.99918H293.797V4.73654H293.515C293.427 4.73654 293.376 4.68673 293.376 4.58258V1.54866H293.117L291.291 4.00296C291.138 4.21126 290.884 4.58711 290.884 4.58711H290.87C290.87 4.58711 290.902 4.2339 290.902 4.00296V1.93356C290.902 1.65734 290.791 1.54866 290.523 1.54866H290.199V1.8113H290.481C290.569 1.8113 290.62 1.86111 290.62 1.96526V4.99918H290.625ZM287.291 4.73654C287.906 3.88976 287.924 2.55846 287.924 2.04224V1.81582H289.062C289.154 1.81582 289.21 1.86563 289.21 1.96978V4.74107H287.291V4.73654ZM286.519 5.11238V5.82332H286.801V5.14861C286.801 5.04446 286.856 4.99918 286.949 4.99918H289.603C289.695 4.99918 289.751 5.04899 289.751 5.14861V5.82332H290.033V5.11238C290.033 4.84974 289.917 4.73201 289.644 4.73201H289.496V1.94714C289.496 1.66639 289.385 1.54866 289.108 1.54866H287.217V1.8113H287.651V2.03771C287.651 2.44978 287.665 3.8807 286.953 4.73201H286.907C286.634 4.73201 286.519 4.84974 286.519 5.11238ZM283.721 2.95694C283.841 2.15091 284.41 1.73432 285.025 1.73432C285.58 1.73432 286.07 2.11469 286.102 2.95694H283.721ZM283.407 3.27845C283.407 4.37428 284.188 5.07616 285.131 5.07616C285.561 5.07616 286.028 4.8905 286.32 4.60069L286.167 4.36069C285.899 4.63692 285.506 4.79541 285.131 4.79541C284.354 4.79541 283.698 4.22485 283.698 3.22411H286.38C286.384 3.16071 286.394 3.09279 286.394 3.03845C286.394 2.20525 285.941 1.46715 285.03 1.46715C284.174 1.46715 283.407 2.11469 283.407 3.27845ZM280.304 3.28297C280.304 2.20072 280.877 1.75243 281.497 1.75243C282.181 1.75243 282.662 2.34563 282.662 3.27845C282.662 4.21126 282.126 4.80899 281.469 4.80899C280.706 4.80899 280.304 4.05277 280.304 3.2875M280.031 6.37576H280.308V4.63692C280.308 4.45579 280.295 4.33353 280.295 4.33353H280.308C280.308 4.33353 280.581 5.07616 281.464 5.07616C282.348 5.07616 282.949 4.36522 282.949 3.26939C282.949 2.17355 282.403 1.46262 281.506 1.46262C280.609 1.46262 280.313 2.20072 280.313 2.20072H280.299C280.299 2.20072 280.304 2.08299 280.304 1.9245C280.304 1.66186 280.193 1.54413 279.915 1.54413H279.587V1.80677H279.874C279.966 1.80677 280.022 1.85658 280.022 1.96073V6.37123L280.031 6.37576ZM277.206 4.57805V3.3509H278.029C278.616 3.3509 278.958 3.59089 278.958 4.04825C278.958 4.46937 278.672 4.73201 278.033 4.73201H277.344C277.257 4.73201 277.206 4.6822 277.206 4.58258M277.206 3.0792V1.8113H277.964C278.5 1.8113 278.773 2.00601 278.773 2.42714C278.773 2.84826 278.505 3.08373 277.992 3.08373H277.21L277.206 3.0792ZM276.928 4.60522C276.928 4.88144 277.035 4.99918 277.307 4.99918H278.066C278.833 4.99918 279.254 4.60522 279.254 4.04825C279.254 3.62712 278.981 3.28297 278.537 3.20147V3.18788C278.88 3.06562 279.074 2.82109 279.074 2.43166C279.074 1.85658 278.658 1.55771 277.978 1.55771H276.494V1.82035H276.928V4.61428V4.60522ZM273.613 4.06183C273.613 3.16524 274.829 3.16524 275.398 3.16524H275.61V3.3509C275.61 4.03466 275.194 4.81352 274.468 4.81352C273.9 4.81352 273.613 4.42862 273.613 4.06183ZM273.322 4.07994C273.322 4.76824 273.918 5.08069 274.459 5.08069C275.328 5.08069 275.624 4.27013 275.615 4.27013H275.629C275.629 4.27013 275.615 4.39239 275.615 4.58258C275.615 4.8905 275.726 5.00371 276.004 5.00371H276.332V4.74107H276.045C275.953 4.74107 275.897 4.69126 275.897 4.58711V2.77581C275.897 2.04676 275.675 1.47168 274.653 1.47168C274.38 1.47168 273.622 1.58941 273.622 1.99695V2.31393H273.904V2.07846C273.904 1.78865 274.473 1.73884 274.649 1.73884C275.347 1.73884 275.62 2.02865 275.62 2.84826V2.89807H275.398C274.801 2.89807 273.326 2.91166 273.326 4.08447M269.844 4.99918H270.126V3.35995H272.314V4.60069C272.314 4.88144 272.425 4.99918 272.702 4.99918H273.03V4.73654H272.744C272.651 4.73654 272.596 4.68673 272.596 4.58258V1.54866H272.314V3.08826H270.126V1.95167C270.126 1.67092 270.011 1.55319 269.738 1.55319H269.41V1.81582H269.696C269.789 1.81582 269.844 1.86563 269.844 1.96978V5.00371V4.99918ZM264.665 2.95694C264.786 2.15091 265.354 1.73432 265.969 1.73432C266.524 1.73432 267.014 2.11469 267.047 2.95694H264.665ZM264.356 3.27845C264.356 4.37428 265.137 5.07616 266.08 5.07616C266.506 5.07616 266.977 4.8905 267.269 4.60069L267.116 4.36069C266.848 4.63692 266.455 4.79541 266.08 4.79541C265.304 4.79541 264.647 4.22485 264.647 3.22411H267.329C267.338 3.16071 267.343 3.09279 267.343 3.03845C267.343 2.20525 266.89 1.46715 265.979 1.46715C265.123 1.46715 264.356 2.11469 264.356 3.27845ZM260.827 4.99918H261.105V3.35995H263.292V4.60069C263.292 4.88144 263.403 4.99918 263.68 4.99918H264.009V4.73654H263.722C263.63 4.73654 263.574 4.68673 263.574 4.58258V1.54866H263.297V3.08826H261.11V1.95167C261.11 1.67092 260.999 1.55319 260.721 1.55319H260.393V1.81582H260.679C260.772 1.81582 260.827 1.86563 260.827 1.96978V5.00371V4.99918ZM258.548 4.46484H258.904L257.808 3.05203L258.904 1.63017H258.548L257.452 3.05203L258.548 4.46484ZM258.52 3.05203L259.616 4.46484H259.972L258.876 3.05203L259.972 1.63017H259.616L258.52 3.05203ZM254.678 4.99918H255.057V4.59164H254.678V4.99918ZM252.796 4.99918H253.078V1.82035H254.081C254.183 1.82035 254.229 1.87469 254.229 1.97431V2.26865H254.483V1.92903C254.483 1.64828 254.372 1.54866 254.095 1.54866H251.778C251.505 1.54866 251.39 1.64375 251.39 1.92903V2.26865H251.644V1.97431C251.644 1.87922 251.69 1.82035 251.792 1.82035H252.796V4.99918ZM248.551 4.06183C248.551 3.16524 249.767 3.16524 250.336 3.16524H250.548V3.3509C250.548 4.03466 250.132 4.81352 249.406 4.81352C248.837 4.81352 248.551 4.42862 248.551 4.06183ZM248.255 4.07994C248.255 4.76824 248.851 5.08069 249.392 5.08069C250.262 5.08069 250.558 4.27013 250.548 4.27013H250.562C250.562 4.27013 250.548 4.39239 250.548 4.58258C250.548 4.8905 250.659 5.00371 250.937 5.00371H251.265V4.74107H250.978C250.886 4.74107 250.83 4.69126 250.83 4.58711V2.77581C250.83 2.04676 250.608 1.47168 249.586 1.47168C249.314 1.47168 248.555 1.58941 248.555 1.99695V2.31393H248.837V2.07846C248.837 1.78865 249.406 1.73884 249.582 1.73884C250.28 1.73884 250.553 2.02865 250.553 2.84826V2.89807H250.331C249.734 2.89807 248.259 2.91166 248.259 4.08447M244.847 5.02635C246.017 5.02635 246.077 2.63996 246.077 2.08299V1.81582H247.108C247.2 1.81582 247.256 1.86563 247.256 1.96978V4.60522C247.256 4.88597 247.367 5.00371 247.644 5.00371H247.973V4.74107H247.686C247.593 4.74107 247.538 4.69126 247.538 4.58711V1.95167C247.538 1.67092 247.427 1.55319 247.15 1.55319H245.365V1.81582H245.799V2.08299C245.799 2.78034 245.665 4.75918 244.851 4.75918V5.02635H244.847ZM243.085 5.25276C243.085 5.53351 243.196 5.65124 243.473 5.65124H243.806V5.37502H243.52C243.427 5.37502 243.372 5.32521 243.372 5.22106V0.425655C243.372 0.321505 243.427 0.276223 243.52 0.276223H243.806V0H243.473C243.201 0 243.085 0.117734 243.085 0.398485V5.25276Z" fill="white"/>
</g>
<defs>
<clipPath id="clip0_2_43">
<rect width="298" height="55" fill="white"/>
</clipPath>
</defs>
</svg>
