<svg width="332" height="151" viewBox="0 0 332 151" fill="none" xmlns="http://www.w3.org/2000/svg">
<mask id="mask0_8001_23" style="mask-type:luminance" maskUnits="userSpaceOnUse" x="0" y="0" width="322" height="107">
<path d="M321.29 0H0V106.321H321.29V0Z" fill="white"/>
</mask>
<g mask="url(#mask0_8001_23)">
<path d="M66.2008 0.00298444L48.613 106.321H11.4298L22.51 46.1976H0L66.2008 0V0.00298444ZM66.5091 106.321V50.6817H83.2122L93.227 88.6379L103.129 50.6803H119.862V106.321H109.505V62.5255L98.5405 106.321H87.7981L76.8662 62.5255V106.321H66.5091ZM128.641 106.321V50.6817H169.597V60.1021H139.784V72.4324H167.522V81.7974H139.784V96.9436H170.64V106.321H128.641ZM177.757 50.6817H198.147C202.741 50.6817 206.231 51.0294 208.662 51.7457C211.843 52.6708 214.717 54.4431 216.98 56.8759C219.291 59.3247 221.053 62.3256 222.26 65.8829C223.459 69.4404 224.061 73.8201 224.061 79.0429C224.061 83.6091 223.497 87.5649 222.37 90.8806C220.989 94.92 219.022 98.2014 216.448 100.699C214.517 102.601 211.909 104.081 208.617 105.14C206.16 105.936 202.866 106.321 198.734 106.321H177.755L177.757 50.6817ZM188.91 60.1021V96.9451H197.231C200.346 96.9451 202.595 96.7764 203.993 96.4139C205.785 95.9573 207.295 95.1917 208.487 94.1054C209.681 93.016 210.645 91.2178 211.409 88.7289C212.155 86.2444 212.537 82.8375 212.537 78.534C212.537 74.2393 212.155 70.943 211.409 68.6362C210.645 66.3352 209.594 64.534 208.246 63.2492C206.881 61.9555 205.155 61.0854 203.072 60.6319C201.519 60.2663 198.468 60.1021 193.915 60.1021H188.91ZM243.292 106.321V57.249H225.094V50.6817H268.875V57.249H250.599V106.321H243.29H243.292ZM292.158 106.321L270.753 50.6817H278.673L293.027 91.0999C294.111 94.0964 295.078 97.1338 295.93 100.206C296.801 97.1313 297.793 94.0937 298.907 91.0999L313.833 50.6817H321.29L299.655 106.321H292.158Z" fill="#B5B5B5"/>
</g>
<path d="M14.2439 138.416H16.368V120.8H2.6239V138.416H4.74799V122.813H14.2439V138.416ZM29.6564 135.598C28.9317 136.277 27.6572 136.781 26.2079 136.781C24.0088 136.781 22.4595 135.522 22.2845 133.383H30.9308C31.0058 133.031 31.0558 132.578 31.0558 132.024C31.0558 128.903 28.7318 126.84 25.833 126.84C22.1346 126.84 20.0355 129.457 20.0355 132.754C20.0355 136.328 22.4095 138.668 26.0579 138.668C27.5573 138.668 29.1816 138.19 30.2811 137.183L29.6564 135.598ZM25.7331 128.727C27.6822 128.727 28.8817 129.885 28.9817 131.747H22.1596C22.3845 130.011 23.6839 128.727 25.7331 128.727ZM33.768 143.45H35.7671V137.888C36.5668 138.416 37.7413 138.668 38.9408 138.668C42.4643 138.668 44.7883 136.026 44.7883 132.578C44.7883 129.231 42.7891 126.84 39.5905 126.84C38.0412 126.84 36.5418 127.519 35.7671 128.425V127.091H33.768V143.45ZM39.0157 128.727C41.3397 128.727 42.6642 130.363 42.6642 132.653C42.6642 135.044 41.1648 136.781 38.7659 136.781C37.6913 136.781 36.7667 136.579 35.7671 135.9V130.288C36.4668 129.407 37.6913 128.727 39.0157 128.727ZM47.6536 138.416C48.6782 138.416 50.3775 138.517 51.7769 138.517C55.2754 138.517 56.9496 137.359 56.9496 135.22C56.9496 133.811 56.125 132.88 54.3258 132.553V132.502C55.6752 132.301 56.5748 131.244 56.5748 129.91C56.5748 127.872 54.8755 126.991 51.7269 126.991C50.1026 126.991 48.6282 127.091 47.6536 127.091V138.416ZM52.0517 133.333C53.851 133.333 54.8255 133.886 54.8255 135.069C54.8255 136.252 53.801 136.881 51.9518 136.881C51.0522 136.881 50.2525 136.831 49.6528 136.806V133.333H52.0517ZM51.8768 128.627C53.3262 128.627 54.4507 129.08 54.4507 130.313C54.4507 131.42 53.5011 132.074 52.1767 132.074H49.6528V128.702C50.1526 128.677 50.9772 128.627 51.8768 128.627ZM60.0017 138.416H63.6252C67.1486 138.416 68.2981 136.378 68.2981 134.39C68.2981 132.376 67.2986 130.489 63.8501 130.489H62.0009V127.091H60.0017V138.416ZM70.4472 138.416H72.4464V127.091H70.4472V138.416ZM63.4752 132.376C65.3994 132.376 66.174 133.106 66.174 134.465C66.174 135.799 65.4494 136.529 63.4502 136.529H62.0009V132.376H63.4752ZM78.034 138.416L84.5312 129.986V138.416H86.5303V127.091H84.5312L78.034 135.522V127.091H76.0348V138.416H78.034ZM77.6341 121.303C77.6341 123.291 78.9585 124.826 81.4325 124.826C83.6815 124.826 85.1309 123.291 85.1309 121.303H83.2567C83.1567 122.662 82.532 123.291 81.4325 123.291C80.233 123.291 79.6083 122.662 79.5083 121.303H77.6341ZM95.7774 138.416H97.7765V130.162L101.825 135.422H101.9L105.798 130.162V138.416H107.797V127.091H106.023L101.925 132.704L97.6016 127.091H95.7774V138.416ZM120.291 135.598C119.567 136.277 118.292 136.781 116.843 136.781C114.644 136.781 113.094 135.522 112.919 133.383H121.566C121.641 133.031 121.691 132.578 121.691 132.024C121.691 128.903 119.367 126.84 116.468 126.84C112.77 126.84 110.67 129.457 110.67 132.754C110.67 136.328 113.044 138.668 116.693 138.668C118.192 138.668 119.817 138.19 120.916 137.183L120.291 135.598ZM116.368 128.727C118.317 128.727 119.517 129.885 119.617 131.747H112.795C113.019 130.011 114.319 128.727 116.368 128.727ZM122.414 141.185H124.288V138.416H133.384V141.185H135.259V136.529H133.384V127.091H125.713L125.538 130.086C125.338 133.182 124.563 135.573 123.814 136.529H122.414V141.185ZM127.462 130.866L127.587 128.979H131.385V136.529H125.938C126.462 135.824 127.212 133.761 127.462 130.866ZM139.433 138.416L145.931 129.986V138.416H147.93V127.091H145.931L139.433 135.522V127.091H137.434V138.416H139.433ZM151.564 138.416H161.56V141.185H163.434V136.529H161.56V127.091H159.56V136.529H153.563V127.091H151.564V138.416ZM167.595 138.416L174.092 129.986V138.416H176.091V127.091H174.092L167.595 135.522V127.091H165.596V138.416H167.595ZM187.973 138.416H189.972V127.091H187.973V131.747H181.725V127.091H179.726V138.416H181.725V133.635H187.973V138.416ZM202.233 135.321C201.483 136.177 200.358 136.781 199.009 136.781C196.785 136.781 194.961 135.245 194.961 132.754C194.961 130.363 196.785 128.727 198.809 128.727C199.984 128.727 201.083 129.029 202.033 129.91L202.957 128.325C201.908 127.268 200.333 126.84 198.534 126.84C195.236 126.84 192.837 129.457 192.837 132.754C192.837 136.328 195.286 138.668 198.859 138.668C200.583 138.668 202.233 138.014 203.182 136.781L202.233 135.321ZM215.634 127.091H213.01L208.262 132.628L213.335 138.416H216.109L210.711 132.502L215.634 127.091ZM205.788 138.416H207.787V127.091H205.788V138.416ZM220.234 138.416L226.731 129.986V138.416H228.73V127.091H226.731L220.234 135.522V127.091H218.235V138.416H220.234ZM234.363 138.416L240.861 129.986V138.416H242.86V127.091H240.861L234.363 135.522V127.091H232.364V138.416H234.363ZM233.964 121.303C233.964 123.291 235.288 124.826 237.762 124.826C240.011 124.826 241.46 123.291 241.46 121.303H239.586C239.486 122.662 238.862 123.291 237.762 123.291C236.563 123.291 235.938 122.662 235.838 121.303H233.964ZM261.952 127.091H259.328L254.58 132.628L259.653 138.416H262.426L257.029 132.502L261.952 127.091ZM252.106 138.416H254.105V127.091H252.106V138.416ZM265.152 129.482C266.052 129.004 266.876 128.652 268.251 128.652C270.475 128.652 270.8 130.111 270.8 132.225C270.05 131.672 268.875 131.496 268.001 131.496C265.577 131.496 263.753 132.779 263.753 135.094C263.753 137.284 265.152 138.593 267.201 138.593C269.05 138.593 270.125 137.812 270.8 136.957V138.416H272.699V131.47C272.699 128.526 271.574 126.84 268.376 126.84C266.976 126.84 265.627 127.242 264.627 127.872L265.152 129.482ZM267.901 136.781C266.601 136.781 265.877 136.076 265.877 134.994C265.877 133.685 267.076 133.131 268.276 133.131C269.25 133.131 270.1 133.383 270.8 133.886V135.321C270.225 136 269.375 136.781 267.901 136.781ZM284.294 138.416H286.293V127.091H284.294V131.747H278.046V127.091H276.047V138.416H278.046V133.635H284.294V138.416ZM290.507 129.482C291.407 129.004 292.231 128.652 293.606 128.652C295.83 128.652 296.155 130.111 296.155 132.225C295.405 131.672 294.231 131.496 293.356 131.496C290.932 131.496 289.108 132.779 289.108 135.094C289.108 137.284 290.507 138.593 292.556 138.593C294.405 138.593 295.48 137.812 296.155 136.957V138.416H298.054V131.47C298.054 128.526 296.929 126.84 293.731 126.84C292.331 126.84 290.982 127.242 289.982 127.872L290.507 129.482ZM293.256 136.781C291.957 136.781 291.232 136.076 291.232 134.994C291.232 133.685 292.431 133.131 293.631 133.131C294.605 133.131 295.455 133.383 296.155 133.886V135.321C295.58 136 294.73 136.781 293.256 136.781ZM309.099 138.416H311.098V127.091H303.277L303.077 130.615C302.802 135.849 301.203 136.68 300.353 136.604L300.503 138.567C302.827 138.567 304.526 137.46 305.026 131.017L305.151 129.105H309.099V138.416Z" fill="#B5B5B5"/>
<path d="M322.254 129.428V126.131H323.329L325.74 129.428H327.602L324.866 125.829C325.59 125.578 326.552 124.823 326.552 123.313C326.552 121.79 325.765 120.595 323.379 120.595C323.129 120.595 321.205 120.62 320.717 120.62V129.428H322.254ZM323.304 122.042C324.553 122.042 324.928 122.633 324.928 123.325C324.928 124.231 324.141 124.684 323.254 124.684H322.254V122.067C322.666 122.054 323.016 122.042 323.304 122.042Z" fill="#B5B5B5"/>
<path d="M323.968 132.125C327.911 132.125 331.108 128.906 331.108 124.935C331.108 120.963 327.911 117.744 323.968 117.744C320.025 117.744 316.828 120.963 316.828 124.935C316.828 128.906 320.025 132.125 323.968 132.125Z" stroke="#B5B5B5"/>
</svg>
