<svg width="251" height="114" viewBox="0 0 251 114" fill="none" xmlns="http://www.w3.org/2000/svg">
<mask id="mask0_7_3725" style="mask-type:luminance" maskUnits="userSpaceOnUse" x="0" y="0" width="243" height="81">
<path d="M242.903 0H0V80.2685H242.903V0Z" fill="white"/>
</mask>
<g mask="url(#mask0_7_3725)">
<path d="M50.0494 0.00225316L36.7526 80.2686H8.64123L17.0181 34.8776H0L50.0494 0V0.00225316ZM50.2825 80.2686V38.263H62.9105L70.4819 66.9187L77.9682 38.2619H90.6187V80.2686H82.7884V47.2047L74.499 80.2686H66.3775L58.1127 47.2047V80.2686H50.2825ZM97.2558 80.2686V38.263H128.219V45.3751H105.68V54.684H126.651V61.7543H105.68V73.1892H129.008V80.2686H97.2558ZM134.388 38.263H149.804C153.277 38.263 155.916 38.5255 157.754 39.0663C160.158 39.7647 162.331 41.1027 164.042 42.9395C165.79 44.7882 167.121 47.0538 168.034 49.7394C168.941 52.4252 169.395 55.7318 169.395 59.6748C169.395 63.1221 168.969 66.1086 168.117 68.6118C167.073 71.6615 165.586 74.1388 163.64 76.0247C162.18 77.46 160.208 78.5776 157.72 79.3774C155.862 79.9779 153.372 80.2686 150.248 80.2686H134.387L134.388 38.263ZM142.82 45.3751V73.1903H149.112C151.466 73.1903 153.167 73.063 154.223 72.7893C155.578 72.4446 156.72 71.8665 157.621 71.0464C158.524 70.224 159.253 68.8664 159.83 66.9874C160.394 65.1116 160.683 62.5396 160.683 59.2906C160.683 56.0482 160.394 53.5596 159.83 51.818C159.253 50.0809 158.458 48.721 157.439 47.7511C156.407 46.7743 155.102 46.1175 153.527 45.7751C152.353 45.499 150.047 45.3751 146.604 45.3751H142.82ZM183.934 80.2686V43.2211H170.177V38.263H203.276V43.2211H189.459V80.2686H183.933H183.934ZM220.879 80.2686L204.696 38.263H210.683L221.536 68.7774C222.355 71.0396 223.086 73.3328 223.73 75.6519C224.389 73.3309 225.139 71.0376 225.981 68.7774L237.265 38.263H242.903L226.546 80.2686H220.879Z" fill="white"/>
</g>
<path d="M10.7687 104.5H12.3746V91.2H1.9837V104.5H3.58956V92.72H10.7687V104.5ZM22.4209 102.372C21.873 102.885 20.9095 103.265 19.8137 103.265C18.1512 103.265 16.9799 102.315 16.8476 100.7H23.3844C23.4411 100.434 23.4789 100.092 23.4789 99.674C23.4789 97.318 21.7219 95.76 19.5304 95.76C16.7343 95.76 15.1473 97.736 15.1473 100.225C15.1473 102.923 16.9421 104.69 19.7004 104.69C20.8339 104.69 22.0619 104.329 22.8932 103.569L22.4209 102.372ZM19.4548 97.185C20.9284 97.185 21.8352 98.059 21.9108 99.465H16.7532C16.9232 98.154 17.9056 97.185 19.4548 97.185ZM25.5294 108.3H27.0408V104.101C27.6453 104.5 28.5333 104.69 29.4401 104.69C32.104 104.69 33.861 102.695 33.861 100.092C33.861 97.565 32.3496 95.76 29.9313 95.76C28.76 95.76 27.6265 96.273 27.0408 96.957V95.95H25.5294V108.3ZM29.4968 97.185C31.2538 97.185 32.2551 98.42 32.2551 100.149C32.2551 101.954 31.1216 103.265 29.3079 103.265C28.4955 103.265 27.7965 103.113 27.0408 102.6V98.363C27.5698 97.698 28.4955 97.185 29.4968 97.185ZM36.0273 104.5C36.8019 104.5 38.0865 104.576 39.1445 104.576C41.7895 104.576 43.0553 103.702 43.0553 102.087C43.0553 101.023 42.4318 100.32 41.0716 100.073V100.035C42.0917 99.883 42.7719 99.085 42.7719 98.078C42.7719 96.539 41.4872 95.874 39.1067 95.874C37.8787 95.874 36.7641 95.95 36.0273 95.95V104.5ZM39.3523 100.662C40.7126 100.662 41.4494 101.08 41.4494 101.973C41.4494 102.866 40.6748 103.341 39.2768 103.341C38.5966 103.341 37.9921 103.303 37.5387 103.284V100.662H39.3523ZM39.2201 97.109C40.3159 97.109 41.166 97.451 41.166 98.382C41.166 99.218 40.4481 99.712 39.4468 99.712H37.5387V97.166C37.9165 97.147 38.54 97.109 39.2201 97.109ZM45.3627 104.5H48.1021C50.766 104.5 51.635 102.961 51.635 101.46C51.635 99.94 50.8793 98.515 48.2721 98.515H46.8741V95.95H45.3627V104.5ZM53.2598 104.5H54.7712V95.95H53.2598V104.5ZM47.9888 99.94C49.4435 99.94 50.0291 100.491 50.0291 101.517C50.0291 102.524 49.4813 103.075 47.9699 103.075H46.8741V99.94H47.9888ZM58.9955 104.5L63.9076 98.135V104.5H65.419V95.95H63.9076L58.9955 102.315V95.95H57.4841V104.5H58.9955ZM58.6932 91.58C58.6932 93.081 59.6945 94.24 61.5649 94.24C63.2652 94.24 64.361 93.081 64.361 91.58H62.944C62.8685 92.606 62.3962 93.081 61.5649 93.081C60.6581 93.081 60.1857 92.606 60.1102 91.58H58.6932ZM72.41 104.5H73.9214V98.268L76.982 102.239H77.0386L79.9859 98.268V104.5H81.4973V95.95H80.1559L77.0575 100.187L73.7891 95.95H72.41V104.5ZM90.9431 102.372C90.3952 102.885 89.4317 103.265 88.3359 103.265C86.6734 103.265 85.5021 102.315 85.3698 100.7H91.9066C91.9633 100.434 92.0011 100.092 92.0011 99.674C92.0011 97.318 90.2441 95.76 88.0525 95.76C85.2565 95.76 83.6695 97.736 83.6695 100.225C83.6695 102.923 85.4643 104.69 88.2226 104.69C89.3561 104.69 90.5841 104.329 91.4154 103.569L90.9431 102.372ZM87.977 97.185C89.4506 97.185 90.3574 98.059 90.433 99.465H85.2753C85.4454 98.154 86.4278 97.185 87.977 97.185ZM92.548 106.59H93.9649V104.5H100.842V106.59H102.259V103.075H100.842V95.95H95.0418L94.9096 98.211C94.7584 100.548 94.1728 102.353 93.606 103.075H92.548V106.59ZM96.3643 98.8L96.4587 97.375H99.3304V103.075H95.2118C95.6086 102.543 96.1754 100.985 96.3643 98.8ZM105.415 104.5L110.327 98.135V104.5H111.838V95.95H110.327L105.415 102.315V95.95H103.904V104.5H105.415ZM114.586 104.5H122.143V106.59H123.56V103.075H122.143V95.95H120.632V103.075H116.097V95.95H114.586V104.5ZM126.706 104.5L131.618 98.135V104.5H133.129V95.95H131.618L126.706 102.315V95.95H125.194V104.5H126.706ZM142.112 104.5H143.623V95.95H142.112V99.465H137.389V95.95H135.877V104.5H137.389V100.89H142.112V104.5ZM152.893 102.163C152.326 102.809 151.476 103.265 150.456 103.265C148.774 103.265 147.395 102.106 147.395 100.225C147.395 98.42 148.774 97.185 150.304 97.185C151.192 97.185 152.024 97.413 152.742 98.078L153.441 96.881C152.647 96.083 151.457 95.76 150.097 95.76C147.603 95.76 145.789 97.736 145.789 100.225C145.789 102.923 147.641 104.69 150.342 104.69C151.646 104.69 152.893 104.196 153.611 103.265L152.893 102.163ZM163.024 95.95H161.041L157.451 100.13L161.286 104.5H163.383L159.303 100.035L163.024 95.95ZM155.581 104.5H157.092V95.95H155.581V104.5ZM166.502 104.5L171.414 98.135V104.5H172.925V95.95H171.414L166.502 102.315V95.95H164.991V104.5H166.502ZM177.184 104.5L182.096 98.135V104.5H183.608V95.95H182.096L177.184 102.315V95.95H175.673V104.5H177.184ZM176.882 91.58C176.882 93.081 177.883 94.24 179.754 94.24C181.454 94.24 182.55 93.081 182.55 91.58H181.133C181.057 92.606 180.585 93.081 179.754 93.081C178.847 93.081 178.375 92.606 178.299 91.58H176.882ZM198.042 95.95H196.058L192.468 100.13L196.304 104.5H198.401L194.32 100.035L198.042 95.95ZM190.598 104.5H192.109V95.95H190.598V104.5ZM200.461 97.755C201.141 97.394 201.765 97.128 202.804 97.128C204.485 97.128 204.731 98.23 204.731 99.826C204.164 99.408 203.276 99.275 202.615 99.275C200.782 99.275 199.403 100.244 199.403 101.992C199.403 103.645 200.461 104.633 202.01 104.633C203.408 104.633 204.221 104.044 204.731 103.398V104.5H206.167V99.256C206.167 97.033 205.317 95.76 202.898 95.76C201.84 95.76 200.82 96.064 200.065 96.539L200.461 97.755ZM202.539 103.265C201.557 103.265 201.009 102.733 201.009 101.916C201.009 100.928 201.916 100.51 202.823 100.51C203.56 100.51 204.202 100.7 204.731 101.08V102.163C204.296 102.676 203.654 103.265 202.539 103.265ZM214.933 104.5H216.444V95.95H214.933V99.465H210.21V95.95H208.698V104.5H210.21V100.89H214.933V104.5ZM219.63 97.755C220.311 97.394 220.934 97.128 221.973 97.128C223.654 97.128 223.9 98.23 223.9 99.826C223.333 99.408 222.445 99.275 221.784 99.275C219.952 99.275 218.572 100.244 218.572 101.992C218.572 103.645 219.63 104.633 221.18 104.633C222.578 104.633 223.39 104.044 223.9 103.398V104.5H225.336V99.256C225.336 97.033 224.486 95.76 222.068 95.76C221.01 95.76 219.989 96.064 219.234 96.539L219.63 97.755ZM221.709 103.265C220.726 103.265 220.178 102.733 220.178 101.916C220.178 100.928 221.085 100.51 221.992 100.51C222.729 100.51 223.371 100.7 223.9 101.08V102.163C223.466 102.676 222.823 103.265 221.709 103.265ZM233.686 104.5H235.198V95.95H229.284L229.133 98.61C228.925 102.562 227.716 103.189 227.074 103.132L227.187 104.614C228.944 104.614 230.229 103.778 230.607 98.914L230.701 97.47H233.686V104.5Z" fill="white"/>
<path d="M243.632 97.7143V95.2253H244.444L246.267 97.7143H247.675L245.606 94.9973C246.154 94.8073 246.881 94.2373 246.881 93.0973C246.881 91.9478 246.286 91.0453 244.482 91.0453C244.293 91.0453 242.838 91.0643 242.47 91.0643V97.7143H243.632ZM244.425 92.1378C245.37 92.1378 245.653 92.5843 245.653 93.1068C245.653 93.7908 245.058 94.1328 244.388 94.1328H243.632V92.1568C243.944 92.1473 244.208 92.1378 244.425 92.1378Z" fill="white"/>
<path d="M244.927 99.75C247.909 99.75 250.325 97.3195 250.325 94.3214C250.325 91.3233 247.909 88.8928 244.927 88.8928C241.946 88.8928 239.53 91.3233 239.53 94.3214C239.53 97.3195 241.946 99.75 244.927 99.75Z" stroke="white"/>
</svg>
