<svg width="556" height="134" viewBox="0 0 556 134" fill="none" xmlns="http://www.w3.org/2000/svg">
<g clip-path="url(#clip0_6010_39)">
<path d="M171.797 19.9304H176.299V45.4901L194.178 19.9304H199.712V51.7176H195.21V25.4688L176.738 51.7046H171.784V19.9304H171.797Z" fill="black"/>
<path d="M209.193 44.541C209.58 45.8671 210.316 46.8552 211.373 47.4922C212.444 48.1292 213.837 48.4413 215.579 48.4413C217.204 48.4413 218.507 48.1422 219.5 47.5572C220.493 46.9722 220.984 46.2051 220.984 45.2691C220.984 44.45 220.622 43.7479 219.9 43.1629C219.178 42.5779 217.952 42.2789 216.211 42.2789H212.289V38.5606H216.03C217.591 38.5606 218.713 38.2746 219.384 37.7025C220.055 37.1305 220.403 36.4285 220.403 35.6094C220.403 34.5823 219.952 33.7633 219.036 33.1522C218.12 32.5412 216.869 32.2422 215.269 32.2422C213.67 32.2422 212.47 32.5282 211.464 33.1002C210.458 33.6723 209.8 34.5823 209.503 35.8304H205.272C205.659 33.5553 206.794 31.7871 208.652 30.5001C210.509 29.213 212.715 28.5759 215.269 28.5759C218.094 28.5759 220.377 29.187 222.119 30.4091C223.86 31.6311 224.737 33.2432 224.737 35.2454C224.737 36.2464 224.467 37.1695 223.925 38.0406C223.383 38.8986 222.57 39.5877 221.487 40.1077C223.976 41.1088 225.228 42.8119 225.228 45.243C225.228 47.3362 224.338 49.0133 222.545 50.2874C220.751 51.5615 218.326 52.1985 215.269 52.1985C212.509 52.1985 210.161 51.5225 208.239 50.1574C206.317 48.7923 205.207 46.9332 204.911 44.567H209.193V44.541Z" fill="black"/>
<path d="M253.104 47.6353V56.7099H248.963V51.7176H231.755V56.7099H227.614V47.6353H230.504C231.136 45.8152 231.445 42.344 231.445 37.1956V29.0181H249.956V47.6353H253.104ZM245.674 47.7263V33.0093H235.715V37.0526C235.715 41.5899 235.367 45.1521 234.683 47.7263H245.674Z" fill="black"/>
<path d="M277.665 29.018V51.7175H273.382V48.3113C272.453 49.5204 271.331 50.4695 270.002 51.1455C268.674 51.8216 267.268 52.1726 265.771 52.1726C263.785 52.1726 261.992 51.6655 260.366 50.6515C258.741 49.6374 257.464 48.2333 256.535 46.4522C255.606 44.6711 255.142 42.6429 255.142 40.3678C255.142 38.0926 255.606 36.0645 256.535 34.2834C257.464 32.5023 258.741 31.0982 260.366 30.0841C261.992 29.07 263.785 28.563 265.771 28.563C267.332 28.563 268.79 28.927 270.144 29.6551C271.499 30.3831 272.647 31.3972 273.614 32.6973V29.018H277.665ZM270.093 47.1802C271.176 46.5172 272.015 45.5811 272.621 44.3851C273.227 43.189 273.524 41.8499 273.524 40.3678C273.524 38.8857 273.227 37.5466 272.621 36.3505C272.015 35.1544 271.176 34.2184 270.093 33.5553C269.009 32.8923 267.809 32.5543 266.494 32.5543C265.178 32.5543 263.991 32.8923 262.933 33.5553C261.875 34.2184 261.05 35.1544 260.457 36.3505C259.85 37.5466 259.554 38.8857 259.554 40.3678C259.554 41.8499 259.85 43.189 260.457 44.3851C261.063 45.5811 261.888 46.5172 262.933 47.1802C263.978 47.8433 265.165 48.1813 266.494 48.1813C267.822 48.1813 269.009 47.8433 270.093 47.1802Z" fill="black"/>
<path d="M301.98 33.1003H294.099V51.7176H289.816V33.1003H281.934V29.0181H301.98V33.1003Z" fill="black"/>
<path d="M320.93 30.0582C322.659 31.0592 323.987 32.4763 324.916 34.3094C325.845 36.1426 326.309 38.2877 326.309 40.7319C326.309 41.3689 326.309 41.8369 326.258 42.136H307.785C308.082 43.8911 308.908 45.3342 310.236 46.4653C311.578 47.5963 313.126 48.1684 314.893 48.1684C317.808 48.1684 319.872 47.0893 321.111 44.9442H325.522C324.8 47.0633 323.471 48.7924 321.51 50.1445C319.563 51.4966 317.344 52.1596 314.893 52.1596C312.7 52.1596 310.713 51.6526 308.946 50.6385C307.179 49.6245 305.786 48.2204 304.805 46.4133C303.812 44.6191 303.322 42.591 303.322 40.3548C303.322 38.1187 303.812 36.0906 304.805 34.2964C305.799 32.4893 307.166 31.0852 308.933 30.0712C310.688 29.0571 312.661 28.55 314.854 28.55C317.176 28.55 319.201 29.0571 320.93 30.0582ZM310.21 34.0494C308.933 35.1675 308.146 36.6106 307.85 38.3657H321.678C321.498 36.5456 320.762 35.1025 319.498 34.0104C318.234 32.9183 316.647 32.3723 314.79 32.3723C312.932 32.3723 311.487 32.9313 310.21 34.0494Z" fill="black"/>
<path d="M351.128 51.7567H346.845V33.1004H337.209V37.2347C337.209 40.4719 337.042 43.1241 336.693 45.1782C336.345 47.2324 335.636 48.8835 334.552 50.1055C333.468 51.3276 331.869 51.9387 329.728 51.9387C329.16 51.9387 328.541 51.8607 327.883 51.7177V47.7264C328.425 47.8174 328.902 47.8564 329.328 47.8564C330.295 47.8564 331.017 47.5574 331.508 46.9463C331.998 46.3353 332.359 45.2562 332.565 43.6961C332.772 42.136 332.875 39.8479 332.875 36.8187V29.0051H351.115V51.7567H351.128Z" fill="black"/>
<path d="M375.031 39.9388C376.373 41.2259 377.03 42.864 377.03 44.8661C377.03 46.8683 376.36 48.5064 375.031 49.7935C373.689 51.0805 371.845 51.7176 369.471 51.7176H358.339V29.0181H362.622V38.0017H369.471C371.832 38.0017 373.689 38.6517 375.031 39.9388ZM371.677 47.1803C372.309 46.6603 372.619 45.8932 372.619 44.8661C372.619 43.8391 372.296 43.072 371.677 42.552C371.045 42.0319 370.116 41.7849 368.878 41.7849H362.622V47.9603H368.878C370.116 47.9473 371.045 47.6873 371.677 47.1803Z" fill="black"/>
<path d="M381.532 34.4003C382.577 32.5932 384.022 31.1761 385.854 30.136C387.686 29.096 389.711 28.5759 391.93 28.5759C394.419 28.5759 396.664 29.304 398.663 30.7731C400.663 32.2422 401.978 34.1533 402.61 36.5195H397.928C397.412 35.3104 396.599 34.3483 395.477 33.6333C394.355 32.9182 393.091 32.5672 391.71 32.5672C390.33 32.5672 389.04 32.9052 387.931 33.5943C386.821 34.2833 385.944 35.2194 385.312 36.4155C384.68 37.6115 384.37 38.9376 384.37 40.3937C384.37 41.8498 384.68 43.1759 385.312 44.372C385.944 45.5681 386.808 46.5041 387.931 47.1932C389.04 47.8692 390.304 48.2202 391.71 48.2202C393.116 48.2202 394.342 47.8692 395.477 47.1542C396.599 46.4391 397.425 45.4771 397.928 44.268H402.61C401.978 46.6341 400.663 48.5453 398.663 50.0144C396.664 51.4835 394.419 52.2115 391.93 52.2115C389.711 52.2115 387.686 51.6915 385.854 50.6514C384.022 49.6113 382.577 48.1812 381.532 46.3871C380.475 44.593 379.959 42.5909 379.959 40.4197C379.959 38.2486 380.488 36.1944 381.532 34.4003Z" fill="black"/>
<path d="M423.572 33.1003H415.691V51.7176H411.408V33.1003H403.526V29.0181H423.572V33.1003Z" fill="black"/>
<path d="M446.766 45.3212C446.766 47.1933 446.095 48.7404 444.741 49.9235C443.386 51.1196 441.529 51.7176 439.155 51.7176H427.855V29.0181H439.155C441.413 29.0181 443.193 29.6031 444.496 30.7602C445.798 31.9303 446.456 33.3994 446.456 35.1805C446.456 36.2466 446.211 37.1956 445.708 38.0667C445.218 38.9247 444.457 39.6138 443.438 40.1338C445.657 41.2649 446.766 42.981 446.766 45.3212ZM438.652 38.4567C439.761 38.4567 440.6 38.1967 441.18 37.6896C441.748 37.1696 442.032 36.4156 442.032 35.4145C442.032 33.5684 440.909 32.6453 438.652 32.6453H432.035V38.4567H438.652ZM441.425 47.2843C442.045 46.7513 442.354 45.9842 442.354 44.9961C442.354 44.0601 442.045 43.345 441.425 42.838C440.806 42.344 439.903 42.0839 438.704 42.0839H432.035V48.0773H438.704C439.903 48.0903 440.806 47.8173 441.425 47.2843Z" fill="black"/>
<path d="M456.041 50.5994C454.209 49.5593 452.764 48.1292 451.719 46.3351C450.662 44.541 450.146 42.5389 450.146 40.3677C450.146 38.1966 450.674 36.1944 451.719 34.4003C452.764 32.5932 454.209 31.1761 456.041 30.136C457.872 29.096 459.898 28.5759 462.116 28.5759C464.335 28.5759 466.309 29.096 468.128 30.136C469.947 31.1761 471.378 32.6062 472.423 34.4003C473.468 36.2074 473.997 38.1966 473.997 40.3677C473.997 42.5389 473.468 44.541 472.423 46.3351C471.365 48.1422 469.934 49.5593 468.128 50.5994C466.309 51.6395 464.309 52.1595 462.116 52.1595C459.911 52.1725 457.872 51.6525 456.041 50.5994ZM465.909 47.1542C467.044 46.4781 467.947 45.5291 468.618 44.333C469.276 43.1369 469.611 41.8108 469.611 40.3547C469.611 38.8986 469.276 37.5725 468.618 36.3765C467.96 35.1804 467.057 34.2443 465.909 33.5553C464.761 32.8662 463.51 32.5282 462.129 32.5282C460.749 32.5282 459.433 32.8662 458.272 33.5553C457.111 34.2443 456.208 35.1804 455.551 36.3765C454.893 37.5725 454.557 38.8986 454.557 40.3547C454.557 41.8108 454.893 43.1369 455.551 44.333C456.208 45.5291 457.124 46.4651 458.272 47.1542C459.433 47.8302 460.71 48.1812 462.129 48.1812C463.51 48.1812 464.774 47.8302 465.909 47.1542Z" fill="black"/>
<path d="M182.788 105.866H177.434L170.611 98.1176V94.3603L177.434 86.6118H182.685L174.429 96.1935L182.788 105.866ZM192.334 105.866H186.98L180.156 98.1176V94.3603L186.98 86.6118H192.23L183.975 96.1935L192.334 105.866Z" fill="black"/>
<path d="M238.179 110.689H233.406V83.0106L218.313 110.676L203.324 83.2056V110.689H198.551V76.9912H205.285L218.468 101.108L231.652 76.9912H238.192V110.689H238.179Z" fill="black"/>
<path d="M262.791 87.73C264.623 88.7831 266.029 90.2912 267.022 92.2283C268.003 94.1654 268.506 96.4406 268.506 99.0407C268.506 99.7168 268.506 100.211 268.454 100.536H248.873C249.195 102.395 250.059 103.929 251.478 105.138C252.897 106.347 254.548 106.945 256.419 106.945C259.502 106.945 261.708 105.801 263.011 103.526H267.693C266.932 105.775 265.513 107.608 263.449 109.038C261.385 110.469 259.038 111.184 256.432 111.184C254.11 111.184 252.007 110.651 250.124 109.571C248.241 108.492 246.783 107.01 245.725 105.099C244.68 103.188 244.151 101.043 244.151 98.6767C244.151 96.3106 244.68 94.1654 245.725 92.2543C246.77 90.3432 248.228 88.8481 250.098 87.782C251.956 86.7029 254.058 86.1699 256.38 86.1699C258.818 86.1439 260.96 86.6639 262.791 87.73ZM251.427 91.9683C250.072 93.1513 249.234 94.6855 248.924 96.5446H263.578C263.385 94.6204 262.611 93.0733 261.269 91.9293C259.915 90.7722 258.251 90.2001 256.277 90.2001C254.394 90.2001 252.781 90.7722 251.427 91.9683Z" fill="black"/>
<path d="M297.44 106.347V115.968H293.041V110.677H274.801V115.968H270.402V106.347H273.459C274.13 104.423 274.465 100.731 274.465 95.2836V86.625H294.086V106.347H297.44ZM289.558 106.451V90.8633H279.006V95.1406C279.006 99.9509 278.645 103.721 277.91 106.451H289.558Z" fill="black"/>
<path d="M302.213 86.625H306.753V104.527L319.176 86.625H324.194V110.69H319.653V92.7874L307.231 110.69H302.213V86.625Z" fill="black"/>
<path d="M353.54 86.6248V110.689H349V107.075C348.019 108.362 346.82 109.363 345.413 110.078C344.007 110.806 342.511 111.157 340.924 111.157C338.822 111.157 336.913 110.624 335.197 109.545C333.481 108.466 332.127 106.984 331.134 105.099C330.14 103.201 329.65 101.056 329.65 98.6506C329.65 96.2455 330.14 94.1003 331.134 92.2022C332.114 90.3041 333.468 88.822 335.197 87.7559C336.913 86.6768 338.822 86.1438 340.924 86.1438C342.576 86.1438 344.124 86.5338 345.555 87.3009C346.987 88.0679 348.213 89.147 349.232 90.5251V86.6248H353.54ZM345.517 105.866C346.665 105.164 347.555 104.176 348.187 102.902C348.819 101.641 349.141 100.211 349.141 98.6376C349.141 97.0645 348.819 95.6474 348.187 94.3733C347.555 93.1123 346.665 92.1242 345.517 91.4091C344.369 90.7071 343.092 90.3561 341.698 90.3561C340.305 90.3561 339.041 90.7071 337.932 91.4091C336.822 92.1112 335.945 93.0993 335.3 94.3733C334.668 95.6474 334.346 97.0645 334.346 98.6376C334.346 100.211 334.668 101.628 335.3 102.902C335.932 104.176 336.809 105.151 337.932 105.866C339.041 106.568 340.305 106.919 341.698 106.919C343.092 106.932 344.369 106.581 345.517 105.866Z" fill="black"/>
<path d="M375.147 85.0518C376.656 82.3996 378.72 80.3195 381.326 78.7984C383.932 77.2773 386.834 76.5103 390.02 76.5103C392.471 76.5103 394.767 76.9783 396.896 77.9273C399.024 78.8764 400.869 80.2155 402.417 81.9706C403.965 83.7257 405.1 85.7539 405.835 88.055H400.534C399.54 85.9099 398.147 84.2198 396.354 82.9717C394.561 81.7366 392.446 81.1126 390.033 81.1126C387.776 81.1126 385.725 81.6716 383.867 82.8027C382.023 83.9208 380.565 85.4549 379.494 87.392C378.424 89.3291 377.895 91.4743 377.895 93.8144C377.895 96.1546 378.424 98.2997 379.494 100.237C380.565 102.174 382.023 103.708 383.867 104.839C385.712 105.957 387.763 106.529 390.033 106.529C392.458 106.529 394.561 105.918 396.354 104.67C398.147 103.435 399.54 101.745 400.534 99.5868H405.835C405.1 101.901 403.965 103.929 402.417 105.671C400.869 107.426 399.037 108.765 396.896 109.714C394.767 110.664 392.471 111.132 390.02 111.132C386.834 111.132 383.945 110.365 381.326 108.843C378.72 107.322 376.656 105.229 375.147 102.59C373.638 99.9378 372.877 97.0126 372.877 93.8014C372.877 90.5902 373.638 87.704 375.147 85.0518Z" fill="black"/>
<path d="M437.633 88.2111C439.542 89.2642 441.051 90.7203 442.148 92.5664C443.244 94.4125 443.799 96.4406 443.799 98.6508C443.799 100.861 443.244 102.889 442.148 104.735C441.051 106.581 439.542 108.037 437.633 109.09C435.724 110.144 433.621 110.677 431.325 110.677H428.745V118.854H424.204V110.677H421.728C419.406 110.677 417.29 110.144 415.381 109.09C413.472 108.037 411.963 106.581 410.84 104.735C409.731 102.889 409.176 100.861 409.176 98.6508C409.176 96.4406 409.731 94.4125 410.84 92.5664C411.95 90.7203 413.472 89.2642 415.381 88.2111C417.29 87.158 419.406 86.625 421.728 86.625H424.204V76.7573H428.745V86.625H431.325C433.621 86.625 435.711 87.145 437.633 88.2111ZM424.204 106.451V90.8633H421.87C420.373 90.8633 419.019 91.2143 417.793 91.9033C416.568 92.5924 415.6 93.5285 414.904 94.7245C414.207 95.9076 413.859 97.2207 413.859 98.6768C413.859 100.133 414.207 101.433 414.904 102.629C415.6 103.812 416.568 104.761 417.793 105.45C419.019 106.139 420.373 106.49 421.87 106.49H424.204V106.451ZM435.195 105.411C436.407 104.722 437.362 103.786 438.059 102.59C438.755 101.407 439.104 100.081 439.104 98.6378C439.104 97.1947 438.755 95.8816 438.059 94.6855C437.362 93.5025 436.407 92.5664 435.195 91.8643C433.982 91.1753 432.654 90.8243 431.183 90.8243H428.745V106.412H431.183C432.641 106.451 433.982 106.1 435.195 105.411Z" fill="black"/>
<path d="M466.012 87.73C467.844 88.7831 469.25 90.2912 470.243 92.2283C471.224 94.1654 471.727 96.4406 471.727 99.0407C471.727 99.7168 471.714 100.211 471.675 100.536H452.093C452.416 102.395 453.28 103.929 454.699 105.138C456.118 106.347 457.769 106.945 459.64 106.945C462.723 106.945 464.929 105.801 466.231 103.526H470.914C470.153 105.775 468.734 107.608 466.67 109.038C464.606 110.469 462.258 111.184 459.653 111.184C457.331 111.184 455.228 110.651 453.345 109.571C451.461 108.492 450.004 107.01 448.946 105.099C447.901 103.188 447.372 101.043 447.372 98.6767C447.372 96.3106 447.901 94.1654 448.946 92.2543C449.991 90.3432 451.448 88.8481 453.319 87.782C455.176 86.7029 457.279 86.1699 459.601 86.1699C462.039 86.1439 464.18 86.6639 466.012 87.73ZM454.648 91.9683C453.293 93.1513 452.455 94.6855 452.145 96.5446H466.799C466.606 94.6204 465.832 93.0733 464.49 91.9293C463.136 90.7722 461.471 90.2001 459.498 90.2001C457.614 90.2001 456.002 90.7722 454.648 91.9683Z" fill="black"/>
<path d="M495.552 87.7559C497.268 88.835 498.622 90.3171 499.616 92.2022C500.596 94.1003 501.099 96.2455 501.099 98.6506C501.099 101.056 500.609 103.201 499.616 105.099C498.622 106.997 497.281 108.479 495.552 109.545C493.837 110.624 491.928 111.157 489.825 111.157C488.238 111.157 486.742 110.793 485.336 110.078C483.93 109.35 482.743 108.349 481.75 107.075V118.867H477.209V86.6248H481.505V90.5251C482.524 89.147 483.749 88.0679 485.181 87.3009C486.613 86.5338 488.161 86.1438 489.812 86.1438C491.915 86.1438 493.824 86.6768 495.552 87.7559ZM492.831 105.866C493.94 105.164 494.817 104.176 495.462 102.902C496.094 101.641 496.417 100.211 496.417 98.6376C496.417 97.0645 496.094 95.6474 495.462 94.3733C494.83 93.1123 493.953 92.1242 492.831 91.4091C491.721 90.7071 490.457 90.3561 489.064 90.3561C487.671 90.3561 486.394 90.7071 485.246 91.4091C484.097 92.1112 483.207 93.0993 482.575 94.3733C481.943 95.6474 481.621 97.0645 481.621 98.6376C481.621 100.211 481.943 101.628 482.575 102.902C483.207 104.176 484.097 105.151 485.246 105.866C486.394 106.568 487.671 106.919 489.064 106.919C490.457 106.919 491.708 106.581 492.831 105.866Z" fill="black"/>
<path d="M528.537 86.6248V110.689H523.996V107.075C523.016 108.362 521.816 109.363 520.41 110.078C519.004 110.806 517.508 111.157 515.921 111.157C513.818 111.157 511.909 110.624 510.193 109.545C508.478 108.466 507.123 106.984 506.13 105.099C505.137 103.201 504.647 101.056 504.647 98.6506C504.647 96.2455 505.137 94.1003 506.13 92.2022C507.11 90.3041 508.465 88.822 510.193 87.7559C511.909 86.6768 513.818 86.1438 515.921 86.1438C517.572 86.1438 519.12 86.5338 520.552 87.3009C521.984 88.0679 523.209 89.147 524.228 90.5251V86.6248H528.537ZM520.513 105.866C521.661 105.164 522.551 104.176 523.183 102.902C523.815 101.641 524.138 100.211 524.138 98.6376C524.138 97.0645 523.815 95.6474 523.183 94.3733C522.551 93.1123 521.661 92.1242 520.513 91.4091C519.365 90.7071 518.088 90.3561 516.695 90.3561C515.302 90.3561 514.038 90.7071 512.928 91.4091C511.819 92.1112 510.942 93.0993 510.297 94.3733C509.665 95.6474 509.342 97.0645 509.342 98.6376C509.342 100.211 509.665 101.628 510.297 102.902C510.929 104.176 511.806 105.151 512.928 105.866C514.038 106.568 515.302 106.919 516.695 106.919C518.101 106.932 519.378 106.581 520.513 105.866Z" fill="black"/>
<path d="M546.441 98.1176L539.618 105.866H534.367L542.623 96.2845L534.264 86.6118H539.618L546.441 94.3603V98.1176ZM556 94.3733V98.1306L549.176 105.879H543.926L552.182 96.2975L543.823 86.6248H549.176L556 94.3733Z" fill="black"/>
<path d="M75.9401 133.103C88.3367 133.103 99.9077 129.658 109.827 123.677L151.88 133.103V0L109.827 9.42563C99.9077 3.44523 88.3367 0 75.9401 0C63.5436 0 51.9597 3.44523 42.0657 9.42563L0 0V133.103L42.0657 123.677C51.9597 129.658 63.5565 133.103 75.9401 133.103ZM149.674 2.76919V130.347L112.459 122C130.248 110.078 141.973 89.693 141.973 66.5515C141.973 43.4099 130.248 23.0375 112.459 11.1027L149.674 2.76919ZM115.568 65.4464V49.1303C123.501 47.3752 130.39 45.204 135.291 42.8899C138.052 49.8974 139.626 57.4899 139.755 65.4464H115.568ZM139.755 67.6565C139.613 75.6131 138.039 83.2056 135.291 90.2131C130.39 87.8989 123.514 85.7408 115.568 83.9726V67.6565H139.755ZM95.754 50.1574V27.6529C103.945 25.7807 111.762 22.7645 118.638 18.7993C125.346 24.8837 130.751 32.3852 134.427 40.8227C126.623 44.398 112.42 48.2852 95.754 50.1574ZM134.427 92.2932C130.764 100.731 125.346 108.232 118.638 114.317C111.762 110.338 103.945 107.335 95.754 105.463V82.9456C112.42 84.8177 126.623 88.705 134.427 92.2932ZM77.0495 2.24915C83.7444 2.36616 90.1942 3.53624 96.2442 5.59038L99.4691 6.78646C99.5981 6.83846 99.7142 6.90346 99.8432 6.95547C92.7742 9.84166 85.0989 11.4928 77.0495 11.6358V2.24915ZM77.0495 13.8329C86.1438 13.6899 94.7865 11.6618 102.642 8.16455C103.971 8.78859 105.3 9.45163 106.577 10.1537L109.376 11.8048C111.995 13.4299 114.497 15.224 116.845 17.2132C105.687 23.5186 91.6906 27.5098 77.0495 27.7049V13.8329ZM77.0495 105.424C91.6906 105.619 105.687 109.597 116.845 115.916C114.497 117.892 111.995 119.699 109.376 121.311L106.577 122.962C105.287 123.664 103.971 124.327 102.642 124.951C94.7865 121.454 86.1438 119.439 77.0495 119.283V105.424ZM77.0495 121.48C85.0989 121.623 92.7871 123.274 99.8432 126.16C99.7142 126.212 99.5981 126.277 99.4691 126.316L96.2442 127.513C90.1942 129.567 83.7444 130.737 77.0495 130.854V121.48ZM74.8437 130.867C68.1488 130.75 61.699 129.58 55.649 127.526L52.4112 126.329C52.2822 126.277 52.1661 126.225 52.0371 126.173C59.1061 123.287 66.7814 121.636 74.8308 121.493V130.867H74.8437ZM74.8437 119.27C65.7365 119.426 57.0938 121.441 49.2508 124.938C47.9092 124.314 46.5935 123.664 45.3164 122.949L42.5301 121.298C39.9115 119.673 37.4089 117.879 35.0612 115.903C46.2065 109.597 60.2155 105.606 74.8566 105.411V119.27H74.8437ZM36.3125 49.1303V65.4464H12.1386C12.2805 57.4899 13.8413 49.8974 16.6018 42.8899C21.5037 45.204 28.3792 47.3622 36.3125 49.1303ZM17.4532 40.8227C21.1296 32.3852 26.5345 24.8837 33.2424 18.7993C40.1179 22.7775 47.9221 25.7807 56.1263 27.6529V50.1574C39.4729 48.2852 25.2704 44.398 17.4532 40.8227ZM36.3125 67.6565V83.9726C28.3792 85.7278 21.4908 87.8989 16.6018 90.2131C13.8413 83.2056 12.2676 75.6131 12.1386 67.6565H36.3125ZM56.1263 82.9456V105.45C47.9221 107.335 40.1179 110.325 33.2424 114.304C26.5474 108.219 21.1296 100.718 17.4532 92.2802C25.2704 88.705 39.4729 84.8177 56.1263 82.9456ZM52.4112 6.77346L55.649 5.57737C61.699 3.52324 68.1488 2.35316 74.8437 2.23615V11.6098C66.7943 11.4668 59.1061 9.81566 52.05 6.92947C52.1661 6.89046 52.2951 6.82546 52.4112 6.77346ZM42.5172 11.8048L45.3035 10.1537C46.5935 9.43863 47.8963 8.78859 49.2379 8.16455C57.0809 11.6748 65.7365 13.6899 74.8308 13.8329V27.6919C60.1897 27.4968 46.1936 23.5056 35.0354 17.2002C37.396 15.224 39.8986 13.4299 42.5172 11.8048ZM2.20584 130.347V2.76919L39.4213 11.1157C21.6327 23.0375 9.90692 43.4099 9.90692 66.5515C9.90692 89.693 21.6327 110.078 39.4213 122L2.20584 130.347Z" fill="black"/>
<path d="M122.946 20.5153C148.849 46.621 149.055 88.8869 123.398 114.746C97.7406 140.604 55.8038 140.396 29.9014 114.291C3.99891 88.1718 3.79251 45.906 29.4499 20.0603C55.0944 -5.79848 97.044 -5.59047 122.946 20.5153ZM31.3332 112.847C56.4359 138.147 97.0956 138.355 121.953 113.29C146.811 88.2368 146.617 47.2581 121.515 21.9584C96.4119 -3.35432 55.7522 -3.54933 30.8946 21.5033C6.02415 46.569 6.23055 87.5348 31.3332 112.847Z" fill="black"/>
</g>
<defs>
<clipPath id="clip0_6010_39">
<rect width="556" height="134" fill="white"/>
</clipPath>
</defs>
</svg>
