<svg width="178" height="80" viewBox="0 0 178 80" fill="none" xmlns="http://www.w3.org/2000/svg">
<g clip-path="url(#clip0_2_286)">
<mask id="mask0_2_286" style="mask-type:luminance" maskUnits="userSpaceOnUse" x="0" y="0" width="172" height="57">
<path d="M171.824 0H0V56.3288H171.824V0Z" fill="white"/>
</mask>
<g mask="url(#mask0_2_286)">
<path d="M35.4037 0.00158116L25.9979 56.3289H6.11259L12.0382 24.4755H0L35.4037 0V0.00158116ZM35.5685 56.3289V26.8512H44.5013L49.8571 46.9605L55.1527 26.8505H64.1014V56.3289H58.5624V33.1261L52.6987 56.3289H46.9538L41.1075 33.1261V56.3289H35.5685ZM68.7962 56.3289V26.8512H90.6991V31.8422H74.7552V38.3748H89.5897V43.3364H74.7552V51.3609H91.2569V56.3289H68.7962ZM95.0628 26.8512H105.967C108.424 26.8512 110.291 27.0354 111.591 27.415C113.292 27.905 114.829 28.844 116.039 30.133C117.275 31.4303 118.217 33.0202 118.863 34.9049C119.504 36.7896 119.826 39.11 119.826 41.8771C119.826 44.2962 119.524 46.392 118.922 48.1487C118.183 50.2888 117.131 52.0272 115.755 53.3507C114.722 54.3579 113.327 55.1422 111.567 55.7034C110.253 56.1249 108.491 56.3289 106.281 56.3289H95.0621L95.0628 26.8512ZM101.027 31.8422V51.3616H105.478C107.143 51.3616 108.346 51.2723 109.094 51.0802C110.052 50.8383 110.86 50.4327 111.497 49.8571C112.136 49.28 112.651 48.3273 113.06 47.0087C113.459 45.6924 113.663 43.8874 113.663 41.6074C113.663 39.3321 113.459 37.5857 113.06 36.3635C112.651 35.1445 112.089 34.1902 111.368 33.5095C110.638 32.8241 109.715 32.3631 108.601 32.1229C107.771 31.9291 106.139 31.8422 103.704 31.8422H101.027ZM130.111 56.3289V30.3306H120.379V26.8512H143.792V30.3306H134.019V56.3289H130.11H130.111ZM156.244 56.3289L144.797 26.8512H149.032L156.709 48.2649C157.288 49.8524 157.806 51.4616 158.261 53.0891C158.727 51.4603 159.258 49.851 159.853 48.2649L167.835 26.8512H171.824L160.253 56.3289H156.244Z" fill="black"/>
</g>
<path d="M7.61748 73.3333H8.75343V64H1.4032V73.3333H2.53914V65.0667H7.61748V73.3333ZM15.86 71.84C15.4724 72.2 14.7908 72.4667 14.0157 72.4667C12.8397 72.4667 12.0111 71.8 11.9176 70.6667H16.5415C16.5816 70.48 16.6083 70.24 16.6083 69.9467C16.6083 68.2933 15.3655 67.2 13.8153 67.2C11.8374 67.2 10.7148 68.5867 10.7148 70.3333C10.7148 72.2267 11.9844 73.4667 13.9355 73.4667C14.7374 73.4667 15.606 73.2133 16.1941 72.68L15.86 71.84ZM13.7618 68.2C14.8042 68.2 15.4457 68.8133 15.4991 69.8H11.8507C11.971 68.88 12.6659 68.2 13.7618 68.2ZM18.0588 76H19.1279V73.0533C19.5556 73.3333 20.1837 73.4667 20.8252 73.4667C22.7095 73.4667 23.9524 72.0667 23.9524 70.24C23.9524 68.4667 22.8832 67.2 21.1726 67.2C20.3441 67.2 19.5422 67.56 19.1279 68.04V67.3333H18.0588V76ZM20.8653 68.2C22.1081 68.2 22.8164 69.0667 22.8164 70.28C22.8164 71.5467 22.0146 72.4667 20.7316 72.4667C20.157 72.4667 19.6625 72.36 19.1279 72V69.0267C19.5021 68.56 20.157 68.2 20.8653 68.2ZM25.4848 73.3333C26.0327 73.3333 26.9414 73.3867 27.6898 73.3867C29.5608 73.3867 30.4562 72.7733 30.4562 71.64C30.4562 70.8933 30.0152 70.4 29.053 70.2267V70.2C29.7746 70.0933 30.2557 69.5333 30.2557 68.8267C30.2557 67.7467 29.347 67.28 27.6631 67.28C26.7944 67.28 26.0059 67.3333 25.4848 67.3333V73.3333ZM27.8368 70.64C28.799 70.64 29.3202 70.9333 29.3202 71.56C29.3202 72.1867 28.7723 72.52 27.7834 72.52C27.3023 72.52 26.8746 72.4933 26.5539 72.48V70.64H27.8368ZM27.7433 68.1467C28.5184 68.1467 29.1198 68.3867 29.1198 69.04C29.1198 69.6267 28.6119 69.9733 27.9036 69.9733H26.5539V68.1867C26.8212 68.1733 27.2622 68.1467 27.7433 68.1467ZM32.0884 73.3333H34.0262C35.9105 73.3333 36.5253 72.2533 36.5253 71.2C36.5253 70.1333 35.9907 69.1333 34.1465 69.1333H33.1575V67.3333H32.0884V73.3333ZM37.6746 73.3333H38.7437V67.3333H37.6746V73.3333ZM33.946 70.1333C34.975 70.1333 35.3893 70.52 35.3893 71.24C35.3893 71.9467 35.0018 72.3333 33.9326 72.3333H33.1575V70.1333H33.946ZM41.7319 73.3333L45.2066 68.8667V73.3333H46.2757V67.3333H45.2066L41.7319 71.8V67.3333H40.6628V73.3333H41.7319ZM41.5181 64.2667C41.5181 65.32 42.2264 66.1333 43.5494 66.1333C44.7522 66.1333 45.5273 65.32 45.5273 64.2667H44.525C44.4715 64.9867 44.1374 65.32 43.5494 65.32C42.9079 65.32 42.5738 64.9867 42.5204 64.2667H41.5181ZM51.221 73.3333H52.2901V68.96L54.4551 71.7467H54.4952L56.5799 68.96V73.3333H57.6491V67.3333H56.7002L54.5085 70.3067L52.1965 67.3333H51.221V73.3333ZM64.3308 71.84C63.9433 72.2 63.2617 72.4667 62.4866 72.4667C61.3105 72.4667 60.482 71.8 60.3884 70.6667H65.0124C65.0525 70.48 65.0792 70.24 65.0792 69.9467C65.0792 68.2933 63.8363 67.2 62.2861 67.2C60.3082 67.2 59.1857 68.5867 59.1857 70.3333C59.1857 72.2267 60.4552 73.4667 62.4064 73.4667C63.2082 73.4667 64.0769 73.2133 64.6649 72.68L64.3308 71.84ZM62.2327 68.2C63.2751 68.2 63.9165 68.8133 63.97 69.8H60.3216C60.4419 68.88 61.1368 68.2 62.2327 68.2ZM65.4661 74.8H66.4684V73.3333H71.3329V74.8H72.3352V72.3333H71.3329V67.3333H67.2301L67.1366 68.92C67.0297 70.56 66.6154 71.8267 66.2145 72.3333H65.4661V74.8ZM68.1656 69.3333L68.2325 68.3333H70.2638V72.3333H67.3504C67.6311 71.96 68.032 70.8667 68.1656 69.3333ZM74.5679 73.3333L78.0425 68.8667V73.3333H79.1116V67.3333H78.0425L74.5679 71.8V67.3333H73.4987V73.3333H74.5679ZM81.0552 73.3333H86.4008V74.8H87.4031V72.3333H86.4008V67.3333H85.3317V72.3333H82.1243V67.3333H81.0552V73.3333ZM89.6285 73.3333L93.1031 68.8667V73.3333H94.1723V67.3333H93.1031L89.6285 71.8V67.3333H88.5594V73.3333H89.6285ZM100.526 73.3333H101.595V67.3333H100.526V69.8H97.1853V67.3333H96.1162V73.3333H97.1853V70.8H100.526V73.3333ZM108.152 71.6933C107.751 72.1467 107.15 72.4667 106.428 72.4667C105.239 72.4667 104.263 71.6533 104.263 70.3333C104.263 69.0667 105.239 68.2 106.322 68.2C106.95 68.2 107.538 68.36 108.045 68.8267L108.54 67.9867C107.979 67.4267 107.137 67.2 106.175 67.2C104.41 67.2 103.128 68.5867 103.128 70.3333C103.128 72.2267 104.437 73.4667 106.348 73.4667C107.27 73.4667 108.152 73.12 108.66 72.4667L108.152 71.6933ZM115.319 67.3333H113.916L111.377 70.2667L114.09 73.3333H115.573L112.687 70.2L115.319 67.3333ZM110.054 73.3333H111.123V67.3333H110.054V73.3333ZM117.779 73.3333L121.254 68.8667V73.3333H122.323V67.3333H121.254L117.779 71.8V67.3333H116.71V73.3333H117.779ZM125.336 73.3333L128.81 68.8667V73.3333H129.88V67.3333H128.81L125.336 71.8V67.3333H124.267V73.3333H125.336ZM125.122 64.2667C125.122 65.32 125.83 66.1333 127.153 66.1333C128.356 66.1333 129.131 65.32 129.131 64.2667H128.129C128.075 64.9867 127.741 65.32 127.153 65.32C126.512 65.32 126.178 64.9867 126.124 64.2667H125.122ZM140.09 67.3333H138.686L136.147 70.2667L138.86 73.3333H140.344L137.457 70.2L140.09 67.3333ZM134.824 73.3333H135.893V67.3333H134.824V73.3333ZM141.801 68.6C142.282 68.3467 142.723 68.16 143.458 68.16C144.648 68.16 144.821 68.9333 144.821 70.0533C144.421 69.76 143.792 69.6667 143.325 69.6667C142.028 69.6667 141.053 70.3467 141.053 71.5733C141.053 72.7333 141.801 73.4267 142.897 73.4267C143.886 73.4267 144.461 73.0133 144.821 72.56V73.3333H145.837V69.6533C145.837 68.0933 145.236 67.2 143.525 67.2C142.777 67.2 142.055 67.4133 141.521 67.7467L141.801 68.6ZM143.271 72.4667C142.576 72.4667 142.189 72.0933 142.189 71.52C142.189 70.8267 142.83 70.5333 143.472 70.5333C143.993 70.5333 144.447 70.6667 144.821 70.9333V71.6933C144.514 72.0533 144.06 72.4667 143.271 72.4667ZM152.038 73.3333H153.107V67.3333H152.038V69.8H148.697V67.3333H147.628V73.3333H148.697V70.8H152.038V73.3333ZM155.361 68.6C155.842 68.3467 156.283 68.16 157.018 68.16C158.207 68.16 158.381 68.9333 158.381 70.0533C157.98 69.76 157.352 69.6667 156.884 69.6667C155.588 69.6667 154.613 70.3467 154.613 71.5733C154.613 72.7333 155.361 73.4267 156.457 73.4267C157.446 73.4267 158.02 73.0133 158.381 72.56V73.3333H159.397V69.6533C159.397 68.0933 158.796 67.2 157.085 67.2C156.337 67.2 155.615 67.4133 155.08 67.7467L155.361 68.6ZM156.831 72.4667C156.136 72.4667 155.749 72.0933 155.749 71.52C155.749 70.8267 156.39 70.5333 157.031 70.5333C157.553 70.5333 158.007 70.6667 158.381 70.9333V71.6933C158.074 72.0533 157.619 72.4667 156.831 72.4667ZM165.304 73.3333H166.373V67.3333H162.19L162.083 69.2C161.936 71.9733 161.081 72.4133 160.626 72.3733L160.707 73.4133C161.949 73.4133 162.858 72.8267 163.125 69.4133L163.192 68.4H165.304V73.3333Z" fill="black"/>
<path d="M172.339 68.5714V66.8248H172.914L174.203 68.5714H175.199L173.736 66.6648C174.123 66.5314 174.638 66.1314 174.638 65.3314C174.638 64.5248 174.217 63.8914 172.94 63.8914C172.807 63.8914 171.778 63.9048 171.517 63.9048V68.5714H172.339ZM172.9 64.6581C173.568 64.6581 173.769 64.9714 173.769 65.3381C173.769 65.8181 173.348 66.0581 172.874 66.0581H172.339V64.6714C172.559 64.6648 172.747 64.6581 172.9 64.6581Z" fill="black"/>
<path d="M173.255 70C175.364 70 177.074 68.2944 177.074 66.1905C177.074 64.0865 175.364 62.381 173.255 62.381C171.147 62.381 169.437 64.0865 169.437 66.1905C169.437 68.2944 171.147 70 173.255 70Z" stroke="black"/>
</g>
<defs>
<clipPath id="clip0_2_286">
<rect width="177.551" height="80" fill="white"/>
</clipPath>
</defs>
</svg>
