<svg width="280" height="67" viewBox="0 0 280 67" fill="none" xmlns="http://www.w3.org/2000/svg">
<g clip-path="url(#clip0_1_6)">
<path d="M86.5166 9.96521H88.7838V22.7451L97.7876 9.96521H100.574V25.8588H98.3073V12.7344L89.0047 25.8523H86.5101V9.96521H86.5166Z" fill="white"/>
<path d="M105.349 22.2705C105.544 22.9335 105.914 23.4276 106.447 23.7461C106.986 24.0646 107.688 24.2206 108.565 24.2206C109.383 24.2206 110.039 24.0711 110.54 23.7786C111.04 23.4861 111.287 23.1026 111.287 22.6345C111.287 22.225 111.105 21.874 110.741 21.5815C110.377 21.2889 109.76 21.1394 108.883 21.1394H106.908V19.2803H108.792C109.578 19.2803 110.143 19.1373 110.481 18.8513C110.819 18.5653 110.994 18.2142 110.994 17.8047C110.994 17.2912 110.767 16.8816 110.306 16.5761C109.845 16.2706 109.214 16.1211 108.409 16.1211C107.603 16.1211 106.999 16.2641 106.492 16.5501C105.986 16.8361 105.654 17.2912 105.505 17.9152H103.374C103.569 16.7776 104.141 15.8936 105.076 15.25C106.012 14.6065 107.123 14.288 108.409 14.288C109.832 14.288 110.981 14.5935 111.858 15.2045C112.735 15.8156 113.177 16.6216 113.177 17.6227C113.177 18.1232 113.041 18.5848 112.768 19.0203C112.495 19.4493 112.086 19.7938 111.54 20.0539C112.794 20.5544 113.424 21.4059 113.424 22.6215C113.424 23.6681 112.976 24.5067 112.073 25.1437C111.17 25.7807 109.948 26.0993 108.409 26.0993C107.019 26.0993 105.836 25.7612 104.868 25.0787C103.9 24.3961 103.342 23.4666 103.192 22.2835H105.349V22.2705Z" fill="white"/>
<path d="M127.462 23.8177V28.355H125.377V25.8588H116.711V28.355H114.626V23.8177H116.081C116.399 22.9076 116.555 21.172 116.555 18.5978V14.509H125.877V23.8177H127.462ZM123.72 23.8632V16.5047H118.705V18.5263C118.705 20.795 118.53 22.5761 118.186 23.8632H123.72Z" fill="white"/>
<path d="M139.831 14.509V25.8588H137.674V24.1557C137.207 24.7602 136.641 25.2347 135.972 25.5728C135.303 25.9108 134.595 26.0863 133.842 26.0863C132.841 26.0863 131.938 25.8328 131.12 25.3257C130.301 24.8187 129.658 24.1167 129.19 23.2261C128.723 22.3355 128.489 21.3215 128.489 20.1839C128.489 19.0463 128.723 18.0322 129.19 17.1417C129.658 16.2511 130.301 15.5491 131.12 15.042C131.938 14.535 132.841 14.2815 133.842 14.2815C134.628 14.2815 135.362 14.4635 136.044 14.8275C136.726 15.1916 137.304 15.6986 137.791 16.3486V14.509H139.831ZM136.018 23.5901C136.563 23.2586 136.986 22.7906 137.291 22.1925C137.596 21.5945 137.746 20.9249 137.746 20.1839C137.746 19.4428 137.596 18.7733 137.291 18.1753C136.986 17.5772 136.563 17.1092 136.018 16.7777C135.472 16.4461 134.868 16.2771 134.205 16.2771C133.543 16.2771 132.945 16.4461 132.412 16.7777C131.88 17.1092 131.464 17.5772 131.165 18.1753C130.86 18.7733 130.71 19.4428 130.71 20.1839C130.71 20.9249 130.86 21.5945 131.165 22.1925C131.47 22.7906 131.886 23.2586 132.412 23.5901C132.939 23.9216 133.536 24.0907 134.205 24.0907C134.874 24.0907 135.472 23.9216 136.018 23.5901Z" fill="white"/>
<path d="M152.076 16.5502H148.107V25.8588H145.951V16.5502H141.981V14.509H152.076V16.5502Z" fill="white"/>
<path d="M161.619 15.0291C162.49 15.5296 163.159 16.2382 163.627 17.1547C164.094 18.0713 164.328 19.1439 164.328 20.3659C164.328 20.6845 164.328 20.9185 164.302 21.068H155C155.149 21.9455 155.565 22.6671 156.234 23.2326C156.91 23.7982 157.689 24.0842 158.579 24.0842C160.047 24.0842 161.087 23.5446 161.71 22.4721H163.932C163.568 23.5316 162.899 24.3962 161.912 25.0723C160.931 25.7483 159.813 26.0798 158.579 26.0798C157.475 26.0798 156.474 25.8263 155.584 25.3193C154.694 24.8122 153.993 24.1102 153.499 23.2066C152.999 22.3096 152.752 21.2955 152.752 20.1774C152.752 19.0593 152.999 18.0453 153.499 17.1482C153.999 16.2447 154.688 15.5426 155.578 15.0356C156.461 14.5285 157.455 14.275 158.56 14.275C159.729 14.275 160.749 14.5285 161.619 15.0291ZM156.221 17.0247C155.578 17.5837 155.182 18.3053 155.032 19.1829H161.996C161.905 18.2728 161.535 17.5512 160.898 17.0052C160.262 16.4592 159.463 16.1862 158.527 16.1862C157.592 16.1862 156.864 16.4657 156.221 17.0247Z" fill="white"/>
<path d="M176.827 25.8783H174.67V16.5502H169.818V18.6173C169.818 20.2359 169.733 21.562 169.558 22.5891C169.382 23.6162 169.025 24.4417 168.479 25.0528C167.934 25.6638 167.128 25.9693 166.05 25.9693C165.764 25.9693 165.452 25.9303 165.121 25.8588V23.8632C165.394 23.9087 165.634 23.9282 165.848 23.9282C166.336 23.9282 166.699 23.7787 166.946 23.4732C167.193 23.1676 167.375 22.6281 167.479 21.8481C167.583 21.068 167.635 19.9239 167.635 18.4093V14.5026H176.821V25.8783H176.827Z" fill="white"/>
<path d="M188.865 19.9694C189.54 20.6129 189.871 21.432 189.871 22.4331C189.871 23.4341 189.534 24.2532 188.865 24.8967C188.189 25.5403 187.26 25.8588 186.065 25.8588H180.458V14.509H182.615V19.0008H186.065C187.253 19.0008 188.189 19.3259 188.865 19.9694ZM187.176 23.5901C187.494 23.3301 187.65 22.9466 187.65 22.4331C187.65 21.9195 187.487 21.536 187.176 21.276C186.857 21.016 186.389 20.8925 185.766 20.8925H182.615V23.9802H185.766C186.389 23.9737 186.857 23.8437 187.176 23.5901Z" fill="white"/>
<path d="M192.139 17.2002C192.665 16.2966 193.392 15.5881 194.315 15.068C195.237 14.548 196.257 14.288 197.375 14.288C198.628 14.288 199.759 14.652 200.766 15.3865C201.773 16.1211 202.435 17.0767 202.753 18.2597H200.395C200.135 17.6552 199.726 17.1742 199.161 16.8166C198.596 16.4591 197.959 16.2836 197.264 16.2836C196.569 16.2836 195.919 16.4526 195.361 16.7971C194.802 17.1417 194.36 17.6097 194.042 18.2077C193.724 18.8058 193.568 19.4688 193.568 20.1969C193.568 20.9249 193.724 21.588 194.042 22.186C194.36 22.784 194.796 23.2521 195.361 23.5966C195.919 23.9346 196.556 24.1101 197.264 24.1101C197.972 24.1101 198.589 23.9346 199.161 23.5771C199.726 23.2196 200.142 22.7385 200.395 22.134H202.753C202.435 23.3171 201.773 24.2726 200.766 25.0072C199.759 25.7417 198.628 26.1058 197.375 26.1058C196.257 26.1058 195.237 25.8457 194.315 25.3257C193.392 24.8057 192.665 24.0906 192.139 23.1936C191.606 22.2965 191.346 21.2954 191.346 20.2099C191.346 19.1243 191.612 18.0972 192.139 17.2002Z" fill="white"/>
<path d="M213.31 16.5502H209.341V25.8588H207.184V16.5502H203.215V14.509H213.31V16.5502Z" fill="white"/>
<path d="M224.99 22.6606C224.99 23.5966 224.652 24.3702 223.97 24.9617C223.288 25.5598 222.353 25.8588 221.157 25.8588H215.467V14.509H221.157C222.294 14.509 223.191 14.8016 223.847 15.3801C224.503 15.9651 224.834 16.6997 224.834 17.5902C224.834 18.1233 224.711 18.5978 224.457 19.0333C224.21 19.4624 223.827 19.8069 223.314 20.0669C224.431 20.6324 224.99 21.4905 224.99 22.6606ZM220.904 19.2284C221.463 19.2284 221.885 19.0983 222.177 18.8448C222.463 18.5848 222.606 18.2078 222.606 17.7072C222.606 16.7842 222.041 16.3227 220.904 16.3227H217.571V19.2284H220.904ZM222.301 23.6421C222.612 23.3756 222.768 22.9921 222.768 22.4981C222.768 22.03 222.612 21.6725 222.301 21.419C221.989 21.172 221.534 21.042 220.93 21.042H217.571V24.0387H220.93C221.534 24.0452 221.989 23.9087 222.301 23.6421Z" fill="white"/>
<path d="M229.661 25.2997C228.738 24.7797 228.011 24.0646 227.485 23.1676C226.952 22.2705 226.692 21.2694 226.692 20.1839C226.692 19.0983 226.958 18.0972 227.485 17.2002C228.011 16.2966 228.738 15.5881 229.661 15.068C230.583 14.548 231.603 14.288 232.721 14.288C233.838 14.288 234.832 14.548 235.748 15.068C236.664 15.5881 237.385 16.3031 237.911 17.2002C238.437 18.1037 238.704 19.0983 238.704 20.1839C238.704 21.2694 238.437 22.2705 237.911 23.1676C237.378 24.0711 236.657 24.7797 235.748 25.2997C234.832 25.8197 233.825 26.0798 232.721 26.0798C231.61 26.0863 230.583 25.8262 229.661 25.2997ZM234.63 23.5771C235.202 23.2391 235.657 22.7645 235.995 22.1665C236.326 21.5685 236.495 20.9054 236.495 20.1774C236.495 19.4493 236.326 18.7863 235.995 18.1882C235.663 17.5902 235.209 17.1222 234.63 16.7776C234.052 16.4331 233.422 16.2641 232.727 16.2641C232.032 16.2641 231.369 16.4331 230.785 16.7776C230.2 17.1222 229.745 17.5902 229.414 18.1882C229.083 18.7863 228.914 19.4493 228.914 20.1774C228.914 20.9054 229.083 21.5685 229.414 22.1665C229.745 22.7645 230.206 23.2326 230.785 23.5771C231.369 23.9151 232.012 24.0906 232.727 24.0906C233.422 24.0906 234.059 23.9151 234.63 23.5771Z" fill="white"/>
<path d="M92.0514 52.9331H89.3555L85.9189 49.0588V47.1802L89.3555 43.3059H91.9994L87.8418 48.0967L92.0514 52.9331ZM96.8586 52.9331H94.1626L90.7262 49.0588V47.1802L94.1626 43.3059H96.8066L92.649 48.0967L96.8586 52.9331Z" fill="white"/>
<path d="M119.946 55.3447H117.543V41.5053L109.942 55.3382L102.393 41.6028V55.3447H99.9897V38.4956H103.381L110.02 50.5539L116.659 38.4956H119.953V55.3447H119.946Z" fill="white"/>
<path d="M132.341 43.865C133.263 44.3915 133.972 45.1456 134.472 46.1141C134.965 47.0827 135.219 48.2203 135.219 49.5204C135.219 49.8584 135.219 50.1054 135.193 50.2679H125.332C125.494 51.1975 125.929 51.9645 126.644 52.5691C127.358 53.1736 128.19 53.4726 129.132 53.4726C130.684 53.4726 131.795 52.9006 132.451 51.763H134.81C134.426 52.8876 133.712 53.8042 132.672 54.5192C131.633 55.2343 130.451 55.5918 129.138 55.5918C127.969 55.5918 126.91 55.3253 125.962 54.7857C125.013 54.2462 124.279 53.5051 123.746 52.5496C123.22 51.594 122.954 50.5214 122.954 49.3384C122.954 48.1553 123.22 47.0827 123.746 46.1271C124.273 45.1716 125.007 44.424 125.949 43.891C126.884 43.3515 127.943 43.0849 129.112 43.0849C130.34 43.0719 131.418 43.332 132.341 43.865ZM126.618 45.9841C125.936 46.5757 125.513 47.3427 125.358 48.2723H132.737C132.64 47.3102 132.25 46.5367 131.574 45.9646C130.892 45.3861 130.054 45.1001 129.06 45.1001C128.112 45.1001 127.3 45.3861 126.618 45.9841Z" fill="white"/>
<path d="M149.79 53.1737V57.984H147.575V55.3383H138.389V57.984H136.174V53.1737H137.713C138.051 52.2116 138.22 50.3655 138.22 47.6418V43.3125H148.101V53.1737H149.79ZM145.821 53.2257V45.4316H140.507V47.5703C140.507 49.9754 140.325 51.8606 139.955 53.2257H145.821Z" fill="white"/>
<path d="M152.193 43.3125H154.48V52.2636L160.736 43.3125H163.263V55.3448H160.976V46.3937L154.72 55.3448H152.193V43.3125Z" fill="white"/>
<path d="M178.042 43.3124V55.3447H175.755V53.5376C175.261 54.1811 174.657 54.6817 173.949 55.0392C173.241 55.4032 172.488 55.5787 171.689 55.5787C170.63 55.5787 169.668 55.3122 168.804 54.7727C167.94 54.2331 167.258 53.4921 166.758 52.5495C166.258 51.6005 166.011 50.5279 166.011 49.3253C166.011 48.1227 166.258 47.0502 166.758 46.1011C167.252 45.152 167.934 44.411 168.804 43.878C169.668 43.3384 170.63 43.0719 171.689 43.0719C172.52 43.0719 173.3 43.2669 174.021 43.6504C174.742 44.034 175.359 44.5735 175.872 45.2625V43.3124H178.042ZM174.001 52.9331C174.579 52.582 175.028 52.088 175.346 51.451C175.664 50.8204 175.827 50.1054 175.827 49.3188C175.827 48.5323 175.664 47.8237 175.346 47.1867C175.028 46.5561 174.579 46.0621 174.001 45.7046C173.423 45.3535 172.78 45.178 172.078 45.178C171.377 45.178 170.74 45.3535 170.181 45.7046C169.623 46.0556 169.181 46.5496 168.856 47.1867C168.538 47.8237 168.375 48.5323 168.375 49.3188C168.375 50.1054 168.538 50.8139 168.856 51.451C169.175 52.088 169.616 52.5755 170.181 52.9331C170.74 53.2841 171.377 53.4596 172.078 53.4596C172.78 53.4661 173.423 53.2906 174.001 52.9331Z" fill="white"/>
<path d="M188.923 42.5259C189.683 41.1998 190.722 40.1598 192.035 39.3992C193.347 38.6387 194.809 38.2551 196.413 38.2551C197.647 38.2551 198.804 38.4891 199.876 38.9637C200.947 39.4382 201.876 40.1078 202.656 40.9853C203.436 41.8629 204.007 42.8769 204.377 44.0275H201.708C201.207 42.9549 200.506 42.1099 199.603 41.4858C198.7 40.8683 197.634 40.5563 196.42 40.5563C195.283 40.5563 194.25 40.8358 193.314 41.4013C192.385 41.9604 191.651 42.7274 191.112 43.696C190.573 44.6646 190.307 45.7371 190.307 46.9072C190.307 48.0773 190.573 49.1499 191.112 50.1184C191.651 51.087 192.385 51.854 193.314 52.4196C194.243 52.9786 195.276 53.2646 196.42 53.2646C197.641 53.2646 198.7 52.9591 199.603 52.3351C200.506 51.7175 201.207 50.8725 201.708 49.7934H204.377C204.007 50.9505 203.436 51.9645 202.656 52.8356C201.876 53.7132 200.954 54.3827 199.876 54.8572C198.804 55.3318 197.647 55.5658 196.413 55.5658C194.809 55.5658 193.353 55.1823 192.035 54.4217C190.722 53.6612 189.683 52.6146 188.923 51.295C188.163 49.9689 187.78 48.5063 187.78 46.9007C187.78 45.2951 188.163 43.852 188.923 42.5259Z" fill="white"/>
<path d="M220.391 44.1055C221.352 44.6321 222.112 45.3601 222.664 46.2832C223.217 47.2063 223.496 48.2203 223.496 49.3254C223.496 50.4305 223.217 51.4445 222.664 52.3676C222.112 53.2907 221.352 54.0187 220.391 54.5452C219.429 55.0718 218.37 55.3383 217.214 55.3383H215.915V59.4271H213.628V55.3383H212.381C211.212 55.3383 210.146 55.0718 209.185 54.5452C208.223 54.0187 207.463 53.2907 206.898 52.3676C206.339 51.4445 206.06 50.4305 206.06 49.3254C206.06 48.2203 206.339 47.2063 206.898 46.2832C207.457 45.3601 208.223 44.6321 209.185 44.1055C210.146 43.579 211.212 43.3125 212.381 43.3125H213.628V38.3787H215.915V43.3125H217.214C218.37 43.3125 219.423 43.5725 220.391 44.1055ZM213.628 53.2257V45.4316H212.452C211.699 45.4316 211.017 45.6071 210.4 45.9517C209.782 46.2962 209.295 46.7642 208.944 47.3623C208.594 47.9538 208.418 48.6103 208.418 49.3384C208.418 50.0664 208.594 50.7165 208.944 51.3145C209.295 51.9061 209.782 52.3806 210.4 52.7251C211.017 53.0696 211.699 53.2452 212.452 53.2452H213.628V53.2257ZM219.163 52.7056C219.774 52.3611 220.254 51.8931 220.605 51.295C220.956 50.7035 221.131 50.0404 221.131 49.3189C221.131 48.5973 220.956 47.9408 220.605 47.3428C220.254 46.7512 219.774 46.2832 219.163 45.9322C218.552 45.5876 217.883 45.4121 217.143 45.4121H215.915V53.2062H217.143C217.877 53.2257 218.552 53.0501 219.163 52.7056Z" fill="white"/>
<path d="M234.682 43.865C235.605 44.3915 236.313 45.1456 236.813 46.1141C237.307 47.0827 237.56 48.2203 237.56 49.5204C237.56 49.8584 237.554 50.1054 237.534 50.2679H227.673C227.835 51.1975 228.271 51.9645 228.985 52.5691C229.7 53.1736 230.531 53.4726 231.473 53.4726C233.026 53.4726 234.137 52.9006 234.793 51.763H237.151C236.768 52.8876 236.053 53.8042 235.014 54.5192C233.974 55.2343 232.792 55.5918 231.48 55.5918C230.31 55.5918 229.251 55.3253 228.303 54.7857C227.355 54.2462 226.621 53.5051 226.088 52.5496C225.562 51.594 225.295 50.5214 225.295 49.3384C225.295 48.1553 225.562 47.0827 226.088 46.1271C226.614 45.1716 227.348 44.424 228.29 43.891C229.226 43.3515 230.284 43.0849 231.454 43.0849C232.681 43.0719 233.76 43.332 234.682 43.865ZM228.959 45.9841C228.277 46.5757 227.855 47.3427 227.699 48.2723H235.079C234.981 47.3102 234.591 46.5367 233.916 45.9646C233.234 45.3861 232.396 45.1001 231.402 45.1001C230.453 45.1001 229.641 45.3861 228.959 45.9841Z" fill="white"/>
<path d="M249.559 43.878C250.423 44.4175 251.105 45.1585 251.605 46.1011C252.099 47.0502 252.352 48.1227 252.352 49.3253C252.352 50.5279 252.105 51.6005 251.605 52.5495C251.105 53.4986 250.429 54.2397 249.559 54.7727C248.695 55.3122 247.733 55.5787 246.674 55.5787C245.875 55.5787 245.122 55.3967 244.414 55.0392C243.706 54.6752 243.108 54.1746 242.608 53.5376V59.4335H240.321V43.3124H242.484V45.2625C242.997 44.5735 243.615 44.034 244.336 43.6504C245.057 43.2669 245.836 43.0719 246.668 43.0719C247.727 43.0719 248.688 43.3384 249.559 43.878ZM248.188 52.9331C248.747 52.582 249.188 52.088 249.513 51.451C249.832 50.8204 249.994 50.1054 249.994 49.3188C249.994 48.5323 249.832 47.8237 249.513 47.1867C249.195 46.5561 248.753 46.0621 248.188 45.7046C247.629 45.3535 246.993 45.178 246.291 45.178C245.589 45.178 244.946 45.3535 244.368 45.7046C243.79 46.0556 243.342 46.5496 243.023 47.1867C242.705 47.8237 242.543 48.5323 242.543 49.3188C242.543 50.1054 242.705 50.8139 243.023 51.451C243.342 52.088 243.79 52.5755 244.368 52.9331C244.946 53.2841 245.589 53.4596 246.291 53.4596C246.993 53.4596 247.623 53.2906 248.188 52.9331Z" fill="white"/>
<path d="M266.17 43.3124V55.3447H263.883V53.5376C263.389 54.1811 262.785 54.6817 262.077 55.0392C261.369 55.4032 260.615 55.5787 259.816 55.5787C258.757 55.5787 257.796 55.3122 256.932 54.7727C256.068 54.2331 255.386 53.4921 254.886 52.5495C254.385 51.6005 254.139 50.5279 254.139 49.3253C254.139 48.1227 254.385 47.0502 254.886 46.1011C255.379 45.152 256.061 44.411 256.932 43.878C257.796 43.3384 258.757 43.0719 259.816 43.0719C260.648 43.0719 261.427 43.2669 262.148 43.6504C262.869 44.034 263.487 44.5735 264 45.2625V43.3124H266.17ZM262.129 52.9331C262.707 52.582 263.155 52.088 263.474 51.451C263.792 50.8204 263.954 50.1054 263.954 49.3188C263.954 48.5323 263.792 47.8237 263.474 47.1867C263.155 46.5561 262.707 46.0621 262.129 45.7046C261.551 45.3535 260.908 45.178 260.206 45.178C259.504 45.178 258.868 45.3535 258.309 45.7046C257.75 46.0556 257.309 46.5496 256.984 47.1867C256.666 47.8237 256.503 48.5323 256.503 49.3188C256.503 50.1054 256.666 50.8139 256.984 51.451C257.302 52.088 257.744 52.5755 258.309 52.9331C258.868 53.2841 259.504 53.4596 260.206 53.4596C260.914 53.4661 261.557 53.2906 262.129 52.9331Z" fill="white"/>
<path d="M275.186 49.0588L271.75 52.9331H269.106L273.263 48.1422L269.054 43.3059H271.75L275.186 47.1802V49.0588ZM280 47.1867V49.0653L276.564 52.9396H273.92L278.077 48.1487L273.868 43.3124H276.564L280 47.1867Z" fill="white"/>
<path d="M38.2432 66.5515C44.4861 66.5515 50.3132 64.8288 55.3088 61.8387L76.4865 66.5515V0L55.3088 4.71282C50.3132 1.72262 44.4861 0 38.2432 0C32.0004 0 26.1668 1.72262 21.1842 4.71282L0 0V66.5515L21.1842 61.8387C26.1668 64.8288 32.0069 66.5515 38.2432 66.5515ZM75.3756 1.38459V65.1734L56.634 61.0001C65.5923 55.0392 71.4974 44.8465 71.4974 33.2757C71.4974 21.705 65.5923 11.5188 56.634 5.55137L75.3756 1.38459ZM58.1996 32.7232V24.5652C62.1948 23.6876 65.6638 22.602 68.1323 21.4449C69.5225 24.9487 70.3151 28.7449 70.38 32.7232H58.1996ZM70.38 33.8283C70.3086 37.8065 69.516 41.6028 68.1323 45.1065C65.6638 43.9495 62.2013 42.8704 58.1996 41.9863V33.8283H70.38ZM48.2214 25.0787V13.8264C52.3465 12.8904 56.2832 11.3823 59.7457 9.39963C63.1237 12.4418 65.8457 16.1926 67.6971 20.4114C63.7669 22.199 56.6145 24.1426 48.2214 25.0787ZM67.6971 46.1466C65.8522 50.3654 63.1237 54.1161 59.7457 57.1583C56.2832 55.1692 52.3465 53.6676 48.2214 52.7315V41.4728C56.6145 42.4088 63.7669 44.3525 67.6971 46.1466ZM38.8019 1.12458C42.1734 1.18308 45.4216 1.76812 48.4683 2.79519L50.0923 3.39323C50.1573 3.41923 50.2158 3.45173 50.2807 3.47773C46.7208 4.92083 42.8555 5.74639 38.8019 5.81789V1.12458ZM38.8019 6.91646C43.3817 6.84496 47.7342 5.83089 51.6904 4.08227C52.3595 4.3943 53.0286 4.72582 53.6718 5.07684L55.0814 5.9024C56.4002 6.71495 57.6604 7.61201 58.8427 8.60658C53.2235 11.7593 46.1751 13.7549 38.8019 13.8524V6.91646ZM38.8019 52.712C46.1751 52.8095 53.2235 54.7987 58.8427 57.9579C57.6604 58.946 56.4002 59.8495 55.0814 60.6556L53.6718 61.4811C53.0221 61.8322 52.3595 62.1637 51.6904 62.4757C47.7342 60.7271 43.3817 59.7195 38.8019 59.6415V52.712ZM38.8019 60.7401C42.8555 60.8116 46.7273 61.6371 50.2807 63.0802C50.2158 63.1062 50.1573 63.1387 50.0923 63.1582L48.4683 63.7563C45.4216 64.7834 42.1734 65.3684 38.8019 65.4269V60.7401ZM37.6911 65.4334C34.3195 65.3749 31.0714 64.7898 28.0247 63.7628L26.3941 63.1647C26.3292 63.1387 26.2707 63.1127 26.2057 63.0867C29.7657 61.6436 33.6309 60.8181 37.6846 60.7466V65.4334H37.6911ZM37.6911 59.635C33.1047 59.713 28.7523 60.7206 24.8026 62.4692C24.127 62.1572 23.4643 61.8322 22.8212 61.4746L21.418 60.6491C20.0993 59.8365 18.839 58.9395 17.6567 57.9514C23.2695 54.7987 30.3243 52.803 37.6976 52.7055V59.635H37.6911ZM18.2869 24.5652V32.7232H6.11294C6.1844 28.7449 6.97044 24.9487 8.36063 21.4449C10.8292 22.602 14.2917 23.6811 18.2869 24.5652ZM8.78938 20.4114C10.6408 16.1926 13.3627 12.4418 16.7408 9.39963C20.2032 11.3888 24.1334 12.8904 28.265 13.8264V25.0787C19.8784 24.1426 12.7261 22.199 8.78938 20.4114ZM18.2869 33.8283V41.9863C14.2917 42.8639 10.8227 43.9495 8.36063 45.1065C6.97044 41.6028 6.1779 37.8065 6.11294 33.8283H18.2869ZM28.265 41.4728V52.725C24.1334 53.6676 20.2032 55.1627 16.7408 57.1518C13.3692 54.1096 10.6408 50.3589 8.78938 46.1401C12.7261 44.3525 19.8784 42.4088 28.265 41.4728ZM26.3941 3.38673L28.0247 2.78869C31.0714 1.76162 34.3195 1.17658 37.6911 1.11808V5.80489C33.6374 5.73339 29.7657 4.90783 26.2122 3.46473C26.2707 3.44523 26.3357 3.41273 26.3941 3.38673ZM21.4115 5.9024L22.8147 5.07684C23.4643 4.71932 24.1205 4.3943 24.7961 4.08227C28.7458 5.83739 33.1047 6.84496 37.6846 6.91646V13.8459C30.3114 13.7484 23.263 11.7528 17.6437 8.60008C18.8325 7.61201 20.0928 6.71495 21.4115 5.9024ZM1.11085 65.1734V1.38459L19.8524 5.55787C10.8942 11.5188 4.9891 21.705 4.9891 33.2757C4.9891 44.8465 10.8942 55.0392 19.8524 61.0001L1.11085 65.1734Z" fill="white"/>
<path d="M61.9155 10.2576C74.9599 23.3105 75.0638 44.4434 62.1428 57.3728C49.2219 70.3022 28.1027 70.1982 15.0583 57.1453C2.01385 44.0859 1.90991 22.953 14.8309 10.0301C27.7454 -2.89924 48.8711 -2.79523 61.9155 10.2576ZM15.7793 56.4237C28.421 69.0736 48.897 69.1776 61.4153 56.6448C73.9335 44.1184 73.836 23.629 61.1944 10.9792C48.5527 -1.67716 28.0767 -1.77467 15.5585 10.7517C3.03375 23.2845 3.13769 43.7674 15.7793 56.4237Z" fill="white"/>
</g>
<defs>
<clipPath id="clip0_1_6">
<rect width="280" height="67" fill="white"/>
</clipPath>
</defs>
</svg>
