<svg width="167" height="41" viewBox="0 0 167 41" fill="none" xmlns="http://www.w3.org/2000/svg">
<path d="M36.6988 2.84961H2.06173V37.4524H37.1111V2.84961H36.6988ZM6.49445 17.912C7.73151 17.912 8.76237 18.9297 8.76237 20.151C8.76237 21.3723 7.73151 22.3901 6.49445 22.3901C5.25742 22.3901 4.22654 21.3723 4.22654 20.151C4.22654 18.9297 5.25742 17.912 6.49445 17.912ZM17.3186 35.6205C22.0605 32.262 25.05 26.7663 25.2562 20.9652H30.9259L27.3179 24.4255V26.5627L33.9154 20.0492L27.3179 13.5358V15.673L30.9259 19.3369H25.2562C25.05 13.5358 22.0605 8.04006 17.3186 4.68153V3.76556H36.1833V36.4347H17.3186V35.6205ZM14.8445 36.5365H2.98951V3.86734H14.8445V5.4957H15.1537C19.9988 8.44711 23.0913 13.7393 23.4006 19.4386H22.2667C21.9574 14.1464 19.071 9.26128 14.5352 6.41167L13.7105 7.63294C17.834 10.1772 20.5142 14.6553 20.7204 19.3369H19.3803C19.071 15.0624 16.7 10.9915 12.9889 8.75245L12.3704 9.77019C15.7722 11.8057 17.937 15.4695 18.1432 19.3369H16.4938C16.1846 15.9783 14.329 12.9251 11.4426 11.0932L10.9271 11.9074C13.5043 13.5358 15.2568 16.2836 15.463 19.3369H13.6074C13.4012 16.996 11.958 14.7571 9.89629 13.5358L9.48392 14.1464C11.3395 15.2659 12.5766 17.1996 12.7828 19.3369H10.721C10.5148 17.912 9.6901 16.6908 8.45306 15.8766L8.14381 16.2836C9.48399 17.0978 10.3087 18.5227 10.3087 20.0492C10.3087 21.5759 9.48399 23.0007 8.14381 23.8148L8.45306 24.3237C9.6901 23.5095 10.5148 22.2883 10.721 20.8634H12.7828C12.5766 23.0007 11.3395 24.9344 9.48392 26.0539L9.89629 26.6645C11.958 25.4432 13.2982 23.2042 13.6074 20.8634H15.463C15.1537 23.9166 13.5043 26.6645 10.9271 28.2929L11.4426 29.1071C14.329 27.377 16.1846 24.222 16.4938 20.8634H18.1432C17.8339 24.7308 15.6691 28.3946 12.3704 30.4301L12.9889 31.4478C16.7 29.2089 19.071 25.1379 19.3803 20.8634H20.7204C20.4111 25.6468 17.834 30.1248 13.7105 32.6691L14.5352 33.8904C19.071 31.0408 22.0605 26.1557 22.2667 20.8634H23.4006C23.0913 26.5627 19.9988 31.7532 15.1537 34.8064H14.8445V36.5365Z" fill="#07689F"/>
<path d="M46.2859 20.9653V17.1997H44.9457V23.0007H46.2859L48.6568 19.2351V23.0007H49.9969V17.1997H48.6568L46.2859 20.9653ZM51.6464 21.067C51.7494 23.0007 53.0896 23.2043 54.3266 23.2043C55.5636 23.2043 57.0068 22.8989 57.0068 21.4741C57.0068 20.5581 56.4914 20.1511 55.6667 20.0493C56.079 19.9475 56.8007 19.6422 56.8007 18.7262C56.8007 17.5049 55.6667 17.0979 54.3266 17.0979C52.7803 17.0979 51.8525 17.6068 51.7494 19.1333H53.0896C53.0896 18.2174 53.8111 18.2174 54.1205 18.2174C54.3266 18.2174 55.2544 18.2174 55.2544 18.9298C55.2544 19.5405 54.6359 19.5404 54.3266 19.5404H53.605V20.6599H54.4297C54.7389 20.6599 55.4606 20.6599 55.4606 21.3724C55.4606 21.6776 55.2544 22.1866 54.3266 22.1866C53.2957 22.1866 52.9865 21.7794 52.9865 21.1688H51.6464V21.067ZM63.8106 21.8812V17.1997H59.584V18.5227C59.584 19.744 59.3778 20.8635 58.6563 21.8812H58.0377L58.1408 24.3237H59.3778V23.0007H63.2951V24.3237H64.5322L64.6352 21.8812H63.8106ZM62.3673 18.3192V21.8812H60.0994C60.6149 21.1688 60.718 20.3546 60.821 19.0316V18.3192H62.3673ZM67.5217 17.1997L65.3568 23.0007H66.8001L67.2124 21.8812H69.3772L69.7895 23.0007H71.2328L69.068 17.1997H67.5217ZM67.5217 20.9653L68.2432 18.7262L68.9648 20.9653H67.5217ZM73.6038 18.3192V23.0007H74.9442V18.3192H76.6962V17.1997H71.7482V18.3192H73.6038ZM79.5828 19.5404V18.3192H82.7785V17.1997H78.1399V23.0007H82.8818V21.8812H79.5828V20.5581H82.4694V19.4387H79.5828V19.5404ZM83.9124 23.1025C86.3866 23.4078 86.5924 21.5759 86.5924 20.4564V18.421H88.2419V23.1025H89.5823V17.3014H85.2528V20.0493C85.2528 21.067 85.1495 22.0848 83.9124 21.983V23.1025ZM92.9838 17.1997H91.6442V23.0007H94.4275C95.7672 23.0007 96.4886 22.4918 96.4886 21.1688C96.4886 20.2529 96.0763 19.2351 94.4275 19.2351H92.9838V17.1997ZM92.9838 20.4564H94.1177C94.7366 20.4564 95.0457 20.6599 95.0457 21.1688C95.0457 21.6776 94.7366 21.8812 94.1177 21.8812H92.9838V20.4564ZM102.055 20.9653C101.953 21.3724 101.746 22.0848 100.819 22.0848C99.8909 22.0848 99.3753 21.2706 99.3753 20.1511C99.3753 18.2174 100.509 18.1156 100.819 18.1156C101.128 18.1156 101.953 18.1156 102.055 19.1333H103.396C103.396 18.3192 102.778 16.9961 100.716 16.9961C100.2 16.9961 97.9323 17.0979 97.9323 20.1511C97.9323 22.39 99.272 23.1025 100.819 23.1025C102.88 23.1025 103.396 21.7794 103.499 20.8635H102.055V20.9653ZM106.282 19.6422V17.1997H104.942V23.0007H106.282V20.1511L108.344 23.0007H109.993L107.519 19.8457L109.89 17.1997H108.241L106.282 19.6422ZM112.776 17.1997L110.612 23.0007H112.055L112.467 21.8812H114.632L115.045 23.0007H116.488L114.323 17.1997H112.776ZM112.776 20.9653L113.498 18.7262L114.22 20.9653H112.776ZM120.92 21.067V23.1025H122.261V17.3014H119.271C118.653 17.3014 117.209 17.505 117.209 19.1333C117.209 20.4564 118.137 20.8635 118.755 20.9653L117.416 23.1025H119.065L120.199 21.067H120.92ZM120.92 18.3192V19.8457H119.683C118.859 19.8457 118.755 19.3369 118.755 19.0316C118.755 18.7262 118.962 18.3192 119.683 18.3192H120.92ZM127.621 18.3192H130.198V17.1997H126.281V23.0007H127.621V18.3192ZM131.538 17.1997V23.0007H132.879V20.9653H134.218C134.94 20.9653 136.487 20.8635 136.487 19.0316C136.487 17.6067 135.455 17.1997 134.321 17.1997H131.538ZM132.982 18.3192H134.012C134.321 18.3192 135.043 18.3192 135.043 19.0316C135.043 19.6422 134.734 19.8457 134.012 19.8457H132.982V18.3192ZM140.404 20.0493L139.167 17.1997H137.517L139.682 21.3724C139.579 21.5759 139.476 21.8812 138.961 21.8812C138.754 21.8812 138.548 21.8812 138.342 21.7794V22.8989C138.651 23.0007 138.858 23.0007 139.167 23.0007C139.888 23.0007 140.507 22.8989 141.022 21.6776L142.981 16.9961H141.434L140.404 20.0493ZM145.558 18.3192H147.723V23.0007H149.063V17.1997H144.115V23.0007H145.455V18.3192H145.558ZM152.465 18.3192H154.63V23.0007H155.97V17.1997H151.021V23.0007H152.362V18.3192H152.465ZM159.475 17.1997L157.31 23.0007H158.753L159.166 21.8812H161.33L161.742 23.0007H163.186L161.021 17.1997H159.475ZM159.371 20.9653L160.093 18.7262L160.815 20.9653H159.371Z" fill="#07689F"/>
<path d="M45.7704 32.9746L46.8013 32.0586V30.2267L44.8426 32.0586V33.8905L46.8013 35.7224V33.8905L45.7704 32.9746ZM48.2445 32.9746L49.2753 32.0586V30.2267L47.3167 32.0586V33.8905L49.2753 35.7224V33.8905L48.2445 32.9746ZM53.605 29.0054H57.6253V27.1735H51.4402V36.4349H53.605V29.0054ZM65.0476 32.6692C64.9445 34.6029 63.6044 34.9083 62.7797 34.9083C61.3365 34.9083 60.6148 33.9923 60.6148 33.0764H58.4501C58.5531 35.1118 60.0994 36.6384 62.8827 36.6384C64.1198 36.6384 67.5217 36.4349 67.5217 31.6516C67.5217 29.5143 66.5939 26.8682 62.7797 26.8682C59.6871 26.8682 58.6563 28.7001 58.5531 30.2267H60.718C60.821 29.616 61.2334 28.7001 62.8827 28.7001C63.5013 28.7001 64.9445 28.8019 65.1507 30.9391H61.6457V32.6692H65.0476ZM73.2947 36.7402C76.4904 36.7402 77.9333 34.7047 77.9333 31.8551C77.9333 29.1072 76.4904 26.9699 73.2947 26.9699C69.6865 26.9699 68.6556 29.7178 68.6556 31.8551C68.6556 33.9923 69.6865 36.7402 73.2947 36.7402ZM73.2947 34.9083C72.0575 34.9083 71.0266 34.1959 71.0266 31.8551C71.0266 29.7178 71.8513 28.8019 73.2947 28.8019C75.5624 28.8019 75.5624 31.0409 75.5624 31.8551C75.6656 32.6692 75.5624 34.9083 73.2947 34.9083ZM81.6447 29.0054V36.4349H83.8091V29.0054H86.5924V27.1735H78.8614V29.0054H81.6447ZM90.2005 27.2753L86.799 36.5366H89.0667L89.6856 34.8065H92.9838L93.6028 36.5366H95.8705L92.3657 27.2753H90.2005ZM90.0972 33.1781L91.3344 29.6161L92.4689 33.1781H90.0972ZM96.7985 27.2753V36.5366H98.9629V33.3817H101.025C102.159 33.3817 104.53 33.1781 104.53 30.3285C104.53 28.0895 102.88 27.3771 101.025 27.3771H96.7985V27.2753ZM98.9629 29.0054H100.612C101.128 29.0054 102.159 28.9036 102.159 30.2267C102.159 31.1427 101.643 31.448 100.612 31.448H98.9629V29.0054ZM106.076 33.7887H109.89V32.1604H106.076V33.7887ZM116.591 36.4349H118.034L120.302 29.8196V36.4349H122.467V27.1735H119.374L117.209 33.4834L115.045 27.1735H111.952V36.4349H114.117V29.8196L116.591 36.4349ZM129.167 34.5011C128.961 35.1118 128.342 35.3154 127.828 35.3154C126.487 35.3154 126.281 34.1959 126.178 33.5852H131.332V33.1781C131.332 32.364 131.126 29.4125 127.93 29.4125C125.766 29.4125 124.219 30.6338 124.219 32.9746C124.219 36.4348 126.899 36.5366 127.828 36.5366C129.064 36.5366 130.817 36.2313 131.332 34.2977H129.167V34.5011ZM126.281 32.4657C126.487 30.8373 127.621 30.8373 127.93 30.8373C128.446 30.8373 129.27 31.0409 129.374 32.4657H126.281ZM131.951 35.1118L132.054 38.165H133.807V36.4349H138.961V38.165H140.713L140.816 35.1118H139.682V29.7178H134.012V30.9391C134.012 32.6692 133.703 33.9923 132.982 35.01H131.951V35.1118ZM137.62 31.1427V35.1118H134.94C135.353 34.3994 135.765 33.3817 135.765 31.7533V31.0409H137.62V31.1427ZM143.703 34.0941V29.7178H141.744V36.4349H143.909L146.589 32.0586V36.4349H148.548V29.7178H146.383L143.703 34.0941ZM152.362 31.9568C152.362 30.9391 153.187 30.9391 153.599 30.9391C153.805 30.9391 154.63 30.9391 154.63 31.8551V32.0586C154.63 32.6692 154.011 32.5675 152.568 32.771C151.331 32.9746 150.094 33.3817 150.094 34.9083C150.094 35.4172 150.3 36.842 152.465 36.842C153.29 36.842 154.217 36.6384 154.733 35.926L154.939 36.5366H157.001V36.4349C156.588 36.3331 156.588 35.926 156.588 35.2136V32.1604C156.588 31.3462 156.588 29.6161 153.496 29.6161C152.774 29.6161 150.403 29.7178 150.403 32.0586H152.362V31.9568ZM154.733 33.687C154.733 35.01 153.805 35.3154 153.29 35.3154C152.878 35.3154 152.259 35.2136 152.259 34.5011C152.259 33.7887 152.98 33.5852 153.392 33.5852C154.217 33.4835 154.115 33.4835 154.733 33.1781V33.687ZM159.681 32.9746L158.65 33.8905V35.7224L160.609 33.8905V32.0586L158.65 30.2267V32.0586L159.681 32.9746ZM162.155 32.9746L161.124 33.8905V35.7224L163.083 33.8905V32.0586L161.124 30.2267V32.0586L162.155 32.9746Z" fill="#07689F"/>
</svg>
