<svg width="73" height="114" viewBox="0 0 73 114" fill="none" xmlns="http://www.w3.org/2000/svg">
<g clip-path="url(#clip0_4_1653)">
<path d="M32.3686 75.8345V74.5587L31.1093 74.354C14.407 71.6385 1.5 56.4763 1.5 38.1448C1.5 17.8778 17.2646 1.5 36.5 1.5C55.7354 1.5 71.5 17.8778 71.5 38.1448C71.5 56.4763 58.593 71.6385 41.8907 74.354L40.6314 74.5587V75.8345V84.7191V86.2191H42.1314H53.2556C55.4781 86.2191 57.3869 88.1168 57.3869 90.6042C57.3869 93.0908 55.474 94.9894 53.2556 94.9894H42.1314H40.6314V96.4894V108.115C40.6314 110.602 38.7225 112.5 36.5 112.5C34.2775 112.5 32.3686 110.602 32.3686 108.115V96.4894V94.9894H30.8686H19.7444C17.5219 94.9894 15.6131 93.0917 15.6131 90.6042C15.6131 88.1177 17.526 86.2191 19.7444 86.2191H30.8686H32.3686V84.7191V75.8345ZM36.5 11.8993C22.5507 11.8993 11.3215 23.7372 11.3215 38.1448C11.3215 52.5578 22.5509 64.3903 36.5 64.3903C50.4491 64.3903 61.6785 52.5578 61.6785 38.1448C61.6785 23.7318 50.4491 11.8993 36.5 11.8993Z" fill="white" stroke="#59137E" stroke-width="3"/>
</g>
<defs>
<clipPath id="clip0_4_1653">
<rect width="73" height="114" fill="white"/>
</clipPath>
</defs>
</svg>
