<svg width="90" height="93" viewBox="0 0 90 93" fill="none" xmlns="http://www.w3.org/2000/svg">
<g clip-path="url(#clip0_4_1657)">
<path d="M88.2471 4.35883L88.2546 4.38062L88.2627 4.40217C88.2807 4.44991 88.2979 4.50171 88.3237 4.58162C88.3305 4.60735 88.3375 4.63839 88.3504 4.69533C88.3533 4.70798 88.3564 4.72192 88.36 4.73737C88.3734 4.80177 88.3873 4.86086 88.3968 4.90135L88.3982 4.90701C88.4079 4.9484 88.4137 4.97318 88.418 4.99339C88.4225 5.01932 88.4244 5.03516 88.4279 5.06448C88.4315 5.09432 88.4367 5.13812 88.4481 5.22073C88.4558 5.28234 88.4645 5.33933 88.4697 5.37408C88.4749 5.40856 88.4778 5.42782 88.4797 5.44184C88.4838 5.48411 88.4873 5.52583 88.4902 5.56725V5.85462V30.6776C88.4902 33.1311 86.5776 35.0322 84.3248 35.0322C82.0728 35.0322 80.1593 33.1268 80.1593 30.6776V19.987V16.2788L77.5812 18.9441L65.2795 31.6617L64.4147 32.5557L65.1331 33.571C75.2207 47.8279 74.0262 68.0091 61.5857 80.865C47.8572 95.0519 25.54 95.0519 11.8116 80.865C-1.94362 66.6505 -1.94362 43.5018 11.8116 29.2873C24.2335 16.4506 43.6894 15.2363 57.4433 25.6238L58.5024 26.4237L59.4253 25.4699L71.7319 12.7523L74.1929 10.2092H70.654H60.3088C58.0527 10.2092 56.1434 8.30473 56.1434 5.85462C56.1434 3.40111 58.056 1.5 60.3088 1.5H84.3297C84.4584 1.5 84.5874 1.50668 84.7169 1.52014C84.7288 1.52187 84.7461 1.5246 84.7776 1.52969L84.7833 1.53061C84.8169 1.53604 84.8704 1.54468 84.9283 1.55244C85.0221 1.56635 85.0898 1.57722 85.1552 1.59009L85.1727 1.59353L85.1899 1.59652C85.192 1.59694 85.2002 1.59866 85.2161 1.60265C85.2382 1.60821 85.2657 1.61576 85.3049 1.62699C85.3632 1.64373 85.4212 1.65889 85.459 1.66874L85.4724 1.67225C85.5015 1.67988 85.5193 1.68468 85.5314 1.68806C85.5429 1.69213 85.5598 1.69835 85.588 1.70901L85.6011 1.71399C85.6351 1.72691 85.6903 1.74785 85.7482 1.76812C85.8316 1.79854 85.8772 1.81563 85.918 1.83297C85.9429 1.84356 85.9737 1.85873 86.0607 1.90369L86.0769 1.91205L86.0933 1.92001C86.1379 1.9417 86.17 1.95711 86.1949 1.96902C86.2398 1.99056 86.2608 2.00062 86.2882 2.01561L86.3038 2.02413L86.3119 2.02833C86.3147 2.03001 86.3198 2.03314 86.3278 2.03816L86.3735 2.06717C86.3922 2.07912 86.4185 2.09593 86.4467 2.11341L86.4467 2.11346L86.458 2.12034C86.4878 2.13847 86.516 2.15516 86.5373 2.16775L86.5449 2.17222C86.5642 2.18363 86.5773 2.19138 86.5903 2.19919C86.6093 2.21065 86.6174 2.21589 86.619 2.21694L86.6346 2.22802L86.6521 2.23972C86.6521 2.23973 86.6613 2.24608 86.6881 2.26693C86.6943 2.27176 86.7006 2.27669 86.7074 2.28209C86.7165 2.28925 86.7266 2.29723 86.7388 2.30692C86.7584 2.32244 86.7841 2.34281 86.8111 2.36375L86.825 2.37451L86.8392 2.38494C86.8653 2.40425 86.8899 2.42193 86.9071 2.43428L86.9473 2.46331C86.951 2.46599 86.9538 2.46804 86.9557 2.46953L86.9648 2.47742L86.9833 2.49259C87.0684 2.56233 87.1642 2.65269 87.2694 2.76142C87.3595 2.85455 87.453 2.96193 87.5499 3.08298L87.5543 3.08847C87.5564 3.09145 87.5607 3.09743 87.5677 3.10745L87.5835 3.13016L87.6051 3.16103C87.6196 3.18176 87.6387 3.20881 87.6608 3.23866C87.6792 3.26398 87.697 3.28789 87.7108 3.30655C87.7272 3.3287 87.7387 3.34417 87.7497 3.35924C87.7602 3.37359 87.7671 3.38341 87.772 3.39052C87.776 3.39627 87.7778 3.39904 87.778 3.39938L87.7889 3.41682L87.8004 3.43407C87.8137 3.45403 87.8221 3.46876 87.8558 3.5282C87.8661 3.54651 87.8789 3.56905 87.895 3.5973L87.895 3.59733L87.9014 3.60848C87.9181 3.63719 87.9342 3.66406 87.9457 3.68339L87.9741 3.73102C87.9805 3.74186 87.984 3.74813 87.9855 3.75085C87.9861 3.75196 87.9864 3.75248 87.9864 3.75248L87.9902 3.76064L87.9981 3.77589C88.0136 3.80624 88.0244 3.83034 88.0462 3.87894C88.0578 3.90463 88.0724 3.93717 88.0924 3.98109L88.0997 3.99706L88.1073 4.01285C88.1505 4.10209 88.1667 4.13705 88.1785 4.16671L88.1786 4.16681C88.1973 4.21373 88.2154 4.26582 88.2471 4.35883ZM18.7812 73.521C28.6604 83.7302 44.7468 83.7302 54.6261 73.521C64.4786 63.3396 64.4786 46.8024 54.626 36.6209C44.7468 26.4118 28.6604 26.4118 18.7812 36.6209C8.92867 46.8024 8.92867 63.3396 18.7812 73.521Z" fill="white" stroke="#59137E" stroke-width="3"/>
</g>
<defs>
<clipPath id="clip0_4_1657">
<rect width="90" height="93" fill="white"/>
</clipPath>
</defs>
</svg>
