<svg width="63" height="99" viewBox="0 0 63 99" fill="none" xmlns="http://www.w3.org/2000/svg">
<path d="M50.0625 6.1875C51.7035 6.1875 53.2773 6.8394 54.4377 7.99978C55.5981 9.16016 56.25 10.734 56.25 12.375V86.625C56.25 88.266 55.5981 89.8398 54.4377 91.0002C53.2773 92.1606 51.7035 92.8125 50.0625 92.8125H12.9375C11.2965 92.8125 9.72266 92.1606 8.56228 91.0002C7.4019 89.8398 6.75 88.266 6.75 86.625V12.375C6.75 10.734 7.4019 9.16016 8.56228 7.99978C9.72266 6.8394 11.2965 6.1875 12.9375 6.1875H50.0625ZM12.9375 0C9.65545 0 6.50782 1.30379 4.18705 3.62455C1.86629 5.94532 0.5625 9.09295 0.5625 12.375V86.625C0.5625 89.9071 1.86629 93.0547 4.18705 95.3754C6.50782 97.6962 9.65545 99 12.9375 99H50.0625C53.3446 99 56.4922 97.6962 58.8129 95.3754C61.1337 93.0547 62.4375 89.9071 62.4375 86.625V12.375C62.4375 9.09295 61.1337 5.94532 58.8129 3.62455C56.4922 1.30379 53.3446 0 50.0625 0L12.9375 0Z" fill="white"/>
<path d="M31.5 86.625C33.141 86.625 34.7148 85.9731 35.8752 84.8127C37.0356 83.6523 37.6875 82.0785 37.6875 80.4375C37.6875 78.7965 37.0356 77.2227 35.8752 76.0623C34.7148 74.9019 33.141 74.25 31.5 74.25C29.859 74.25 28.2852 74.9019 27.1248 76.0623C25.9644 77.2227 25.3125 78.7965 25.3125 80.4375C25.3125 82.0785 25.9644 83.6523 27.1248 84.8127C28.2852 85.9731 29.859 86.625 31.5 86.625Z" fill="white"/>
</svg>
