<svg width="110" height="104" viewBox="0 0 110 104" fill="none" xmlns="http://www.w3.org/2000/svg">
<path d="M60.0417 80.875H59.0417V81.875V92.7917V93.7917H60.0417H76.4167C77.5991 93.7917 78.7331 94.2614 79.5692 95.0975C80.4053 95.9336 80.875 97.0676 80.875 98.25C80.875 99.4324 80.4053 100.566 79.5692 101.403C78.7331 102.239 77.5991 102.708 76.4167 102.708H32.75C31.5676 102.708 30.4336 102.239 29.5975 101.403C28.7614 100.566 28.2917 99.4324 28.2917 98.25C28.2917 97.0676 28.7614 95.9336 29.5975 95.0975C30.4336 94.2614 31.5676 93.7917 32.75 93.7917H49.125H50.125V92.7917V81.875V80.875H49.125H10.9167C8.2866 80.875 5.76426 79.8302 3.90452 77.9705C2.04479 76.1107 1 73.5884 1 70.9583V10.9167C1 8.2866 2.04479 5.76426 3.90452 3.90452C5.76426 2.04479 8.2866 1 10.9167 1H98.25C100.88 1 103.402 2.04479 105.262 3.90452C107.122 5.76426 108.167 8.2866 108.167 10.9167V70.9583C108.167 73.5884 107.122 76.1107 105.262 77.9705C103.402 79.8302 100.88 80.875 98.25 80.875H60.0417ZM98.25 71.9583H99.25V70.9583V10.9167V9.91667H98.25H10.9167H9.91667V10.9167V70.9583V71.9583H10.9167H98.25Z" fill="white" stroke="#59137E" stroke-width="2"/>
</svg>
