<svg width="63" height="53" viewBox="0 0 63 53" fill="none" xmlns="http://www.w3.org/2000/svg">
<g clip-path="url(#clip0_2_454)">
<path d="M58.5958 24.2841C57.7477 22.7851 56.6037 21.5623 55.1639 20.655C54.3158 20.1225 53.4086 19.7477 52.5013 19.4519C50.5684 17.4401 51.0023 14.5605 51.0221 14.4422L49.2469 14.1463L47.4719 13.8307C47.4521 13.9688 47.0774 16.2961 47.9649 18.801C45.0853 18.801 42.8171 19.4716 42.6594 19.511C41.7126 19.7872 41.1604 20.7931 41.4562 21.7595C41.7324 22.7062 42.7383 23.2585 43.7047 22.9824C43.7639 22.9824 49.4836 21.3059 53.2705 23.7121C54.8681 24.718 55.9134 26.3156 56.4262 28.5641C56.3671 28.7613 56.3276 28.998 56.3474 29.2149C56.6629 33.4554 54.947 33.8893 52.5605 34.5008C51.1207 34.8558 49.3258 35.3094 48.6553 37.0451C48.4383 37.6171 48.4975 38.2482 48.8525 38.7413C50.312 40.8122 51.811 43.9482 52.4224 45.6444C52.3041 45.7233 52.1857 45.7825 52.0674 45.8417C50.3909 43.3171 47.5507 39.3724 45.5192 38.2088C45.2431 38.051 44.9275 37.9721 44.6317 37.9721C44.5725 37.9721 44.5134 37.9721 44.4542 37.9721C42.2452 38.189 41.0618 36.9662 39.7206 35.3489C39.7206 35.3489 39.7009 35.3291 39.6811 35.3094C42.9552 31.2464 45.6573 31.9762 45.8545 32.0354C46.7815 32.3707 47.7874 31.8973 48.1424 30.99C48.4975 30.063 48.0241 29.0177 47.0971 28.6627C46.8801 28.5838 41.7521 26.7101 36.624 33.3568C36.5451 33.4554 36.486 33.5541 36.4268 33.6724C36.0718 33.7907 35.7168 33.9682 35.4406 34.2641C34.415 35.053 33.133 35.3686 31.6537 35.1911C31.2593 35.1319 30.8648 35.053 30.4703 34.9347C31.2198 33.2582 31.634 31.3845 31.634 29.4319C31.634 21.8976 25.5001 15.7636 17.9658 15.7636C17.019 15.7636 16.092 15.8622 15.1848 16.0397C15.8159 13.5349 17.1374 11.385 18.8533 10.2411C20.3128 9.25492 21.9104 9.05768 23.5869 9.66911C24.4745 9.98468 25.4409 9.57049 25.8354 8.74211C27.3738 5.44832 30.2337 4.52132 31.8115 4.26492C33.1527 4.04796 34.4939 4.14658 35.5984 4.52132C33.3697 6.07946 31.8115 7.91373 30.8845 10.0439C28.8925 9.86634 27.0779 10.7736 26.8018 10.9117C25.9143 11.385 25.5987 12.4698 26.0523 13.3574C26.3679 13.9688 26.999 14.3238 27.6499 14.3238C27.9458 14.3238 28.2219 14.2646 28.498 14.1069C28.7544 13.9688 29.3856 13.7321 30.0167 13.6532C29.7998 16.9273 31.0818 19.4322 31.1409 19.5702C31.4565 20.1816 32.0877 20.5367 32.7385 20.5367C33.0147 20.5367 33.2908 20.4775 33.5669 20.3394C34.4545 19.8858 34.7898 18.801 34.3558 17.9135C34.3558 17.874 32.8174 14.8169 34.1586 11.5823C35.2434 8.8999 37.9652 6.75006 42.2057 5.19191C44.0203 5.0144 46.466 5.25108 48.675 6.37531C51.7321 7.93346 53.3297 10.675 53.448 14.5408C53.4677 15.2508 53.9017 15.882 54.5525 16.1581C56.6629 17.0456 58.083 18.7418 58.5958 20.9508C58.8522 22.0554 58.8325 23.219 58.5958 24.3235M17.9658 39.4908C12.4038 39.4908 7.90686 34.9741 7.90686 29.4319C7.90686 23.8896 12.4235 19.373 17.9658 19.373C23.508 19.373 28.0247 23.8896 28.0247 29.4319C28.0247 34.9741 23.508 39.4908 17.9658 39.4908ZM62.1263 20.1027C61.4557 17.1837 59.6017 14.7577 56.9982 13.3179C56.5643 8.72239 54.2172 5.13274 50.3317 3.14069C48.0438 1.97701 45.4206 1.48393 43.0933 1.50365C42.6988 1.34587 42.2649 1.30642 41.8507 1.46421C41.6929 1.52338 41.5549 1.56282 41.3971 1.62199C40.5095 1.74033 39.7009 1.93757 39.0105 2.19397C36.9988 0.77389 34.1192 0.201913 31.2001 0.694996C27.8471 1.24725 25.0267 3.10124 23.2713 5.86251C21.0229 5.46804 18.7744 5.9414 16.8218 7.24314C13.7844 9.27464 11.6937 13.1601 11.2401 17.519C7.07848 19.8661 4.27777 24.3235 4.27777 29.4122C4.27777 36.9465 10.4117 43.0804 17.946 43.0804C22.2063 43.0804 26.0129 41.1278 28.5177 38.051C29.3856 38.3863 30.2928 38.6229 31.1804 38.7413C33.2908 39.0174 35.2434 38.6229 36.8804 37.5973C36.8804 37.5973 36.8804 37.5973 36.9002 37.6171C38.0638 39.0371 40.1545 41.5814 43.9216 41.5814H44.0597C45.3023 42.6071 47.5902 45.5458 49.7795 48.9777C50.1148 49.5102 50.6868 49.8061 51.2982 49.8061C51.4362 49.8061 51.594 49.8061 51.7321 49.7469C52.0082 49.6877 54.4342 49.0369 55.8148 47.3209C56.1304 46.9265 56.2685 46.4137 56.1896 45.9009C55.9332 44.323 54.3356 40.8122 52.7183 38.1299C52.9549 38.0707 53.1916 38.0115 53.3889 37.9524C55.7162 37.3607 59.9567 36.2759 59.937 30.0236C60.0356 29.8263 60.1145 29.5897 60.1342 29.3727C62.0868 26.6509 62.8363 23.2585 62.0868 20.0633" fill="white"/>
<path d="M8.22242 42.0549C7.39404 41.5026 6.26981 41.7196 5.71756 42.5479L1.20091 49.3328C0.648662 50.1611 0.865618 51.2854 1.694 51.8376C2.00957 52.0349 2.34487 52.1335 2.69989 52.1335C3.29159 52.1335 3.86356 51.8574 4.19886 51.3248L8.7155 44.54C9.26775 43.7116 9.0508 42.5874 8.22242 42.0351" fill="white"/>
<path d="M22.1471 32.7259C14.81 31.8383 15.0072 25.231 15.0664 24.4618C15.1453 23.4756 14.3958 22.6078 13.3899 22.5289C12.4038 22.45 11.5359 23.1995 11.457 24.2054C11.1809 27.9331 12.9757 35.2504 21.7132 36.2958C21.7921 36.2958 21.8512 36.2958 21.9301 36.2958C22.8374 36.2958 23.6066 35.6252 23.725 34.7179C23.8433 33.7317 23.1333 32.8245 22.1471 32.7061" fill="white"/>
</g>
<defs>
<clipPath id="clip0_2_454">
<rect width="61.4973" height="51.6357" fill="white" transform="translate(0.90509 0.517578)"/>
</clipPath>
</defs>
</svg>
