<svg width="70" height="66" viewBox="0 0 70 66" fill="none" xmlns="http://www.w3.org/2000/svg">
<g clip-path="url(#clip0_2_440)">
<path d="M6.78674 29.5087C6.78674 27.9223 8.07432 26.6117 9.6608 26.6117C11.2473 26.6117 12.5349 27.8993 12.5349 29.5087C12.5349 31.1182 11.2473 32.4058 9.6608 32.4058C8.07432 32.4058 6.78674 31.1182 6.78674 29.5087ZM69.2574 4.40092C68.6826 1.94072 66.4983 0.101318 63.8542 0.101318H62.1067C59.0487 0.101318 56.5655 2.58451 56.5655 5.66551V8.86147C56.5655 11.9195 59.0487 14.4257 62.1067 14.4257H63.8542C64.291 14.4257 64.7049 14.3797 65.1188 14.2647C65.1188 22.8639 58.083 29.8536 49.4379 29.8536C40.7927 29.8536 33.757 22.8639 33.757 14.2877C34.1708 14.3797 34.5847 14.4257 35.0215 14.4257H36.792C39.85 14.4257 42.3332 11.9195 42.3332 8.86147V5.66551C42.3332 2.6075 39.85 0.101318 36.792 0.101318H35.0215C32.4004 0.101318 30.1931 1.94072 29.6183 4.40092H29.4804V14.2877C29.4804 24.1515 36.769 32.3598 46.2649 33.8773C46.2649 33.9923 46.2189 34.1073 46.2189 34.2452C46.2189 36.2226 47.5755 37.901 49.4379 38.4758V42.2696C49.4379 52.4323 40.6317 61.0085 30.1931 61.0085C19.7545 61.0085 10.9484 52.4323 10.9484 42.2696V38.7977C15.5009 38.1539 19.0188 34.2222 19.0188 29.4858C19.0188 24.2894 14.8111 20.0818 9.63781 20.0818C4.46449 20.0818 0.210876 24.2665 0.210876 29.4628C0.210876 33.6244 2.92399 37.1653 6.67177 38.4069C6.67177 38.5218 6.62579 38.6598 6.62579 38.7747V42.2466C6.62579 54.7315 17.4093 65.2621 30.1701 65.2621C42.931 65.2621 53.7145 54.7315 53.7145 42.2466V37.6941C54.7721 36.8664 55.4619 35.6478 55.4619 34.2222C55.4619 33.8773 55.4159 33.5554 55.3469 33.2335C63.4863 30.7274 69.4184 23.1628 69.4184 14.2647V4.40092H69.2574Z" fill="white"/>
</g>
<defs>
<clipPath id="clip0_2_440">
<rect width="69.1845" height="65.1838" fill="white" transform="translate(0.210876 0.101318)"/>
</clipPath>
</defs>
</svg>
