<svg width="63" height="63" viewBox="0 0 63 63" fill="none" xmlns="http://www.w3.org/2000/svg">
<g clip-path="url(#clip0_3_491)">
<path d="M22.6867 21.4692C24.078 21.4692 25.1866 22.5996 25.1866 23.9691C25.1866 25.3386 24.0562 26.469 22.6867 26.469C21.3172 26.469 20.1868 25.3604 20.1868 23.9691C20.1868 22.5779 21.3172 21.4692 22.6867 21.4692Z" fill="white"/>
<path d="M17.5132 23.9692C17.5132 21.1215 19.8392 18.7956 22.6869 18.7956C25.5346 18.7956 27.8606 21.1215 27.8606 23.9692C27.8606 26.8169 25.5346 29.1429 22.6869 29.1429C19.8392 29.1429 17.5132 26.8169 17.5132 23.9692ZM61.0331 39.2512C60.294 39.2512 59.707 39.8598 59.707 40.5772C59.707 42.4032 58.4027 43.9684 56.5985 44.2727C57.1637 43.1206 57.381 41.838 57.2724 40.5772C57.2724 39.8381 56.6637 39.2512 55.9463 39.2512C55.229 39.2512 54.6203 39.8598 54.6203 40.5772V41.5554C54.6203 42.5554 54.1638 43.4901 53.3812 44.1205C52.2074 43.1858 51.8378 41.5554 52.5117 40.2077L53.316 38.599C53.6421 37.9469 53.3812 37.1426 52.7291 36.7948C52.0769 36.4687 51.2726 36.7296 50.9248 37.3817C49.9031 39.4034 48.6858 41.3815 50.1422 44.251C48.3597 43.9249 47.0554 42.3597 47.0554 40.5555C47.0554 39.8164 46.4467 39.2294 45.7294 39.2294C42.7512 39.2294 44.8164 47.0117 50.8378 47.0117H51.99C51.2291 54.707 44.3816 60.3372 36.6863 59.5764C29.5344 58.8808 24.0564 52.8593 24.0564 45.6639V36.9469C25.5998 33.3601 29.2953 31.1863 33.1864 31.5993C33.7299 31.5993 33.4908 31.5124 34.2734 32.2732C35.0342 33.0341 35.9472 33.6427 36.9472 34.034L38.0558 38.273C38.2732 38.9903 38.9905 39.3816 39.7079 39.186C40.3818 38.9903 40.7948 38.3164 40.6426 37.6426L39.8601 34.534C40.7079 34.534 41.5556 34.4036 42.36 34.1427C43.0556 33.9036 43.4251 33.121 43.186 32.4254C42.9469 31.7298 42.1861 31.3602 41.4687 31.5993C39.5992 32.2297 37.5123 31.7515 36.1211 30.3385L35.1864 29.4038C32.6865 26.2517 32.643 21.7954 35.0777 18.5782L37.3602 17.4478L39.6862 19.752C40.2514 20.2303 41.0991 20.1651 41.5774 19.5999C42.0121 19.0999 42.0121 18.3608 41.5774 17.8608L39.8818 16.1652C41.2296 15.3609 42.1643 14.0349 42.4687 12.4915L45.425 9.53509C45.9033 8.96989 45.8381 8.12211 45.2729 7.64387C44.7729 7.2091 44.0338 7.2091 43.5338 7.64387L42.0121 9.12206C41.3165 7.73082 40.1209 6.64391 38.6645 6.10045C37.9906 5.79612 37.208 6.10045 36.8819 6.7526C36.5776 7.40475 36.8385 8.16558 37.4689 8.49165L38.3601 8.8612C39.7731 9.55683 40.3383 11.2524 39.6427 12.6654C39.3601 13.2306 38.9253 13.6653 38.3601 13.9479C36.9254 14.774 35.4255 15.5131 33.9038 16.187C28.9258 16.6869 25.665 14.3392 24.1868 10.9915C24.0999 10.7742 24.0999 10.9915 24.0999 9.81768C26.2737 9.57856 29.0345 7.79603 27.5563 6.31784C27.0345 5.79612 26.1868 5.79612 25.665 6.31784C25.2303 6.7526 24.6868 7.0352 24.0999 7.14389V2.23106C24.0999 1.49196 23.4912 0.905029 22.7739 0.905029C22.0565 0.905029 21.4478 1.49196 21.4478 2.23106V4.27445C20.7522 3.73099 20.6653 3.18754 20.2088 1.79629C19.9262 1.12241 19.1436 0.796338 18.4697 1.07893C17.861 1.33979 17.5132 2.01368 17.6871 2.64408C18.1871 4.16576 18.7088 6.40479 21.4478 7.18736C21.5348 8.42644 21.5348 9.66552 21.4478 10.9046C19.9262 14.5349 16.2307 16.7304 12.3178 16.3174H11.9917C11.1439 15.0566 10.057 13.9697 8.79621 13.1219C8.83968 10.9046 8.31797 8.70904 7.31801 6.73086C6.88324 6.14393 6.03546 6.0135 5.44852 6.44827C4.99202 6.79608 4.79638 7.38301 4.97028 7.92646C5.55722 9.12206 5.92676 10.4046 6.05719 11.7306C4.83986 11.3176 3.57904 11.1002 2.29649 11.1002C1.55739 11.1002 0.970459 11.6872 0.970459 12.4263C0.970459 13.1654 1.55739 13.7523 2.29649 13.7523C4.2964 13.7523 6.2311 14.4479 7.79625 15.687C6.44848 16.1 5.0355 16.2739 3.64426 16.2087C2.90516 16.2087 2.31823 16.8174 2.31823 17.5347C2.31823 18.2521 2.90516 18.8608 3.64426 18.8608C5.75286 18.9695 7.8832 18.5999 9.83964 17.7739L10.2309 18.3173C12.8612 21.5563 12.8612 26.1865 10.2309 29.4473C10.2309 29.4473 10.3831 29.2299 9.79616 30.0125C7.83973 29.1864 5.75286 28.8169 3.64426 28.9038C2.90516 28.9038 2.31823 29.5125 2.31823 30.2298C2.31823 30.9472 2.90516 31.5559 3.64426 31.5559C5.05724 31.4689 6.49196 31.6428 7.86146 32.0776C6.29631 33.3601 4.33988 34.0558 2.31823 34.0558C1.57913 34.0558 0.992197 34.6644 0.992197 35.3818C0.992197 36.0991 1.57913 36.7078 2.31823 36.7078C3.57904 36.7078 4.83986 36.4904 6.03546 36.0774C5.92676 37.4034 5.57895 38.686 4.99202 39.8816C4.68769 40.5555 4.99202 41.338 5.64417 41.6641C6.27458 41.9685 7.03541 41.7076 7.38322 41.0772C8.36144 39.099 8.86142 36.9252 8.81794 34.7296C10.057 33.8601 11.1439 32.7949 11.9917 31.5341C15.9915 30.9689 19.8609 33.1645 21.4261 36.8817V45.5553C21.3174 54.7505 28.6866 62.3154 37.8819 62.4241C46.7293 62.5328 54.0986 55.707 54.7072 46.903H56.0333C62.0548 46.9465 64.0547 39.1642 61.0983 39.1642L61.0331 39.2512Z" fill="white"/>
</g>
<defs>
<clipPath id="clip0_3_491">
<rect width="61.4973" height="61.6278" fill="white" transform="translate(0.90506 0.905029)"/>
</clipPath>
</defs>
</svg>
