<svg width="63" height="69" viewBox="0 0 63 69" fill="none" xmlns="http://www.w3.org/2000/svg">
<g clip-path="url(#clip0_3_536)">
<path d="M52.6949 35.2858C52.5048 36.1888 52.2672 37.068 51.9583 37.9472C51.7207 38.5888 51.0078 38.9452 50.3425 38.7076C50.2712 38.6839 50.1761 38.6363 50.1048 38.5888C35.1582 29.4878 28.9562 46.8819 11.7997 39.0403C11.5145 38.8977 11.2769 38.6601 11.1581 38.3512C10.7779 37.3532 10.4928 36.3314 10.2789 35.2858C9.2571 30.6046 11.372 24.0937 15.6967 20.6719C19.0948 17.9867 25.4631 15.2778 31.4988 15.2778C37.5345 15.2778 43.8791 17.9867 47.2771 20.6719C51.6256 24.0937 53.7167 30.6046 52.6949 35.2858ZM62.1762 3.30151C62.1524 1.89952 60.988 0.806446 59.6098 0.830208C59.5385 0.830208 59.4435 0.830208 59.3722 0.830208C58.0653 1.02031 57.091 2.16091 57.1385 3.49161C57.1861 6.53321 57.2573 11.4045 57.1861 13.7095C57.1148 15.9907 56.0692 18.6283 54.7623 21.1234C54.5722 21.4798 54.1207 21.6224 53.7405 21.4323C53.6454 21.3848 53.5504 21.2897 53.4791 21.1947C52.5286 19.864 51.4118 18.6758 50.1524 17.6303C44.4731 12.9728 36.9642 11.0243 31.4988 11.0243C26.0334 11.0243 18.5007 12.9728 12.8215 17.6303C11.5621 18.6758 10.4452 19.864 9.49473 21.1947C9.2571 21.5273 8.78185 21.6224 8.44918 21.3848C8.35413 21.3135 8.25908 21.2184 8.21155 21.1234C6.92838 18.6521 5.88283 16.0144 5.78778 13.7095C5.71649 11.4045 5.78778 6.53321 5.8353 3.49161C5.90659 2.18467 4.93233 1.04407 3.62539 0.830208C2.24717 0.687634 1.01152 1.68566 0.845179 3.06388C0.845179 3.13517 0.845179 3.23022 0.845179 3.30151C0.750129 6.41439 0.678841 11.6421 0.892704 13.8521C1.36795 18.8422 3.38777 22.7868 5.6452 26.565C6.12045 27.3491 6.26303 28.2996 6.07293 29.2026C5.76401 30.6759 5.66896 32.1967 5.78778 33.7175C6.31055 40.0621 9.47096 46.5968 21.0195 52.775C25.7245 55.2938 26.5562 59.2622 26.271 66.3196C26.2235 67.2701 26.9126 68.0781 27.8394 68.1969C28.7899 68.2682 29.6216 67.579 29.6928 66.6285C29.6928 66.6285 29.6928 66.581 29.6928 66.5573C29.8829 62.3275 30.7384 56.3156 26.6037 52.0859C26.5562 52.0384 26.5562 51.9433 26.6037 51.8958C26.6275 51.872 26.675 51.8483 26.7225 51.872C28.2671 52.276 29.8829 52.5136 31.475 52.5136C33.0434 52.5136 34.6354 52.3235 36.1562 51.9433C36.2275 51.9433 36.2988 51.9671 36.3226 52.0384C36.3226 52.0859 36.3226 52.1334 36.2751 52.1572C32.2592 56.3631 33.0671 62.3038 33.2572 66.486C33.2572 67.3177 33.875 68.0305 34.7067 68.1731C35.6335 68.3157 36.5364 67.6979 36.679 66.7474C36.679 66.6285 36.7028 66.5097 36.679 66.3909C36.3939 59.2859 37.2018 55.2938 41.9305 52.775C53.4553 46.5968 56.6395 40.0621 57.1623 33.7175C57.2573 32.1967 57.1623 30.6997 56.8771 29.2026C56.687 28.2996 56.8534 27.3491 57.3049 26.565C59.5623 22.763 61.5821 18.8184 62.0574 13.8521C62.2712 11.6421 62.1999 6.41439 62.1286 3.30151" fill="white"/>
</g>
<defs>
<clipPath id="clip0_3_536">
<rect width="61.4973" height="67.3667" fill="white" transform="translate(0.750061 0.830322)"/>
</clipPath>
</defs>
</svg>
