<svg width="63" height="55" viewBox="0 0 63 55" fill="none" xmlns="http://www.w3.org/2000/svg">
<g clip-path="url(#clip0_2_469)">
<path d="M4.10461 26.3342C4.10461 26.3342 4.16177 26.4104 4.18082 26.4485H19.517L23.4225 17.1706C23.7464 16.4276 24.4704 15.9322 25.2896 15.9322H25.3277C26.1469 15.9322 26.8899 16.4657 27.1756 17.2468L33.1958 33.326L38.1491 24.772C38.5111 24.1433 39.1779 23.7623 39.9019 23.7623H60.5343C63.4682 18.066 62.8014 11.0742 58.5911 6.29233C58.3625 6.02561 58.1148 5.77795 57.8671 5.51123C51.504 -0.851876 41.1402 -0.851876 34.739 5.54933L31.5574 8.90235L28.3949 5.73984C22.0318 -0.623262 11.6679 -0.623262 5.30484 5.73984C5.05718 5.98751 4.80951 6.25423 4.5809 6.52094C-0.220011 11.9886 -0.410523 20.314 4.10461 26.3342Z" fill="white"/>
<path d="M34.4339 38.3176C34.072 38.9462 33.4052 39.3273 32.6812 39.3273C32.6241 39.3273 32.5669 39.3273 32.5098 39.3273C31.7287 39.2701 31.0619 38.7557 30.7951 38.0318L25.0417 22.6956L22.5841 28.5252C22.2793 29.2682 21.5363 29.7636 20.7361 29.7636H7.19069C11.6296 35.3265 16.4115 40.6799 21.4219 45.7094L29.8807 54.1682C30.2808 54.5682 30.7951 54.7588 31.3095 54.7588C31.8239 54.7588 32.3383 54.5682 32.7384 54.1682C32.8336 54.111 32.9289 54.0348 33.0051 53.9396L41.4638 45.4808C47.2173 39.7273 52.6469 33.5357 57.6193 27.0964H40.9113L34.4149 38.3366L34.4339 38.3176Z" fill="white"/>
</g>
<defs>
<clipPath id="clip0_2_469">
<rect width="61.4973" height="54.0102" fill="white" transform="translate(0.82756 0.748535)"/>
</clipPath>
</defs>
</svg>
