<svg width="63" height="63" viewBox="0 0 63 63" fill="none" xmlns="http://www.w3.org/2000/svg">
<g clip-path="url(#clip0_3_485)">
<path d="M40.2981 28.7795C38.7146 28.7795 37.4131 27.4779 37.4131 25.8944C37.4131 24.3109 38.7146 23.0094 40.2981 23.0094C41.8816 23.0094 43.1832 24.3109 43.1832 25.8944C43.1832 27.4779 41.8816 28.7795 40.2981 28.7795ZM33.5735 42.2286C31.4477 42.2286 29.734 40.4933 29.734 38.3891C29.734 36.285 31.4477 34.5496 33.5735 34.5496C35.6994 34.5496 37.4131 36.285 37.4131 38.3891C37.4131 40.4933 35.6777 42.2286 33.5735 42.2286ZM25.2871 30.6884C23.4216 30.6884 21.9248 29.1699 21.9248 27.3261C21.9248 25.4823 23.4216 23.9638 25.2871 23.9638C27.1527 23.9638 28.6494 25.4823 28.6494 27.3261C28.6494 29.1699 27.1527 30.6884 25.2871 30.6884ZM58.5629 27.8033C57.1529 27.8033 55.8948 28.5842 55.244 29.7339H51.7516C51.3611 25.6124 49.7125 21.838 47.2179 18.8228L49.6908 16.3499C50.9707 16.6969 52.4024 16.3499 53.4002 15.352C54.897 13.8553 54.897 11.4257 53.4002 9.90728C51.9034 8.38883 49.4739 8.41052 47.9555 9.90728C46.9576 10.9051 46.6322 12.3368 46.9576 13.6166L44.4847 16.0896C41.4695 13.595 37.6951 11.9463 33.5735 11.5559V8.06345C34.7232 7.39099 35.5042 6.15454 35.5042 4.74454C35.5042 2.61871 33.7905 0.905029 31.6646 0.905029C29.5388 0.905029 27.8251 2.61871 27.8251 4.74454C27.8251 6.15454 28.606 7.41268 29.7557 8.06345V11.5559C25.6342 11.9463 21.8598 13.5733 18.8446 16.0896L16.3716 13.6166C16.7187 12.3368 16.3716 10.9051 15.3738 9.90728C13.877 8.41052 11.4258 8.41052 9.92907 9.90728C8.43231 11.404 8.43231 13.8336 9.92907 15.352C10.9269 16.3499 12.3586 16.6969 13.6384 16.3499L16.1113 18.8228C13.6167 21.8597 11.9681 25.6124 11.5777 29.7339H8.08524C7.41278 28.5842 6.17633 27.8033 4.76633 27.8033C2.6405 27.8033 0.926819 29.517 0.926819 31.6428C0.926819 33.7687 2.66219 35.4824 4.76633 35.4824C6.17633 35.4824 7.43447 34.7014 8.08524 33.5518H11.5777C11.9681 37.6733 13.5951 41.4477 16.1113 44.4629L13.6384 46.9358C12.3586 46.5888 10.9269 46.9358 9.92907 47.9337C8.43231 49.4304 8.43231 51.86 9.92907 53.3784C11.4258 54.8752 13.877 54.8752 15.3738 53.3784C16.3716 52.3806 16.697 50.9489 16.3716 49.669L18.8446 47.1961C21.8598 49.6907 25.6342 51.3393 29.7557 51.7298V55.2222C28.606 55.8947 27.8251 57.1312 27.8251 58.5411C27.8251 60.667 29.5388 62.3807 31.6646 62.3807C33.7905 62.3807 35.5042 60.667 35.5042 58.5411C35.5042 57.1312 34.7232 55.873 33.5735 55.2222V51.7298C37.6951 51.3393 41.4695 49.7124 44.4847 47.1961L46.9576 49.669C46.6105 50.9489 46.9576 52.3806 47.9555 53.3784C49.4522 54.8752 51.8817 54.8752 53.4002 53.3784C54.897 51.8816 54.897 49.4521 53.4002 47.9337C52.4024 46.9358 50.9707 46.5888 49.6908 46.9358L47.2179 44.4629C49.7125 41.4477 51.3611 37.6733 51.7516 33.5518H55.244C55.9165 34.7014 57.1529 35.4824 58.5629 35.4824C60.6888 35.4824 62.4025 33.7687 62.4025 31.6428C62.4025 29.517 60.6671 27.8033 58.5629 27.8033Z" fill="white"/>
</g>
<defs>
<clipPath id="clip0_3_485">
<rect width="61.4973" height="61.4973" fill="white" transform="translate(0.90509 0.905029)"/>
</clipPath>
</defs>
</svg>
