<svg width="75" height="57" viewBox="0 0 75 57" fill="none" xmlns="http://www.w3.org/2000/svg">
<path d="M62.9764 20.8145V20.5264V7.7605C62.9764 6.77758 62.3846 5.89171 61.477 5.51595L61.4769 5.51591C46.1685 -0.825225 29.0353 -0.909204 13.5231 5.51592L13.5231 5.51595C12.6155 5.89171 12.0236 6.77758 12.0236 7.7605V20.5264V20.8145L11.7743 20.959C7.93835 23.1818 4.40176 25.8989 1.21189 29.0893L1.21175 29.0895C0.472041 29.8287 0.288825 30.9585 0.75673 31.8939L0.756778 31.894L12.2798 54.9406C12.8502 56.0809 14.2052 56.5864 15.3831 56.099C29.6717 50.1801 45.4739 50.2408 59.617 56.099C60.7928 56.5856 62.1484 56.0836 62.7196 54.9407L62.7197 54.9407L74.2433 31.8939L74.2433 31.8939C74.7111 30.9588 74.5277 29.8294 73.7882 29.0894C73.7882 29.0893 73.7881 29.0893 73.7881 29.0893M62.9764 20.8145L63.4764 20.5264C67.3503 22.7712 70.9214 25.5155 74.1418 28.7358L73.7881 29.0893M62.9764 20.8145L63.2257 20.959C67.0617 23.1818 70.5982 25.8994 73.7881 29.0893M62.9764 20.8145L73.7881 29.0893M17.207 9.28492L16.883 9.40676V9.75292V17.6127V18.3655L17.5769 18.0736C30.6116 12.5904 44.9921 12.8453 57.4232 18.0736L58.1171 18.3654V17.6127V9.75292V9.40668L57.7929 9.28488C44.7547 4.38508 30.3829 4.33018 17.207 9.28492ZM58.9492 50.6248L59.3684 50.778L59.568 50.3788L68.9304 31.6534L69.0993 31.3157L68.8207 31.0608C51.2155 14.9584 24.0119 14.7508 6.17882 31.0608L5.9002 31.3156L6.06906 31.6534L15.4315 50.3788L15.6311 50.7781L16.0504 50.6248C30.0841 45.4943 45.2495 45.6196 58.9492 50.6248ZM40.4297 34.7023H39.9297V35.2023V38.0342C39.9297 39.3762 38.8421 40.4639 37.5 40.4639C36.158 40.4639 35.0703 39.3762 35.0703 38.0342V35.2023V34.7023H34.5703H31.7385C30.3965 34.7023 29.3088 33.6142 29.3088 32.2726C29.3088 30.9306 30.3965 29.8429 31.7385 29.8429H34.5703H35.0703V29.3429V26.5105C35.0703 25.169 36.158 24.0808 37.5 24.0808C38.842 24.0808 39.9297 25.169 39.9297 26.5105V29.3429V29.8429H40.4297H43.2616C44.6036 29.8429 45.6913 30.9306 45.6913 32.2726C45.6913 33.6142 44.6036 34.7023 43.2616 34.7023H40.4297Z" fill="white" stroke="#A91ED5"/>
</svg>
