<svg width="63" height="69" viewBox="0 0 63 69" fill="none" xmlns="http://www.w3.org/2000/svg">
<g clip-path="url(#clip0_2_448)">
<path d="M41.9271 38.281C41.6652 33.6859 42.4271 29.5195 42.927 26.7577C43.0937 25.9006 43.2604 24.8768 43.3318 24.3054C43.1651 22.7817 42.7604 22.1388 42.4747 22.0198C42.0461 21.8055 40.6414 22.0674 38.951 23.4007C32.8084 28.1862 29.8086 26.7101 24.9992 23.7102L24.7374 23.5435C22.666 22.2579 21.4042 22.0674 20.928 22.3531C20.3328 22.6864 19.8804 24.1149 19.7852 25.8291C19.8566 26.3767 20.0709 27.3529 20.2375 28.1862C20.8328 30.9718 21.7375 35.1621 21.4994 39.8523C21.047 48.6139 22.8089 60.0896 24.3088 67.3035C26.0468 66.5178 27.142 64.8989 27.3563 62.7561C27.4991 61.2562 27.3563 59.4705 27.2134 57.3992C26.9039 53.3518 26.523 48.2806 28.4515 44.9236C29.1895 43.6379 29.9276 43.4236 30.8085 43.3998H31.0942H31.3323C32.856 43.4474 33.7846 43.9236 34.356 44.9236C36.3321 48.3758 36.094 53.5422 35.8797 57.7087C35.7845 59.661 35.7131 61.3276 35.8321 62.7561C36.0702 65.256 37.4273 67.2321 39.451 68.1368C40.7843 60.8038 42.4509 47.8758 41.9033 38.3286" fill="white"/>
<path d="M60.9021 10.4723C56.069 1.80606 45.5933 -1.52713 35.9985 2.56793C34.4271 3.23457 32.8795 3.18695 31.4987 3.13933L28.9273 3.06791C28.2131 2.97267 27.4512 2.82982 26.8084 2.56793C17.3088 -1.50332 7.26161 1.75844 2.38087 10.4723C-0.428531 15.4959 0.642851 26.5907 6.6664 34.4237C9.64246 38.3045 11.1424 46.2089 11.1424 49.5183C11.1424 52.6134 11.4519 57.3751 14.2137 62.7796C15.3327 64.9938 17.4278 66.6604 19.642 67.3746C18.1183 59.8273 16.4517 48.5183 16.904 39.5663C17.1183 35.4951 16.3326 31.8047 15.7374 29.1144C15.5946 28.4716 15.4755 27.9002 15.3803 27.4002C15.2613 27.1145 15.166 26.805 15.166 26.4478C15.166 26.2812 15.166 26.0907 15.166 25.9002C15.166 25.6145 15.166 25.3288 15.166 25.0669C15.166 24.9241 15.2136 24.8051 15.2375 24.6622C15.4517 22.5194 16.2374 19.6386 18.6421 18.2815C20.8801 17.0197 23.7609 17.4482 27.1655 19.591L27.4274 19.7577C31.5701 22.3528 32.2129 22.7575 36.0937 19.7338C39.1174 17.3768 42.1887 16.7102 44.5219 17.8768C46.1885 18.7101 47.2599 20.3767 47.7122 22.7813C47.8075 22.9718 47.8789 23.2099 47.9027 23.4242C47.9265 23.7099 47.9265 23.9956 47.9027 24.3289C47.9503 24.9479 47.736 27.3288 47.4027 27.7097C46.9027 30.4 46.2599 34.0189 46.498 37.995C47.0456 47.5898 45.4742 60.4464 44.0695 68.3032C45.7837 67.7556 47.3313 66.5889 48.3789 64.8985C50.4264 61.613 52.7358 55.0894 52.7596 51.0182C52.7834 46.3279 53.831 38.0426 56.6166 34.4237C62.6163 26.5907 63.6639 15.5197 60.8307 10.4723" fill="white"/>
</g>
<defs>
<clipPath id="clip0_2_448">
<rect width="61.4973" height="67.4971" fill="white" transform="translate(0.90506 0.830322)"/>
</clipPath>
</defs>
</svg>
