<svg width="50" height="70" viewBox="0 0 50 70" fill="none" xmlns="http://www.w3.org/2000/svg">
<g clip-path="url(#clip0_3_550)">
<path d="M30.5454 21.3905C32.8149 23.3184 33.5958 23.0987 36.0362 21.3417C37.6713 20.1459 40.7461 19.3894 43.6502 20.0971C43.6502 19.9507 43.6502 19.8042 43.6502 19.6822C42.9913 7.11431 33.9131 6.16257 32.8637 6.11376C32.5221 6.11376 32.1804 6.08936 31.8388 6.08936C30.6186 6.08936 29.5936 6.28459 28.4223 6.72385C25.445 7.87083 23.0046 10.3356 21.7112 13.4837L21.5648 13.8497C21.2476 14.6551 21.15 15.5092 21.272 16.3633C21.4428 17.4371 21.5404 18.7549 21.4428 20.2191C23.4195 19.4382 27.2265 18.5596 30.5454 21.4149" fill="white"/>
<path d="M19.8322 25.9784C19.1001 27.3938 18.0995 28.6872 16.7573 29.9806C15.6591 31.0299 15.2443 32.6894 15.6347 34.2756C15.9764 35.6666 17.0745 36.7892 18.4412 37.1797C20.1006 37.6677 21.9797 37.9118 23.9564 37.9118C25.7867 37.9118 27.7146 37.7165 29.7157 37.3017C39.3063 35.325 42.4056 29.2241 43.2841 24.3677C41.5515 23.6356 39.2819 24.0993 38.4278 24.7338C36.5975 26.076 34.8892 26.9301 33.059 26.9301C31.4483 26.9301 29.7401 26.2468 27.7878 24.5629C25.3962 22.513 22.1993 24.3921 22.1505 24.4165C21.5892 24.7338 20.9547 24.7826 20.3934 24.5874C20.2226 25.051 20.003 25.5391 19.759 26.0028" fill="white"/>
<path d="M31.6435 55.336C31.6679 55.0432 31.6435 54.7259 31.5215 54.4331C30.2525 51.0166 25.9087 52.0659 23.3219 52.7004C16.196 54.4331 11.1688 54.97 8.2404 52.3588C6.33691 50.6505 5.14113 48.6494 4.70186 46.3798C3.09122 38.1558 9.21655 33.153 11.1444 31.8108C14.1217 29.7121 16.3912 27.8086 17.709 25.2706C20.4911 19.853 18.3191 14.5818 18.2459 14.3622C17.9775 13.6789 17.343 13.2152 16.6109 13.1176C16.5865 13.1176 13.4384 12.6539 11.5837 10.7749C10.3879 9.57907 9.75343 8.18806 9.43618 7.23632C9.07012 6.13815 7.92315 5.55246 6.82498 5.91852C5.72682 6.28457 5.14113 7.43155 5.48278 8.52971C5.92205 9.92072 6.84939 11.9462 8.63086 13.7277C10.5587 15.6556 13.1455 16.5585 14.683 16.9734C15.0002 18.3156 15.2931 20.878 13.9997 23.3916C13.1943 24.929 11.7301 26.3444 8.75288 28.4431C3.75012 31.9085 -1.03301 38.6927 0.626443 47.1608C1.23654 50.2844 2.92039 53.1641 5.48278 55.458C8.55765 58.1912 12.6575 58.6305 17.0257 58.1424C14.805 59.8507 13.3408 62.1446 12.6331 65.0487C12.3646 66.1712 13.0235 67.2938 14.1461 67.5623C14.3169 67.6111 14.4877 67.6355 14.6586 67.6355C15.5859 67.6355 16.44 67.001 16.6841 66.0492C17.6602 62.1202 20.6863 59.8263 26.2259 58.8501C28.6907 58.4109 31.4727 57.9228 31.6924 55.3116" fill="white"/>
<path d="M30.7162 43.6221C42.9669 41.1085 50.1904 31.8839 49.5559 19.56C48.7749 4.99103 38.745 0.476348 32.9369 0.110293C28.6907 -0.158148 24.7861 0.671578 18.5388 5.52791C17.8555 5.67434 17.2698 5.62553 16.7817 5.38149C15.7567 4.84461 15.171 3.478 15.0246 3.01433C14.7074 1.91617 13.5604 1.28167 12.4622 1.59892C11.3641 1.91617 10.7296 3.06314 11.0468 4.18571C11.1444 4.52736 12.0962 7.57782 14.8294 9.04205C16.3912 9.87177 18.2215 10.0182 20.125 9.4081C20.369 9.33489 20.5887 9.21287 20.7839 9.04205C26.7872 4.30773 29.8377 4.0881 32.6929 4.25892C37.1344 4.55177 44.7971 8.13911 45.4072 19.8041C45.9441 30.078 40.136 37.4724 29.8865 39.5711C19.0268 41.7918 13.78 37.7652 13.5848 37.5944C12.8527 36.9843 11.8033 36.9599 11.0224 37.5212C10.8516 37.6432 6.99581 40.5716 7.67911 45.3548C8.19159 48.8689 10.2415 49.723 11.7301 50.3819L11.8521 50.4307C14.3657 51.5045 16.5133 50.8944 19.5149 50.0647C20.3934 49.8206 21.3696 49.5522 22.4922 49.2837C29.5936 47.5755 34.0595 49.1373 35.4017 53.8716C35.841 55.3847 35.6213 56.9465 34.816 58.2399C33.547 60.2898 30.8382 61.6808 26.8116 62.3885C23.6391 62.9498 21.9553 64.0236 20.8327 66.2687C20.3202 67.2937 20.7351 68.5383 21.76 69.0507C22.0529 69.1972 22.3701 69.2704 22.6874 69.2704C23.4439 69.2704 24.176 68.8555 24.5421 68.1234C24.8593 67.4645 25.1522 66.9032 27.5193 66.4883C32.7661 65.561 36.4023 63.5355 38.3302 60.4362C39.77 58.1179 40.1604 55.3847 39.3795 52.7247C38.4278 49.4058 34.7916 42.0359 21.4916 45.2571C20.3202 45.55 19.2953 45.8184 18.3923 46.0869C15.7323 46.819 14.6098 47.1118 13.4872 46.6237L13.3652 46.5749C12.145 46.0625 11.9742 45.9892 11.8033 44.7935C11.6325 43.5733 12.0962 42.5727 12.5843 41.8894C15.2931 43.3536 21.3208 45.5988 30.7162 43.6709" fill="white"/>
</g>
<defs>
<clipPath id="clip0_3_550">
<rect width="49.2955" height="69.1845" fill="white" transform="translate(0.284805 0.0615234)"/>
</clipPath>
</defs>
</svg>
