<svg width="62" height="53" viewBox="0 0 62 53" fill="none" xmlns="http://www.w3.org/2000/svg">
<g clip-path="url(#clip0_2_459)">
<path d="M58.6935 4.63695C55.2913 0.811758 49.8478 -0.475567 44.4778 1.28991C40.1377 2.72435 36.7906 6.32886 35.5217 10.9264C34.547 14.531 35.0252 18.0251 36.809 20.0481C37.4527 20.7837 38.5929 20.8756 39.3285 20.2136C40.0641 19.5699 40.1561 18.4297 39.494 17.6941C38.5561 16.6091 38.3354 14.2183 38.9791 11.8644C39.4204 10.2092 40.9836 6.21852 45.5996 4.69212C49.6455 3.34963 53.5442 4.21397 56.0085 7.0093C58.3441 9.63912 58.7855 13.2988 57.1487 16.793C55.8614 19.5699 54.0776 20.6917 52.3489 21.7768C51.0064 22.6227 49.6087 23.4871 48.8363 25.0502C47.8616 26.9812 47.8064 28.9306 47.7329 31.0087C47.6042 34.7787 47.457 39.0637 41.5353 45.1325C37.9308 48.829 33.1493 48.829 33.1126 48.829H32.8919L32.6896 48.8657C32.4137 48.9209 26.0874 50.2082 22.2071 45.2796C20.6807 43.3486 19.0807 42.4843 17.4072 42.7234C15.2371 43.036 14.0785 45.1693 13.7291 45.9233C13.3245 46.4566 11.4855 48.6267 8.78213 48.2221C7.38446 48.0014 4.18454 44.452 3.81673 43.0544C4.23971 42.5027 4.42362 42.5762 5.58221 43.0544C6.64885 43.4774 8.10168 44.0475 9.77521 43.4222C10.8418 43.0176 11.0441 42.1349 11.5039 40.1671C11.8349 38.7143 12.3315 36.5258 12.9935 35.496C13.674 34.4477 14.4831 33.8224 15.513 33.6017C17.1497 33.2523 18.8417 34.0063 19.2278 34.227C19.8531 34.7419 20.7726 34.7787 21.4347 34.2822C22.2255 33.6937 22.391 32.5719 21.8025 31.7811C21.214 30.9903 18.6026 29.8501 16.1015 29.9421C13.5452 30.034 11.4303 31.303 9.9775 33.5834C8.98442 35.1281 8.43271 37.5741 8.00973 39.3579C7.95456 39.5786 7.89939 39.8177 7.84422 40.0384C7.58676 39.9648 7.27412 39.8545 6.88792 39.7073C5.49026 39.1556 2.91561 38.1442 0.671984 41.2521C0.230616 41.859 -0.137191 42.9624 0.598423 44.6911C1.68345 47.2474 5.36152 51.33 8.23042 51.7714C13.5268 52.5622 16.6348 48.0198 16.7635 47.8175L16.8739 47.652L16.9474 47.4681C17.1313 46.9899 17.6463 46.3095 17.9037 46.2727C17.9957 46.2727 18.5474 46.4382 19.375 47.5048C22.7956 51.845 27.5035 52.6541 30.5195 52.6541C31.8252 52.6541 32.8183 52.507 33.2413 52.4335C34.3999 52.4151 39.8066 52.0473 44.0732 47.652C50.9696 40.5901 51.1535 35.1281 51.2822 31.1374C51.3374 29.3352 51.3926 27.9007 52.0178 26.6686C52.3489 26.0065 53.1764 25.4916 54.2431 24.8295C56.1005 23.6526 58.6567 22.0526 60.4038 18.3378C62.6291 13.593 61.967 8.33341 58.6935 4.65534" fill="white"/>
<path d="M24.2856 25.9331L25.1131 26.448C28.5337 28.5813 31.2371 30.2548 31.6785 32.2594C31.8624 33.1053 32.598 33.6754 33.4256 33.6754C33.5543 33.6754 33.683 33.6754 33.8118 33.6387C34.7864 33.4364 35.3933 32.4801 35.1726 31.5054C34.4186 28.0296 31.1452 26.0067 27.0073 23.432L26.1798 22.9171C20.3684 19.2942 19.688 11.3312 19.688 11.2576C19.6144 10.2645 18.7317 9.52892 17.7754 9.60248C16.7823 9.67604 16.0467 10.5404 16.1202 11.5151C16.157 11.9197 16.9294 21.3355 24.2856 25.9515" fill="white"/>
</g>
<defs>
<clipPath id="clip0_2_459">
<rect width="61.4973" height="52.1366" fill="white" transform="translate(0.212585 0.517578)"/>
</clipPath>
</defs>
</svg>
