<svg width="63" height="50" viewBox="0 0 63 50" fill="none" xmlns="http://www.w3.org/2000/svg">
<g clip-path="url(#clip0_2_464)">
<path d="M3.37149 10.8517C3.18023 11.5298 3.12807 12.2948 3.24978 13.112C3.4932 14.5899 4.22345 16.1547 5.33621 17.5457C6.44896 18.9366 7.83991 19.9972 9.23086 20.5536C9.90895 20.8318 10.5697 20.9535 11.1782 20.9535C12.0128 20.9535 12.7778 20.7101 13.3863 20.2233C15.4032 18.6063 15.0207 14.9029 12.517 11.7906C10.2045 8.90441 7.04012 7.73949 4.97108 8.83486C4.43209 8.74793 3.11069 8.22632 2.97159 5.25317C2.93682 4.26212 3.45842 3.37539 4.34515 2.87117C5.28405 2.34956 6.3968 2.36695 7.30092 2.94072C11.4738 5.61829 16.203 6.36593 18.9675 6.57457C18.5676 7.42653 18.3416 8.33064 18.3416 9.28692C18.3416 11.7732 19.8021 14.0509 22.4797 15.6853C23.036 16.033 23.5402 16.5025 23.9749 17.0936C25.2615 18.7628 25.5745 20.9361 24.8617 22.8834C23.9401 25.3872 23.036 29.6991 24.0097 36.0975C25.8353 48.0248 30.5298 49.1898 31.0514 49.2767C31.1209 49.2767 31.1905 49.2767 31.26 49.2767C31.3296 49.2767 31.4165 49.2767 31.4687 49.2767C31.6251 49.2419 32.6162 49.0333 33.8159 47.8684C30.7732 45.8689 28.7737 42.4263 28.7737 38.5142C28.7737 32.7592 33.1204 28.0126 38.719 27.3693C38.5103 25.7523 38.18 24.2396 37.6584 22.8487C36.9281 20.9013 37.2585 18.728 38.5451 17.0588C38.9972 16.4677 39.5014 15.9983 40.0404 15.6505C42.718 13.9988 44.1785 11.7211 44.1785 9.25215C44.1785 8.29587 43.9524 7.37437 43.5525 6.5398C46.317 6.33115 51.0636 5.58352 55.2191 2.90594C56.1058 2.33218 57.236 2.2974 58.1749 2.83639C59.0616 3.34061 59.5658 4.22734 59.5311 5.3401C59.392 8.17416 58.1227 8.71315 57.5316 8.80009C55.4625 7.68733 52.2981 8.88702 49.9857 11.7559C47.482 14.8681 47.1168 18.5715 49.1337 20.1885C49.7422 20.6753 50.5073 20.9187 51.3245 20.9187C52.2633 20.9187 53.3066 20.6058 54.315 20.032C55.3234 19.4582 56.3319 18.6063 57.1838 17.5283C58.2966 16.1373 59.0442 14.5551 59.2703 13.0946C59.392 12.2775 59.3398 11.4951 59.1485 10.8344C60.4873 10.1389 61.8261 8.59145 61.9826 5.4792V5.32272C62.0695 3.41016 61.0959 1.68886 59.392 0.732584C57.6707 -0.24108 55.5668 -0.188919 53.9151 0.871679C49.1859 3.91438 43.4308 4.17518 41.7791 4.19257C39.4492 2.00183 35.6589 0.593489 31.26 0.593489C26.8611 0.593489 23.0708 2.00183 20.741 4.19257C19.0892 4.19257 13.3515 3.93177 8.60494 0.871679C6.97057 -0.171533 4.86676 -0.223693 3.14546 0.749971C1.44155 1.70625 0.467885 3.41016 0.520045 5.3401V5.51397C0.676527 8.62622 2.01532 10.1736 3.3541 10.8691" fill="white"/>
<path d="M42.7701 39.8011H41.2227V41.3485C41.2227 42.0266 40.6663 42.583 39.9882 42.583C39.3102 42.583 38.7538 42.0266 38.7538 41.3485V39.8011H37.2063C36.5283 39.8011 35.9719 39.2447 35.9719 38.5666C35.9719 37.8885 36.5283 37.3322 37.2063 37.3322H38.7538V35.7847C38.7538 35.1066 39.3102 34.5503 39.9882 34.5503C40.6663 34.5503 41.2227 35.1066 41.2227 35.7847V37.3322H42.7701C43.4482 37.3322 44.0046 37.8885 44.0046 38.5666C44.0046 39.2447 43.4482 39.8011 42.7701 39.8011ZM40.0056 29.821C35.1721 29.821 31.2427 33.7505 31.2427 38.584C31.2427 43.4176 35.1721 47.3296 40.0056 47.3296C44.8392 47.3296 48.7512 43.4002 48.7512 38.584C48.7512 33.7679 44.8218 29.821 40.0056 29.821Z" fill="white"/>
</g>
<defs>
<clipPath id="clip0_2_464">
<rect width="61.4973" height="49.2918" fill="white" transform="translate(0.520065 0.0546875)"/>
</clipPath>
</defs>
</svg>
