<svg width="63" height="63" viewBox="0 0 63 63" fill="none" xmlns="http://www.w3.org/2000/svg">
<g clip-path="url(#clip0_3_511)">
<path d="M36.9629 50.0161C33.4705 50.0161 30.6288 47.1744 30.6288 43.682C30.6288 40.1896 33.4705 37.3479 36.9629 37.3479C40.4554 37.3479 43.297 40.1896 43.297 43.682C43.297 47.1744 40.4554 50.0161 36.9629 50.0161ZM20.4986 34.6581C15.6829 34.6581 11.8 30.7535 11.8 25.9595C11.8 21.1655 15.7046 17.2609 20.4986 17.2609C25.2925 17.2609 29.1971 21.1655 29.1971 25.9595C29.1971 30.7535 25.2925 34.6581 20.4986 34.6581ZM39.9564 22.7924C41.7135 22.7924 43.1235 24.2024 43.1235 25.9595C43.1235 27.7166 41.7135 29.1266 39.9564 29.1266C38.1994 29.1266 36.7894 27.7166 36.7894 25.9595C36.7894 24.2024 38.1994 22.7924 39.9564 22.7924ZM31.2579 0.905029C14.3163 0.905029 0.520065 14.7013 0.520065 31.6428C0.520065 48.5844 14.3163 62.3807 31.2579 62.3807C48.1995 62.3807 61.9957 48.5844 61.9957 31.6428C61.9957 14.7013 48.2212 0.905029 31.2579 0.905029Z" fill="white"/>
</g>
<defs>
<clipPath id="clip0_3_511">
<rect width="61.4973" height="61.4973" fill="white" transform="translate(0.520065 0.905029)"/>
</clipPath>
</defs>
</svg>
