<svg width="62" height="39" viewBox="0 0 62 39" fill="none" xmlns="http://www.w3.org/2000/svg">
<g clip-path="url(#clip0_3_507)">
<path d="M46.1603 31.4548C48.6815 28.2584 50.1896 24.2066 50.1896 19.8171C50.1896 15.045 48.4114 10.6781 45.4851 7.36912C50.7749 10.0703 55.2319 14.2797 58.2032 19.592C55.3444 24.7018 51.1351 28.7536 46.1603 31.4548ZM4.15669 19.5695C7.28558 13.9871 12.0127 9.66514 17.6402 6.96394C14.5113 10.3404 12.5979 14.8424 12.5979 19.7946C12.5979 24.3642 14.2412 28.551 16.9424 31.8375C11.63 29.1363 7.15052 24.9269 4.15669 19.5695ZM31.3938 35.1915C22.9525 35.1915 16.0645 28.2809 16.0645 19.8171C16.0645 11.3534 22.9525 4.42031 31.3938 4.42031C39.835 4.42031 46.7231 11.3309 46.7231 19.7946C46.7231 28.2584 39.8575 35.169 31.3938 35.169M61.7373 18.7817C55.8396 7.45916 44.1344 0.436035 31.1912 0.436035C18.2479 0.436035 6.54275 7.45916 0.645125 18.7817C0.375005 19.2769 0.375005 19.8847 0.645125 20.3799C6.54275 31.6799 18.2479 38.7256 31.1912 38.7256C44.1344 38.7256 55.8396 31.7024 61.7373 20.3799C62.0074 19.8847 62.0074 19.2769 61.7373 18.7817Z" fill="white"/>
<path d="M31.1912 11.2634C26.6667 11.2634 22.9751 14.9776 22.9751 19.5696C22.9751 24.1617 26.6442 27.8758 31.1912 27.8758C35.7382 27.8758 39.4074 24.1617 39.4074 19.5696C39.4074 14.9776 35.7382 11.2634 31.1912 11.2634Z" fill="white"/>
</g>
<defs>
<clipPath id="clip0_3_507">
<rect width="61.4973" height="38.2895" fill="white" transform="translate(0.442535 0.436035)"/>
</clipPath>
</defs>
</svg>
