<svg width="54" height="63" viewBox="0 0 54 63" fill="none" xmlns="http://www.w3.org/2000/svg">
<g clip-path="url(#clip0_3_532)">
<path d="M19.8163 1.43799C9.22213 1.43799 0.58905 10.0711 0.58905 20.6652V48.6961C0.58905 51.2967 1.33512 53.812 2.76331 55.9649C3.04042 56.3699 3.59464 56.4765 3.99965 56.2207C4.40466 55.9436 4.51124 55.4107 4.23413 54.9844C2.99778 53.1299 2.33698 50.9556 2.33698 48.6961V20.6652C2.3583 11.0516 10.2027 3.20724 19.8163 3.20724C29.4299 3.20724 37.2743 11.0516 37.2743 20.6652C37.2743 30.2789 33.8424 34.4142 30.2186 39.2743C27.7459 42.5783 25.188 46.0102 23.7811 50.9343C22.8432 54.2596 21.5855 56.5831 19.9655 58.0326C18.3881 59.4395 16.4483 60.1003 13.8477 60.1003C11.2472 60.1003 8.88107 59.2902 6.85602 57.7768C6.47233 57.4784 5.91811 57.5636 5.61968 57.9473C5.32125 58.331 5.40652 58.8852 5.79021 59.1837C8.11368 60.9316 10.9061 61.8482 13.8477 61.8482C19.8589 61.8482 23.4401 58.6294 25.4864 51.4032C26.7867 46.7989 29.1315 43.6441 31.6255 40.3188C35.2706 35.4374 39.0435 30.3854 39.0435 20.6652C39.0649 10.0711 30.4318 1.43799 19.8163 1.43799Z" fill="white"/>
<path d="M19.8163 1.43799C9.22213 1.43799 0.58905 10.0711 0.58905 20.6652V48.6961C0.58905 51.2967 1.33512 53.812 2.76331 55.9649C3.04042 56.3699 3.59464 56.4765 3.99965 56.2207C4.40466 55.9436 4.51124 55.4107 4.23413 54.9844C2.99778 53.1299 2.33698 50.9556 2.33698 48.6961V20.6652C2.3583 11.0516 10.2027 3.20724 19.8163 3.20724C29.4299 3.20724 37.2743 11.0516 37.2743 20.6652C37.2743 30.2789 33.8424 34.4142 30.2186 39.2743C27.7459 42.5783 25.188 46.0102 23.7811 50.9343C22.8432 54.2596 21.5855 56.5831 19.9655 58.0326C18.3881 59.4395 16.4483 60.1003 13.8477 60.1003C11.2472 60.1003 8.88106 59.2902 6.85602 57.7768C6.47233 57.4784 5.91811 57.5636 5.61968 57.9473C5.32125 58.331 5.40652 58.8852 5.79021 59.1837C8.11368 60.9316 10.9061 61.8482 13.8477 61.8482C19.8589 61.8482 23.4401 58.6294 25.4864 51.4032C26.7867 46.7989 29.1315 43.6441 31.6255 40.3188C35.2706 35.4374 39.0435 30.3854 39.0435 20.6652C39.0649 10.0711 30.4318 1.43799 19.8163 1.43799Z" stroke="white" stroke-width="0.5" stroke-miterlimit="10"/>
<path d="M26.9999 11.9467C24.7404 10.1348 21.9053 9.1543 19.0063 9.1543C11.9293 9.1543 6.17392 14.9097 6.17392 21.9867C6.17392 22.4769 6.57893 22.882 7.04789 22.882C7.51684 22.882 7.94317 22.4769 7.94317 21.9867C7.94317 20.1748 8.39081 18.4482 9.15819 16.9347C11.098 15.6557 15.3825 15.9115 18.4734 18.2137C22.7366 21.3898 21.7987 26.1007 20.8608 28.6373C20.6903 29.085 20.9248 29.5966 21.3937 29.7671C21.5003 29.8097 21.6069 29.831 21.6921 29.831C22.0545 29.831 22.3956 29.6179 22.5235 29.2555C23.5253 26.5057 23.6959 23.9904 23.0351 21.7309C22.4595 19.7911 21.2445 18.0858 19.5179 16.7855C16.9812 14.9097 13.592 14.0783 10.8635 14.4834C12.8885 12.2878 15.7875 10.9235 19.0063 10.9235C21.5429 10.9235 23.909 11.7549 25.8914 13.3323C27.8099 14.867 29.1741 17.02 29.7497 19.3861C29.8563 19.855 30.3465 20.1535 30.8155 20.0469C31.2844 19.9403 31.5829 19.45 31.4763 18.9811C30.8155 16.2313 29.2168 13.7373 26.9999 11.968" fill="white"/>
<path d="M26.9999 11.9467C24.7404 10.1348 21.9053 9.1543 19.0063 9.1543C11.9293 9.1543 6.17392 14.9097 6.17392 21.9867C6.17392 22.4769 6.57893 22.882 7.04789 22.882C7.51684 22.882 7.94317 22.4769 7.94317 21.9867C7.94317 20.1748 8.39081 18.4482 9.15819 16.9347C11.098 15.6557 15.3825 15.9115 18.4734 18.2137C22.7366 21.3898 21.7987 26.1007 20.8608 28.6373C20.6903 29.085 20.9248 29.5966 21.3937 29.7671C21.5003 29.8097 21.6069 29.831 21.6921 29.831C22.0545 29.831 22.3956 29.6179 22.5235 29.2555C23.5253 26.5057 23.6959 23.9904 23.0351 21.7309C22.4595 19.7911 21.2445 18.0858 19.5179 16.7855C16.9813 14.9097 13.592 14.0783 10.8635 14.4834C12.8885 12.2878 15.7875 10.9235 19.0063 10.9235C21.5429 10.9235 23.909 11.7549 25.8914 13.3323C27.8099 14.867 29.1741 17.02 29.7497 19.3861C29.8563 19.855 30.3465 20.1535 30.8155 20.0469C31.2844 19.9403 31.5829 19.45 31.4763 18.9811C30.8155 16.2313 29.2168 13.7373 26.9999 11.968V11.9467Z" stroke="white" stroke-width="0.5" stroke-miterlimit="10"/>
<path d="M9.11555 43.5161C9.94688 45.9888 11.9932 47.6515 14.5512 47.9925C14.9136 48.0352 15.2546 48.0565 15.5957 48.0565C17.3223 48.0565 18.8144 47.4383 20.1147 46.202C21.3937 44.9869 22.3103 43.3243 23.099 41.8534C23.504 41.1287 23.8664 40.4253 24.2501 39.8497C24.8469 38.8905 25.5077 37.9526 26.1259 37.036C28.8757 33.0712 31.455 29.3195 31.7747 23.2017C31.796 22.7115 31.4336 22.2851 30.9434 22.2638C30.4531 22.2425 30.0481 22.6049 30.0055 23.0952C29.707 28.7013 27.2557 32.2398 24.6764 36.0128C24.0369 36.9294 23.3761 37.8886 22.7579 38.8692C22.3316 39.5087 21.9266 40.2334 21.5216 41.0008C20.0081 43.7932 18.4307 46.6922 14.7644 46.2233C12.8885 45.9888 11.3751 44.7525 10.7569 42.9406C10.1174 41.0647 10.5437 39.0823 11.8867 37.7607C12.8033 36.8441 13.3148 35.6291 13.3148 34.3288C13.3148 31.643 11.1406 29.4687 8.45475 29.4687C7.96447 29.4687 7.58078 29.8737 7.58078 30.364C7.58078 30.8543 7.98579 31.238 8.45475 31.238C10.16 31.238 11.5456 32.6235 11.5456 34.3288C11.5456 35.1602 11.2259 35.9275 10.6503 36.5244C8.83844 38.3363 8.24158 41.0221 9.09423 43.5374" fill="white"/>
<path d="M9.11555 43.5161C9.94688 45.9888 11.9932 47.6515 14.5512 47.9925C14.9136 48.0352 15.2546 48.0565 15.5957 48.0565C17.3223 48.0565 18.8144 47.4383 20.1147 46.202C21.3937 44.9869 22.3103 43.3243 23.099 41.8534C23.504 41.1287 23.8664 40.4253 24.2501 39.8497C24.8469 38.8905 25.5077 37.9526 26.1259 37.036C28.8757 33.0712 31.455 29.3195 31.7747 23.2017C31.796 22.7115 31.4336 22.2851 30.9434 22.2638C30.4531 22.2425 30.0481 22.6049 30.0055 23.0952C29.707 28.7013 27.2557 32.2398 24.6764 36.0128C24.0369 36.9294 23.3761 37.8886 22.7579 38.8692C22.3316 39.5087 21.9266 40.2334 21.5216 41.0008C20.0081 43.7932 18.4307 46.6922 14.7644 46.2233C12.8885 45.9888 11.3751 44.7525 10.7569 42.9406C10.1174 41.0647 10.5437 39.0823 11.8867 37.7607C12.8033 36.8441 13.3148 35.6291 13.3148 34.3288C13.3148 31.643 11.1406 29.4687 8.45475 29.4687C7.96447 29.4687 7.58078 29.8737 7.58078 30.364C7.58078 30.8543 7.98579 31.238 8.45475 31.238C10.16 31.238 11.5456 32.6235 11.5456 34.3288C11.5456 35.1602 11.2259 35.9275 10.6503 36.5244C8.83844 38.3363 8.24158 41.0221 9.09423 43.5374L9.11555 43.5161Z" stroke="white" stroke-width="0.5" stroke-miterlimit="10"/>
<path d="M40.9407 34.7125C40.9407 30.769 42.4755 27.06 45.2679 24.2888C45.6089 23.9478 45.6089 23.3722 45.2679 23.0312C44.9268 22.6901 44.3726 22.6901 44.0102 23.0312C40.8981 26.1434 39.1714 30.3 39.1714 34.7125C39.1714 39.1249 40.8981 43.2816 44.0102 46.3938C44.1808 46.5643 44.4152 46.6496 44.6284 46.6496C44.8416 46.6496 45.076 46.5643 45.2466 46.3938C45.5876 46.0527 45.5876 45.4772 45.2466 45.1361C42.4541 42.3437 40.9194 38.656 40.9194 34.7125" fill="white"/>
<path d="M40.9407 34.7125C40.9407 30.769 42.4755 27.06 45.2679 24.2888C45.6089 23.9478 45.6089 23.3722 45.2679 23.0312C44.9268 22.6901 44.3726 22.6901 44.0102 23.0312C40.8981 26.1434 39.1714 30.3 39.1714 34.7125C39.1714 39.1249 40.8981 43.2816 44.0102 46.3938C44.1808 46.5643 44.4152 46.6496 44.6284 46.6496C44.8416 46.6496 45.076 46.5643 45.2466 46.3938C45.5876 46.0527 45.5876 45.4772 45.2466 45.1361C42.4541 42.3437 40.9194 38.656 40.9194 34.7125H40.9407Z" stroke="white" stroke-width="0.5" stroke-miterlimit="10"/>
<path d="M51.5135 34.7127C51.5135 33.6042 51.9399 32.5597 52.7499 31.771C53.0909 31.43 53.0909 30.8544 52.7499 30.5134C52.4088 30.1723 51.8333 30.1723 51.4922 30.5134C50.3625 31.6431 49.7443 33.1353 49.7443 34.7127C49.7443 36.2901 50.3625 37.7822 51.4922 38.912C51.6628 39.0825 51.8972 39.1678 52.1104 39.1678C52.3236 39.1678 52.558 39.0825 52.7286 38.912C53.0696 38.5709 53.0696 37.9954 52.7286 37.6543C51.9399 36.8656 51.4922 35.8211 51.4922 34.7127" fill="white"/>
<path d="M51.5135 34.7127C51.5135 33.6042 51.9399 32.5597 52.7499 31.771C53.0909 31.43 53.0909 30.8544 52.7499 30.5134C52.4088 30.1723 51.8333 30.1723 51.4922 30.5134C50.3625 31.6431 49.7443 33.1353 49.7443 34.7127C49.7443 36.2901 50.3625 37.7822 51.4922 38.912C51.6628 39.0825 51.8972 39.1678 52.1104 39.1678C52.3236 39.1678 52.558 39.0825 52.7286 38.912C53.0696 38.5709 53.0696 37.9954 52.7286 37.6543C51.9399 36.8656 51.4922 35.8211 51.4922 34.7127H51.5135Z" stroke="white" stroke-width="0.5" stroke-miterlimit="10"/>
<path d="M48.9982 26.7617C48.6572 26.4206 48.1029 26.4206 47.7406 26.7617C45.6089 28.8933 44.4366 31.707 44.4366 34.7126C44.4366 37.7182 45.6089 40.5319 47.7406 42.6422C47.9111 42.8128 48.1456 42.898 48.3587 42.898C48.5719 42.898 48.8064 42.8128 48.9769 42.6422C49.318 42.3012 49.318 41.7256 48.9769 41.3846C47.1864 39.594 46.2058 37.2279 46.2058 34.6913C46.2058 32.1547 47.1864 29.7886 48.9769 27.998C49.318 27.6569 49.318 27.0814 48.9769 26.7403" fill="white"/>
<path d="M48.9982 26.7617C48.6572 26.4206 48.1029 26.4206 47.7406 26.7617C45.6089 28.8933 44.4366 31.707 44.4366 34.7126C44.4366 37.7182 45.6089 40.5319 47.7406 42.6422C47.9111 42.8128 48.1456 42.898 48.3587 42.898C48.5719 42.898 48.8064 42.8128 48.9769 42.6422C49.318 42.3012 49.318 41.7256 48.9769 41.3846C47.1863 39.594 46.2058 37.2279 46.2058 34.6913C46.2058 32.1547 47.1863 29.7886 48.9769 27.998C49.318 27.6569 49.318 27.0814 48.9769 26.7403L48.9982 26.7617Z" stroke="white" stroke-width="0.5" stroke-miterlimit="10"/>
</g>
<defs>
<clipPath id="clip0_3_532">
<rect width="53.4824" height="61.4973" fill="white" transform="translate(0.0561523 0.905029)"/>
</clipPath>
</defs>
</svg>
