<svg width="57" height="66" viewBox="0 0 57 66" fill="none" xmlns="http://www.w3.org/2000/svg">
<g clip-path="url(#clip0_3_476)">
<path d="M50.8923 11.8916C50.7541 11.9607 50.5927 12.0529 50.4314 12.1451C50.2009 12.2603 49.8782 12.4447 49.5786 12.7905L33.0532 32.1968C32.2235 33.1648 30.8406 33.741 29.8726 32.9343L26.5076 30.0534C25.5396 29.2236 25.4474 27.495 26.3232 26.4579L29.55 22.655L33.4451 23.1159C33.4451 23.1159 33.6064 23.1159 33.6986 23.1159C34.7818 23.1159 35.7499 22.3092 35.8651 21.1799C36.0034 19.9814 35.1506 18.8982 33.9521 18.7368L32.9611 18.6216L34.4131 16.916L38.3082 17.377C38.3082 17.377 38.4926 17.377 38.5617 17.377C39.668 17.377 40.5899 16.5473 40.7282 15.441C40.8665 14.2425 40.0137 13.1592 38.8152 12.9979L37.8242 12.8826L39.2762 11.154L43.1713 11.615C43.1713 11.615 43.3557 11.615 43.4248 11.615C44.5311 11.615 45.4761 10.8083 45.5913 9.67898C45.7296 8.48049 44.8768 7.39723 43.6783 7.25895L42.6873 7.14371C42.8256 7.05151 42.9408 6.95932 43.0561 6.84408C43.1482 6.75189 43.2404 6.6597 43.3326 6.54446L43.5631 6.26788C44.3467 5.34597 45.453 4.76977 46.6746 4.67758C47.8961 4.58538 49.0716 4.95415 50.0165 5.76083C51.8143 7.28199 52.1369 9.90946 50.8232 11.8224M52.9206 2.51107C51.0998 0.966858 48.7719 0.206277 46.398 0.39066C44.001 0.575044 41.8345 1.68134 40.2903 3.50213L40.2212 3.59432C40.2212 3.59432 40.152 3.68652 40.1059 3.73261C39.9446 3.84785 39.7371 4.00919 39.5528 4.23967L23.0274 23.646C21.0453 25.9969 20.8609 29.385 22.3821 31.8511L1.17795 56.6968C1.17795 56.6968 3.78236 59.7391 9.35997 58.4715C13.3242 57.5726 18.049 56.0053 21.7598 50.1512C25.0556 44.9423 24.6868 41.923 24.6868 41.923L28.4206 37.1521C29.2042 37.5209 30.057 37.7053 30.9328 37.7053C32.8919 37.7053 34.8971 36.8064 36.3952 35.0548L52.667 15.9711C52.667 15.9711 52.7362 15.925 52.7823 15.9019C53.1049 15.8097 53.5429 15.6023 53.9347 15.1413C57.1383 11.3845 56.6774 5.71473 52.9206 2.51107Z" fill="white"/>
<path d="M31.5782 61.3296H2.39948C1.20099 61.3296 0.20993 62.3206 0.20993 63.5191C0.20993 64.7176 1.17794 65.7087 2.39948 65.7087H31.5782C32.7767 65.7087 33.7677 64.7407 33.7677 63.5191C33.7677 62.2976 32.7767 61.3296 31.5782 61.3296Z" fill="white"/>
<path d="M44.6924 61.3296H38.8613C37.6628 61.3296 36.6718 62.3206 36.6718 63.5191C36.6718 64.7176 37.6398 65.7087 38.8613 65.7087H44.6924C45.8909 65.7087 46.882 64.7407 46.882 63.5191C46.882 62.2976 45.8909 61.3296 44.6924 61.3296Z" fill="white"/>
</g>
<defs>
<clipPath id="clip0_3_476">
<rect width="55.8452" height="65.3409" fill="white" transform="translate(0.20993 0.367676)"/>
</clipPath>
</defs>
</svg>
