<svg width="74" height="74" viewBox="0 0 74 74" fill="none" xmlns="http://www.w3.org/2000/svg">
<g clip-path="url(#clip0_4001_87)">
<path d="M55.9275 56.5123L45.327 51.9724C44.4461 51.5952 43.877 50.7322 43.877 49.7738V45.5181C47.732 43.299 50.4228 39.2749 50.7864 34.6082H51.4823C52.6051 34.6082 53.6809 34.1305 54.4345 33.2978C55.1875 32.4655 55.5548 31.3441 55.4424 30.2209C55.3512 29.3114 54.9272 28.4919 54.2948 27.8674C54.3004 27.8227 54.3042 27.7775 54.3042 27.7314V24.2555C54.3042 18.5929 51.5701 13.5569 47.3526 10.3982C47.3515 4.69062 42.7077 0 37 0C31.2952 0 26.6538 4.6857 26.6477 10.3892C26.1391 10.7697 25.6484 11.1791 25.1792 11.6181C21.9787 14.613 20.0468 18.6623 19.7392 23.0206C19.697 23.6179 20.147 24.1361 20.7442 24.1783C21.3388 24.2195 21.8597 23.7706 21.9019 23.1734C22.1707 19.3626 23.8608 15.8211 26.6605 13.2013C29.4734 10.569 33.1454 9.11949 37 9.11949C45.3461 9.11949 52.1362 15.9094 52.1362 24.2557V26.728C51.8703 26.6757 51.5964 26.6475 51.3169 26.6475H49.7445C49.0645 26.6475 48.5114 26.0944 48.5114 25.4144V24.6497C48.5114 22.3067 47.186 20.2673 45.2444 19.2417C46.2424 18.65 46.8162 18.2453 46.8987 18.1862C47.3856 17.8385 47.4982 17.1622 47.1507 16.6751C46.8034 16.1881 46.1266 16.0748 45.6392 16.4216C45.5654 16.4743 38.1314 21.6956 27.5838 23.0493C26.3894 23.2026 25.4887 24.2172 25.4887 25.4142C25.4887 26.0942 24.9356 26.6474 24.2555 26.6474H22.5178C21.3951 26.6474 20.3192 27.125 19.5656 27.9577C18.8126 28.7899 18.4452 29.9113 18.5577 31.0343C18.7583 33.0384 20.5703 34.6083 22.6832 34.6083H23.2133C23.4664 37.8933 24.8672 40.9476 27.2219 43.3023C28.0996 44.18 29.0751 44.9246 30.1229 45.5273V49.7738C30.1229 50.7322 29.5538 51.5952 28.6729 51.9724L18.0725 56.5123C15.5396 57.5971 13.9028 60.0785 13.9028 62.8338V72.916C13.9028 73.5148 14.388 74 14.9868 74C15.5855 74 16.0707 73.5148 16.0707 72.916V62.8338C16.0707 60.9469 17.1914 59.2478 18.926 58.5052L25.4885 55.6947V62.5634H21.9384C20.063 62.5634 18.5373 64.0892 18.5373 65.9645V70.5987C18.5373 72.4742 20.0631 73.9999 21.9384 73.9999C22.5372 73.9999 23.0224 73.5147 23.0224 72.9159C23.0224 72.3171 22.5372 71.8319 21.9384 71.8319C21.2584 71.8319 20.7053 71.2788 20.7053 70.5987V65.9645C20.7053 65.2845 21.2584 64.7314 21.9384 64.7314H31.2071C31.8871 64.7314 32.4402 65.2845 32.4402 65.9645V70.5987C32.4402 71.2788 31.8871 71.8319 31.2071 71.8319C30.6083 71.8319 30.1231 72.3171 30.1231 72.9159C30.1231 73.5147 30.6083 73.9999 31.2071 73.9999C33.0825 73.9999 34.6082 72.474 34.6082 70.5987V65.9645C34.6082 64.0891 33.0824 62.5634 31.2071 62.5634H27.6568V56.4042L35.1135 61.3753C35.6865 61.7573 36.3433 61.9483 37.0002 61.9483C37.6569 61.9483 38.3138 61.7572 38.8869 61.3752L46.3435 56.404V65.0117C44.351 65.4995 42.8677 67.2994 42.8677 69.4402C42.8677 71.9544 44.9131 74 47.4275 74C49.9418 74 51.9872 71.9546 51.9872 69.4402C51.9872 67.2995 50.504 65.4997 48.5115 65.0117V55.6945L55.0742 58.5051C56.8086 59.2478 57.9293 60.9469 57.9293 62.8337V72.916C57.9293 73.5148 58.4145 74 59.0133 74C59.6121 74 60.0973 73.5148 60.0973 72.916V62.8338C60.0971 60.0785 58.4603 57.5971 55.9275 56.5123ZM28.9399 8.93984C29.6116 5.09805 32.9689 2.16797 37 2.16797C41.034 2.16797 44.3934 5.10224 45.0615 8.94807C42.6526 7.67432 39.9093 6.95152 37 6.95152C34.1571 6.95152 31.4016 7.64223 28.9399 8.93984ZM25.3398 33.5242C25.3398 33.2367 25.2256 32.9611 25.0223 32.7576C24.8191 32.5544 24.5433 32.4402 24.2557 32.4402L22.683 32.4403C21.6705 32.4403 20.806 31.7279 20.715 30.8184C20.6626 30.2961 20.8254 29.7967 21.1731 29.4123C21.5165 29.0329 22.0066 28.8152 22.5178 28.8152H24.2555C26.131 28.8152 27.6567 27.2894 27.6567 25.4095C27.6567 25.3029 27.7421 25.2145 27.8597 25.1996C34.0668 24.4028 39.1803 22.3789 42.5411 20.7077C44.6505 20.7827 46.3432 22.5222 46.3432 24.6494V25.4141C46.3432 27.2895 47.8691 28.8152 49.7444 28.8152H51.3167C52.3293 28.8152 53.1939 29.5276 53.2849 30.437C53.3373 30.9593 53.1745 31.4587 52.8268 31.8431C52.4835 32.2225 51.9934 32.4402 51.4821 32.4402L49.7442 32.4403C49.1456 32.4403 48.6604 32.9257 48.6604 33.5243C48.6604 39.9538 43.4296 45.1847 37 45.1847C33.8854 45.1847 30.9572 43.9718 28.7548 41.7694C26.5527 39.567 25.3398 36.6388 25.3398 33.5242ZM37.6841 59.5713C37.2687 59.8484 36.7315 59.8485 36.3158 59.5714L28.5403 54.3877L29.5266 53.9654C31.2059 53.246 32.291 51.6008 32.291 49.7738V46.5334C33.781 47.0717 35.3688 47.3526 37.0002 47.3526C38.6529 47.3526 40.2385 47.0602 41.709 46.5261V49.7738C41.709 51.6008 42.7941 53.246 44.4734 53.9654L45.4597 54.3877L37.6841 59.5713ZM49.8189 69.4402C49.8189 70.759 48.7461 71.832 47.4272 71.832C46.1084 71.832 45.0354 70.759 45.0354 69.4402C45.0354 68.1213 46.1084 67.0485 47.4272 67.0485C48.7461 67.0485 49.8189 68.1213 49.8189 69.4402Z" fill="white"/>
<path d="M31.207 28.9646C30.6082 28.9646 30.123 29.4498 30.123 30.0486V31.2071C30.123 31.8059 30.6082 32.2911 31.207 32.2911C31.8058 32.2911 32.291 31.8059 32.291 31.2071V30.0486C32.291 29.4499 31.8058 28.9646 31.207 28.9646Z" fill="white"/>
<path d="M42.793 32.2911C43.3918 32.2911 43.877 31.8059 43.877 31.2071V30.0486C43.877 29.4498 43.3918 28.9646 42.793 28.9646C42.1942 28.9646 41.709 29.4498 41.709 30.0486V31.2071C41.709 31.8059 42.1942 32.2911 42.793 32.2911Z" fill="white"/>
<path d="M41.3122 36.3104C40.9312 35.8485 40.2483 35.7829 39.7863 36.1634C39.0838 36.7424 38.0682 37.0746 37 37.0746C35.9317 37.0746 34.9161 36.7424 34.2137 36.1634C33.7516 35.7825 33.0684 35.8484 32.6877 36.3104C32.3069 36.7724 32.3727 37.4556 32.8347 37.8364C33.9348 38.7432 35.4142 39.2425 37 39.2425C38.5858 39.2425 40.0652 38.7432 41.1652 37.8364C41.6273 37.4556 41.6931 36.7725 41.3122 36.3104Z" fill="white"/>
<path d="M71.6744 52.8224L67.0998 51.2976C67.0692 51.2873 67.0486 51.2587 67.0486 51.2266V48.2458C69.1465 46.7944 70.5243 44.3729 70.5243 41.6345V38.1588C70.5243 35.0057 67.959 32.4404 64.8061 32.4404H60.1718C57.0189 32.4404 54.4536 35.0057 54.4536 38.1588V41.6345C54.4536 44.3729 55.8316 46.7945 57.9294 48.2459V51.2266C57.9294 51.2588 57.9088 51.2873 57.8784 51.2974L56.3535 51.8057C55.7855 51.9951 55.4785 52.609 55.6678 53.1768C55.8193 53.6312 56.2422 53.9184 56.696 53.9184C56.8096 53.9184 56.9252 53.9003 57.0388 53.8624L58.0152 53.5369L61.1435 55.8831C61.5397 56.1803 62.0143 56.3287 62.4893 56.3287C62.9639 56.3287 63.4385 56.1803 63.8347 55.8831L66.0395 54.2297V59.2659C64.6942 59.7195 63.7224 60.9924 63.7224 62.4889C63.7224 64.3643 65.2482 65.89 67.1235 65.89C68.9988 65.89 70.5246 64.3642 70.5246 62.4889C70.5246 60.9926 69.5528 59.7197 68.2075 59.2659V53.9519L70.9893 54.8791C71.4936 55.0471 71.8325 55.5172 71.8325 56.0489V64.806C71.8325 65.4048 72.3177 65.89 72.9165 65.89C73.5153 65.89 74.0005 65.4048 74.0005 64.806V56.0489C74 54.5825 73.0653 53.2859 71.6744 52.8224ZM56.6213 41.6344V38.1587C56.6213 36.2008 58.214 34.6083 60.1716 34.6083H64.8058C66.7635 34.6083 68.3561 36.201 68.3561 38.1587V41.6344C68.3561 44.8697 65.7239 47.5019 62.4885 47.5019C59.2532 47.5019 56.6213 44.8697 56.6213 41.6344ZM62.5333 54.1489C62.507 54.1684 62.4702 54.1685 62.444 54.1487L59.8666 52.2158C60.0146 51.9147 60.097 51.5782 60.097 51.2265V49.3062C60.8527 49.5424 61.656 49.6697 62.4887 49.6697C63.3213 49.6697 64.1246 49.5422 64.8805 49.3062V51.2265C64.8805 51.5782 64.9631 51.9147 65.1109 52.2158L62.5333 54.1489ZM67.1231 63.722C66.4431 63.722 65.8899 63.1689 65.8899 62.4889C65.8899 61.8089 66.4431 61.2558 67.1231 61.2558C67.8031 61.2558 68.3562 61.8089 68.3562 62.4889C68.3562 63.1689 67.8031 63.722 67.1231 63.722Z" fill="white"/>
<path d="M10.1656 55.8829C10.5618 56.1802 11.0364 56.3286 11.5113 56.3286C11.986 56.3286 12.4606 56.1802 12.8569 55.883L15.9853 53.5368L16.9616 53.8622C17.0752 53.9002 17.1908 53.9181 17.3044 53.9181C17.7583 53.9181 18.1812 53.6309 18.3326 53.1765C18.522 52.6087 18.215 51.9947 17.647 51.8055L16.1223 51.2973C16.0917 51.2871 16.0712 51.2584 16.0712 51.2264V48.2457C18.169 46.7943 19.547 44.3727 19.547 41.6343V37C19.547 34.4857 17.5016 32.4402 14.9872 32.4402H8.0355C5.52124 32.4402 3.47583 34.4856 3.47583 37V41.6343C3.47583 44.3727 4.85365 46.7942 6.95152 48.2455V51.2264C6.95152 51.2586 6.93085 51.2871 6.90036 51.2972L2.3258 52.8221C0.934683 53.2858 0 54.5824 0 56.0488V64.8059C0 65.4047 0.485191 65.8899 1.08398 65.8899C1.68278 65.8899 2.16797 65.4047 2.16797 64.8059V56.0488C2.16797 55.5171 2.50689 55.047 3.01131 54.879L6.95152 53.5654V59.0876H5.71838C4.48177 59.0876 3.47583 60.0936 3.47583 61.3302V63.6474C3.47583 64.884 4.48177 65.8899 5.71838 65.8899C6.31717 65.8899 6.80236 65.4047 6.80236 64.8059C6.80236 64.2071 6.31717 63.722 5.71838 63.722C5.67733 63.722 5.6438 63.6886 5.6438 63.6474V61.3302C5.6438 61.2891 5.67719 61.2555 5.71838 61.2555H10.3526C10.3938 61.2555 10.4274 61.2889 10.4274 61.3302V63.6474C10.4274 63.6884 10.394 63.722 10.3526 63.722C9.75384 63.722 9.26864 64.2071 9.26864 64.8059C9.26864 65.4047 9.75384 65.8899 10.3526 65.8899C11.5892 65.8899 12.5953 64.884 12.5953 63.6474V61.3302C12.5953 60.0936 11.5892 59.0876 10.3526 59.0876H9.11949V55.0984L10.1656 55.8829ZM8.0355 34.6082H14.987C16.3059 34.6082 17.3789 35.6812 17.3789 37V39.3465C13.902 39.0565 11.4636 37.442 10.5214 36.7093C9.72753 36.0921 8.60987 36.0834 7.80396 36.6877L5.64395 38.3079V37C5.6438 35.6812 6.71666 34.6082 8.0355 34.6082ZM5.6438 41.6343V41.0177L9.1046 38.4219C9.12122 38.4093 9.15475 38.393 9.19045 38.4207C10.5758 39.4976 13.3979 41.2436 17.3787 41.5208V41.6341C17.3787 44.8694 14.7465 47.5016 11.5112 47.5016C8.27586 47.5016 5.6438 44.8696 5.6438 41.6343ZM11.5113 49.6698C12.3438 49.6698 13.1473 49.5424 13.903 49.3063V51.2265C13.903 51.5783 13.9854 51.9148 14.1334 52.2158L11.556 54.1486C11.5297 54.1684 11.4927 54.1684 11.4665 54.1486L8.8891 52.2157C9.03711 51.9146 9.11949 51.5781 9.11949 51.2264V49.3061C9.87524 49.5424 10.6787 49.6698 11.5113 49.6698Z" fill="white"/>
</g>
<defs>
<clipPath id="clip0_4001_87">
<rect width="74" height="74" fill="white"/>
</clipPath>
</defs>
</svg>
