<svg width="63" height="62" viewBox="0 0 63 62" fill="none" xmlns="http://www.w3.org/2000/svg">
<g clip-path="url(#clip0_3_517)">
<path d="M53.5584 47.0678C50.2716 45.8353 48.2606 45.2515 46.6172 44.7974C45.6658 44.5163 44.8225 44.2784 43.9575 43.9757C43.7629 43.9108 43.7629 43.8892 43.5899 43.8892C43.4602 43.8459 43.1142 43.6729 42.7682 43.0891C42.1628 42.0512 41.4708 39.305 43.4386 32.7531C45.9685 24.3415 45.8172 21.444 45.6658 17.7896V17.2706C45.1901 6.97782 38.7679 0.598877 28.8859 0.598877C20.0635 0.598877 13.5116 6.84808 12.5818 16.1678C12.5386 16.6652 11.8898 18.2004 11.4141 19.3249C10.3113 21.9413 9.59775 23.7577 9.59775 25.2281C9.59775 26.9796 10.6141 28.0391 12.6034 28.4067C13.2521 35.6939 13.8143 39.2401 20.9717 39.7807C21.0366 40.0834 21.0798 40.5375 21.1231 41.1646C21.188 42.4188 21.0582 43.327 20.7771 43.4351C17.2741 44.6244 14.3549 45.7488 12.0196 46.6354L10.8519 47.0678C5.81363 48.9707 0.90509 51.5439 0.90509 59.9771C0.90509 61.0366 1.77003 61.88 2.80796 61.88C3.84589 61.88 4.71083 61.015 4.71083 59.9771C4.71083 54.3982 7.02455 52.5818 12.1926 50.6357L13.3602 50.1816C15.674 49.2951 18.5499 48.2139 22.0097 47.0462C25.1883 45.965 24.9937 42.2025 24.9288 40.97C24.8423 39.132 24.4964 36.6237 22.7449 36.0831C22.5935 36.0398 22.4205 35.9966 22.2475 35.9966C17.0795 35.8452 17.0579 35.5209 16.3227 27.2823C16.1281 25.2065 14.2684 24.7956 13.49 24.6659C13.7278 23.6496 14.4198 21.9845 14.9171 20.7953C15.7388 18.8059 16.2578 17.5517 16.3659 16.5354C17.1011 9.18342 22.0097 4.42624 28.8643 4.42624C36.7353 4.42624 41.4492 9.16179 41.7952 17.4436V17.9626C41.9682 21.4007 42.0763 23.8658 39.741 31.6503C37.8597 37.9427 37.8165 42.5485 39.6328 45.3163C40.7356 46.9813 42.1412 47.4787 42.7682 47.6301C43.6981 47.9544 44.5414 48.1923 45.5144 48.4734C47.0713 48.9275 49.0175 49.4681 52.1529 50.6573C56.4992 52.3007 58.5318 55.0902 58.5318 59.4365C58.5318 60.4961 59.3967 61.361 60.4347 61.361C61.4726 61.361 62.3375 60.4961 62.3375 59.4365C62.3375 53.4468 59.3535 49.2951 53.4719 47.0895" fill="white"/>
<path d="M31.3943 36.4939C29.8374 36.4939 28.6049 38.5481 28.6049 41.0781C28.6049 43.608 29.859 45.6623 31.3943 45.6623C32.9296 45.6623 34.1837 43.608 34.1837 41.0781C34.1837 38.5481 32.9296 36.4939 31.3943 36.4939Z" fill="white"/>
<path d="M31.6105 47.1975C30.551 47.1975 29.7076 48.0625 29.7076 49.1004V57.3822C29.7076 58.4417 30.5726 59.2851 31.6105 59.2851C32.6484 59.2851 33.5134 58.4417 33.5134 57.3822V49.1004C33.5134 48.0408 32.6484 47.1975 31.6105 47.1975Z" fill="white"/>
</g>
<defs>
<clipPath id="clip0_3_517">
<rect width="61.4973" height="61.3027" fill="white" transform="translate(0.90509 0.598877)"/>
</clipPath>
</defs>
</svg>
