<svg width="131" height="103" viewBox="0 0 131 103" fill="none" xmlns="http://www.w3.org/2000/svg">
<g clip-path="url(#clip0_6_2705)">
<path d="M119.914 89.2302H10.8448C9.71225 89.2302 8.79993 88.2864 8.79993 87.1224V18.3997C8.79993 15.3166 11.238 12.7999 14.2424 12.7999H27.7227C28.8552 12.7999 29.7675 13.7437 29.7675 14.9077C29.7675 16.0717 28.8552 17.0155 27.7227 17.0155H14.2424C13.4874 17.0155 12.8896 17.6446 12.8896 18.4154V85.0461H117.885V18.3997C117.885 17.6289 117.271 16.9997 116.532 16.9997H103.036C101.904 16.9997 100.991 16.0559 100.991 14.892C100.991 13.728 101.904 12.7842 103.036 12.7842H116.532C119.536 12.7842 121.975 15.3009 121.975 18.3839V87.1224C121.975 88.2864 121.062 89.2302 119.93 89.2302" fill="white"/>
<path d="M4.22259 89.2296V90.0003C4.22259 94.6406 7.8876 98.4157 12.3863 98.4157H118.372C122.871 98.4157 126.536 94.6406 126.536 90.0003V89.2296H4.22259ZM118.372 102.616H12.3863C5.63826 102.616 0.148621 96.9528 0.148621 90.0003V87.1376C0.148621 85.9736 1.06094 85.0298 2.19347 85.0298H128.581C129.714 85.0298 130.626 85.9736 130.626 87.1376V90.0003C130.626 96.9528 125.136 102.616 118.388 102.616" fill="white"/>
<path d="M72.7566 95.9304H58.0022C56.8697 95.9304 55.9574 94.9866 55.9574 93.8226C55.9574 92.6586 56.8697 91.7148 58.0022 91.7148H72.7566C73.8892 91.7148 74.8015 92.6586 74.8015 93.8226C74.8015 94.9866 73.8892 95.9304 72.7566 95.9304Z" fill="white"/>
<path d="M65.3794 48.8524C64.2469 48.8524 63.3345 47.9086 63.3345 46.7446V9.87437C63.3345 8.71038 64.2469 7.7666 65.3794 7.7666C66.5119 7.7666 67.4242 8.71038 67.4242 9.87437V46.7446C67.4242 47.9086 66.5119 48.8524 65.3794 48.8524Z" fill="white"/>
<path d="M103.036 64.3138H81.0304C79.8979 64.3138 78.9856 63.37 78.9856 62.206C78.9856 61.042 79.8979 60.0982 81.0304 60.0982H100.991V4.60411H72.5364C69.7208 4.60411 67.4243 6.96355 67.4243 9.87353C67.4243 11.0375 66.512 11.9813 65.3794 11.9813C64.2469 11.9813 63.3346 11.0375 63.3346 9.87353C63.3346 6.96355 61.0381 4.60411 58.2225 4.60411H29.7676V60.0982H49.7285C50.861 60.0982 51.7733 61.042 51.7733 62.206C51.7733 63.37 50.861 64.3138 49.7285 64.3138H27.7227C26.5902 64.3138 25.6779 63.37 25.6779 62.206V2.51207C25.6779 1.34807 26.5902 0.404297 27.7227 0.404297H58.2225C61.101 0.404297 63.6806 1.7885 65.3794 3.92773C67.0625 1.77277 69.6422 0.404297 72.5364 0.404297H103.036C104.169 0.404297 105.081 1.34807 105.081 2.51207V62.2217C105.081 63.3857 104.169 64.3295 103.036 64.3295" fill="white"/>
<path d="M56.3506 14.7497H36.783C35.6504 14.7497 34.7381 13.8059 34.7381 12.642C34.7381 11.478 35.6504 10.5342 36.783 10.5342H56.3506C57.4831 10.5342 58.3955 11.478 58.3955 12.642C58.3955 13.8059 57.4831 14.7497 56.3506 14.7497Z" fill="white"/>
<path d="M56.3505 22.6311H36.7829C35.6504 22.6311 34.738 21.6873 34.738 20.5233C34.738 19.3593 35.6504 18.4155 36.7829 18.4155H56.3505C57.4831 18.4155 58.3954 19.3593 58.3954 20.5233C58.3954 21.6873 57.4831 22.6311 56.3505 22.6311Z" fill="white"/>
<path d="M56.3506 30.511H36.783C35.6504 30.511 34.7381 29.5672 34.7381 28.4032C34.7381 27.2392 35.6504 26.2954 36.783 26.2954H56.3506C57.4831 26.2954 58.3955 27.2392 58.3955 28.4032C58.3955 29.5672 57.4831 30.511 56.3506 30.511Z" fill="white"/>
<path d="M56.3506 38.4074H36.783C35.6504 38.4074 34.7381 37.4637 34.7381 36.2997C34.7381 35.1357 35.6504 34.1919 36.783 34.1919H56.3506C57.4831 34.1919 58.3955 35.1357 58.3955 36.2997C58.3955 37.4637 57.4831 38.4074 56.3506 38.4074Z" fill="white"/>
<path d="M49.5553 46.2888H36.7829C35.6504 46.2888 34.738 45.345 34.738 44.181C34.738 43.017 35.6504 42.0732 36.7829 42.0732H49.5553C50.6879 42.0732 51.6002 43.017 51.6002 44.181C51.6002 45.345 50.6879 46.2888 49.5553 46.2888Z" fill="white"/>
<path d="M44.459 54.1682H36.783C35.6504 54.1682 34.7381 53.2244 34.7381 52.0604C34.7381 50.8964 35.6504 49.9526 36.783 49.9526H44.459C45.5915 49.9526 46.5039 50.8964 46.5039 52.0604C46.5039 53.2244 45.5915 54.1682 44.459 54.1682Z" fill="white"/>
<path d="M93.9916 14.7497H74.4239C73.2914 14.7497 72.3791 13.8059 72.3791 12.642C72.3791 11.478 73.2914 10.5342 74.4239 10.5342H93.9916C95.1241 10.5342 96.0364 11.478 96.0364 12.642C96.0364 13.8059 95.1241 14.7497 93.9916 14.7497Z" fill="white"/>
<path d="M93.9915 22.6311H74.4239C73.2914 22.6311 72.379 21.6873 72.379 20.5233C72.379 19.3593 73.2914 18.4155 74.4239 18.4155H93.9915C95.1241 18.4155 96.0364 19.3593 96.0364 20.5233C96.0364 21.6873 95.1241 22.6311 93.9915 22.6311Z" fill="white"/>
<path d="M93.9916 30.511H74.4239C73.2914 30.511 72.3791 29.5672 72.3791 28.4032C72.3791 27.2392 73.2914 26.2954 74.4239 26.2954H93.9916C95.1241 26.2954 96.0364 27.2392 96.0364 28.4032C96.0364 29.5672 95.1241 30.511 93.9916 30.511Z" fill="white"/>
<path d="M93.9916 38.4074H74.4239C73.2914 38.4074 72.3791 37.4637 72.3791 36.2997C72.3791 35.1357 73.2914 34.1919 74.4239 34.1919H93.9916C95.1241 34.1919 96.0364 35.1357 96.0364 36.2997C96.0364 37.4637 95.1241 38.4074 93.9916 38.4074Z" fill="white"/>
<path d="M93.9916 46.2888H81.2191C80.0866 46.2888 79.1743 45.345 79.1743 44.181C79.1743 43.017 80.0866 42.0732 81.2191 42.0732H93.9916C95.1241 42.0732 96.0364 43.017 96.0364 44.181C96.0364 45.345 95.1241 46.2888 93.9916 46.2888Z" fill="white"/>
<path d="M93.9916 54.1682H86.3155C85.183 54.1682 84.2707 53.2244 84.2707 52.0604C84.2707 50.8964 85.183 49.9526 86.3155 49.9526H93.9916C95.1241 49.9526 96.0365 50.8964 96.0365 52.0604C96.0365 53.2244 95.1241 54.1682 93.9916 54.1682Z" fill="white"/>
<path d="M65.3794 48.8523C57.8763 48.8523 51.7575 55.1441 51.7575 62.8988C51.7575 70.6535 57.8763 76.9454 65.3794 76.9454C72.8824 76.9454 79.0012 70.6535 79.0012 62.8988C79.0012 55.1441 72.8824 48.8523 65.3794 48.8523ZM65.3794 81.1295C55.627 81.1295 47.6835 72.95 47.6835 62.8831C47.6835 52.8161 55.627 44.6367 65.3794 44.6367C75.1317 44.6367 83.0752 52.8161 83.0752 62.8831C83.0752 72.95 75.1317 81.1295 65.3794 81.1295Z" fill="white"/>
<path d="M65.3794 72.5876C64.876 72.5876 64.3727 72.3988 63.9795 72.0056L57.955 66.0912C57.1371 65.289 57.1056 63.9678 57.8764 63.1184C58.6471 62.2847 59.9369 62.2375 60.7549 63.0397L65.3794 67.5698L70.0039 63.0397C70.8218 62.2375 72.1117 62.269 72.8824 63.1184C73.6532 63.9678 73.6217 65.289 72.8038 66.0912L66.7793 72.0056C66.3861 72.3988 65.8827 72.5876 65.3794 72.5876Z" fill="white"/>
<path d="M65.3795 72.5876C64.2469 72.5876 63.3346 71.6438 63.3346 70.4798V55.285C63.3346 54.121 64.2469 53.1772 65.3795 53.1772C66.512 53.1772 67.4243 54.121 67.4243 55.285V70.4798C67.4243 71.6438 66.512 72.5876 65.3795 72.5876Z" fill="white"/>
<path d="M65.3794 48.8523C57.8763 48.8523 51.7575 55.1441 51.7575 62.8988C51.7575 70.6535 57.8763 76.9454 65.3794 76.9454C72.8824 76.9454 79.0012 70.6535 79.0012 62.8988C79.0012 55.1441 72.8824 48.8523 65.3794 48.8523ZM65.3794 81.1295C55.627 81.1295 47.6835 72.95 47.6835 62.8831C47.6835 52.8161 55.627 44.6367 65.3794 44.6367C75.1317 44.6367 83.0752 52.8161 83.0752 62.8831C83.0752 72.95 75.1317 81.1295 65.3794 81.1295Z" fill="white"/>
</g>
<defs>
<clipPath id="clip0_6_2705">
<rect width="130.462" height="102.211" fill="white" transform="translate(0.148682 0.404297)"/>
</clipPath>
</defs>
</svg>
