<svg width="120" height="79" viewBox="0 0 120 79" fill="none" xmlns="http://www.w3.org/2000/svg">
<g clip-path="url(#clip0_6_2734)">
<path d="M85.8982 42.4558L112.057 74.3666C112.057 74.3666 112.115 74.4247 112.144 74.4538H7.85628C7.85628 74.4538 7.91415 74.3957 7.94309 74.3666L34.1018 42.4558C34.8975 41.4826 34.7528 40.0447 33.7545 39.2458C32.7707 38.4615 31.3094 38.6067 30.5136 39.5799L4.61538 71.1857V7.40761L53.6918 43.763C55.5438 45.1138 57.7864 45.7238 60 45.7238C62.2136 45.7238 64.4562 45.1283 66.3082 43.763L115.385 7.40761V71.1857L89.4864 39.5944C88.6906 38.6213 87.2293 38.4615 86.2455 39.2603C85.2472 40.0447 85.1025 41.4826 85.8982 42.4703M111.536 4.56077L63.5447 40.1173C62.6766 40.7709 61.36 41.1776 60 41.1631C58.6544 41.1631 57.3234 40.7709 56.4553 40.1173L8.46395 4.56077H111.536ZM113.851 0H6.14902C2.76344 0 0 2.73065 0 6.07134V72.9141C0 76.2548 2.76344 78.9855 6.14902 78.9855H113.851C117.237 78.9855 120 76.2548 120 72.9141V6.07134C120 2.73065 117.237 0 113.851 0Z" fill="white"/>
</g>
<defs>
<clipPath id="clip0_6_2734">
<rect width="120" height="79" fill="white"/>
</clipPath>
</defs>
</svg>
