<svg width="131" height="130" viewBox="0 0 131 130" fill="none" xmlns="http://www.w3.org/2000/svg">
<g clip-path="url(#clip0_6_2736)">
<path d="M120.819 51.2158C123.191 48.9213 124.028 45.5537 123.005 42.4274C121.981 39.301 119.309 37.0654 116.031 36.5929L87.367 32.4595C86.8044 32.3785 86.318 32.0279 86.0662 31.5216L73.2474 5.74631C71.7816 2.79846 68.8131 0.967285 65.5005 0.967285C62.1879 0.967285 59.2194 2.79846 57.7536 5.74631L44.9348 31.5219C44.6828 32.0279 44.1966 32.3785 43.6337 32.4598L14.9703 36.5929C11.6922 37.0654 9.0203 39.301 7.99636 42.4274C6.97241 45.5537 7.81009 48.9213 10.1824 51.2158L30.9237 71.2793C31.3307 71.6733 31.5167 72.2408 31.4205 72.7971L26.5242 101.127C25.9643 104.367 27.281 107.58 29.9609 109.512C32.6407 111.445 36.1276 111.694 39.0592 110.165L64.6966 96.7895C65.2001 96.5267 65.8011 96.5267 66.3049 96.7895L91.9425 110.165C93.2177 110.83 94.5976 111.159 95.9708 111.159C97.7541 111.159 99.5262 110.604 101.04 109.512C103.72 107.579 105.037 104.366 104.477 101.127L99.5805 72.7969C99.4845 72.2405 99.6703 71.6731 100.077 71.279L120.819 51.2158ZM92.7692 73.9567L97.6656 102.287C97.8294 103.235 97.2396 103.776 96.9784 103.964C96.7169 104.152 96.0163 104.542 95.1587 104.094L69.5211 90.7186C68.2625 90.0622 66.8819 89.7337 65.501 89.7337C64.1201 89.7337 62.7393 90.0622 61.4809 90.7183L35.8436 104.094C34.9854 104.541 34.2851 104.151 34.0239 103.963C33.7627 103.775 33.1727 103.235 33.3367 102.287L38.233 73.9567C38.7138 71.1752 37.7853 68.3385 35.7484 66.3685L15.0072 46.305C14.313 45.6332 14.4701 44.8519 14.5701 44.5472C14.6697 44.2423 15.0056 43.5184 15.9648 43.3803L44.628 39.247C47.4422 38.8412 49.8741 37.0882 51.133 34.5571L63.9518 8.7815C64.3809 7.91898 65.1781 7.8258 65.5013 7.8258C65.8239 7.8258 66.6212 7.91873 67.0505 8.7815V8.78176L79.8693 34.5573C81.1279 37.0885 83.5596 38.8415 86.3738 39.2472L115.037 43.3805C115.997 43.5187 116.332 44.2426 116.432 44.5475C116.532 44.8524 116.689 45.634 115.995 46.3053L95.2536 66.3687C93.217 68.3385 92.2885 71.1752 92.7692 73.9567Z" fill="white"/>
<path d="M105.87 5.74444C104.326 4.63132 102.165 4.97104 101.043 6.50311L97.3752 11.5132C96.2535 13.0453 96.5956 15.19 98.1397 16.3031C98.7535 16.7452 99.4641 16.9582 100.168 16.9582C101.237 16.9582 102.291 16.4679 102.967 15.5447L106.635 10.5346C107.756 9.00231 107.414 6.85757 105.87 5.74444Z" fill="white"/>
<path d="M33.6097 11.4933L29.9414 6.48322C28.82 4.95165 26.659 4.61193 25.1146 5.72454C23.5708 6.83767 23.2284 8.98242 24.3501 10.5145L28.0184 15.5246C28.6946 16.4485 29.7482 16.9386 30.8172 16.9386C31.5216 16.9386 32.2324 16.7255 32.8454 16.2832C34.3893 15.1704 34.7316 13.0256 33.6097 11.4933Z" fill="white"/>
<path d="M12.6784 77.906C12.0886 76.1051 10.1392 75.1191 8.32388 75.7044L2.38871 77.6183C0.57339 78.2036 -0.4196 80.1386 0.170156 81.9396C0.644519 83.3891 1.99929 84.3103 3.4559 84.3103C3.80976 84.3103 4.16975 84.2557 4.52463 84.1412L10.4598 82.2272C12.2749 81.642 13.2681 79.7075 12.6784 77.906Z" fill="white"/>
<path d="M65.5013 115.981C63.5928 115.981 62.0457 117.516 62.0457 119.41V125.603C62.0457 127.497 63.5928 129.033 65.5013 129.033C67.4097 129.033 68.9569 127.497 68.9569 125.603V119.41C68.9569 117.516 67.41 115.981 65.5013 115.981Z" fill="white"/>
<path d="M128.611 77.623L122.676 75.7091C120.862 75.1244 118.911 76.1095 118.322 77.911C117.732 79.7124 118.725 81.647 120.54 82.2322L126.475 84.1462C126.83 84.2604 127.19 84.3148 127.544 84.3148C129.001 84.3148 130.355 83.3933 130.83 81.944C131.42 80.1428 130.426 78.2083 128.611 77.623Z" fill="white"/>
</g>
<defs>
<clipPath id="clip0_6_2736">
<rect width="131" height="130" fill="white"/>
</clipPath>
</defs>
</svg>
