<svg width="131" height="111" viewBox="0 0 131 111" fill="none" xmlns="http://www.w3.org/2000/svg">
<g clip-path="url(#clip0_6_2732)">
<path d="M121.514 4.06407C124.467 4.06407 126.849 6.43478 126.849 9.34172C126.849 12.2487 124.453 14.6194 121.514 14.6194C118.576 14.6194 116.18 12.2487 116.18 9.34172C116.18 6.42067 118.576 4.06407 121.514 4.06407ZM100.546 40.2597L95.0406 36.5484C95.9392 34.333 95.9392 31.8635 95.0406 29.6339L100.546 25.9226V40.2456V40.2597ZM91.6173 33.1053C91.6173 36.0263 89.2209 38.3829 86.2826 38.3829C83.3442 38.3829 80.9478 36.0122 80.9478 33.1053C80.9478 30.1983 83.3442 27.8276 86.2826 27.8276C89.2352 27.8276 91.6173 30.1983 91.6173 33.1053ZM100.546 84.3013C100.546 86.8413 98.464 88.9016 95.8965 88.9016H52.6054C52.2488 88.9016 51.8922 89.0004 51.5784 89.1697L23.022 105.482V90.9336C23.022 89.8188 22.1091 88.9157 20.9823 88.9157H8.74379C6.17629 88.9157 4.09375 86.8555 4.09375 84.3154V24.1304C4.09375 21.5904 6.17629 19.5442 8.74379 19.5301H95.8965C97.4512 19.5301 98.8919 20.2921 99.7477 21.5622L92.7299 26.2895C88.9357 22.7616 82.9591 22.9451 79.3931 26.6987C75.8271 30.4523 76.0125 36.365 79.8067 39.8928C83.444 43.2654 89.0926 43.2654 92.7299 39.8928L100.532 45.1564V84.2872L100.546 84.3013ZM121.514 51.5629C124.467 51.5629 126.849 53.9336 126.849 56.8406C126.849 59.7475 124.453 62.1182 121.514 62.1182C118.576 62.1182 116.18 59.7475 116.18 56.8406C116.18 53.9195 118.576 51.5629 121.514 51.5488M121.514 18.6834C126.721 18.6834 130.957 14.5065 130.957 9.35583C130.971 4.19108 126.749 0 121.529 0C116.322 0 112.086 4.17696 112.086 9.32761C112.086 10.513 112.314 11.6983 112.756 12.799L103.143 19.2902C101.516 16.9054 98.8063 15.4802 95.9107 15.4802H8.74379C3.92258 15.4802 0.0142639 19.3467 0 24.1304V84.3013C0 89.0709 3.90832 92.9375 8.74379 92.9516H18.9425V108.996C18.9425 110.111 19.8554 111.014 20.9823 111.014C21.3389 111.014 21.6954 110.915 22.0093 110.746L53.1617 92.9516H95.8965C100.718 92.9516 104.626 89.0851 104.64 84.3013V47.9222L112.756 53.3974C110.817 58.1953 113.17 63.6423 118.02 65.5614C122.87 67.4805 128.375 65.1522 130.315 60.3543C132.255 55.5564 129.902 50.1095 125.052 48.1903C121.643 46.8356 117.749 47.5553 115.067 50.053L104.64 43.0256V24.1304C104.64 23.82 104.626 23.5236 104.583 23.2132L115.067 16.1575C116.807 17.7803 119.118 18.6976 121.514 18.6834ZM75.7558 55.119V48.0351C77.7385 49.1499 78.4374 51.6335 77.3105 53.595C76.9397 54.23 76.4119 54.7662 75.7558 55.1331M71.662 66.8596C71.662 68.553 70.3783 69.9783 68.6809 70.1617L43.6762 59.3947C43.6762 59.3947 43.5335 59.3383 43.4622 59.3242L42.8917 59.1548V43.9992L43.448 43.8299C43.5193 43.8017 43.6049 43.7876 43.6762 43.7452L68.6809 32.9783C70.3783 33.1758 71.662 34.587 71.662 36.2803V66.8596ZM44.1754 67.9603C44.1754 68.4825 43.7475 68.8917 43.2197 68.9058H40.8804L39.9105 62.6686H40.5238L42.1357 63.1625L44.1754 64.0374V67.9744V67.9603ZM34.8753 79.6869L32.2365 62.6686H35.7882L38.427 79.6869H34.8753ZM27.7434 58.6186C27.2156 58.6186 26.8019 58.1953 26.7877 57.6731V45.4386C26.7877 44.9165 27.2156 44.5072 27.7434 44.4931H38.8122V58.5904H27.7434V58.6186ZM75.7558 43.6888V36.2803C75.7558 32.2021 72.418 28.9142 68.2957 28.9001C68.0105 28.9001 67.7394 28.9565 67.4827 29.0694L42.1499 39.9775L40.5381 40.4573H27.7291C24.9476 40.4573 22.6939 42.6869 22.6797 45.4527V57.6873C22.6797 60.439 24.9334 62.6686 27.7291 62.6827H28.0857L31.0811 82.0294C31.238 83.0172 32.0939 83.7509 33.1066 83.7509H40.7949C41.9217 83.7509 42.8346 82.8478 42.8346 81.733C42.8346 81.6342 42.8346 81.5214 42.8061 81.4226L41.4938 72.9699H43.2055C45.9869 72.9699 48.2406 70.7403 48.2549 67.9744V65.8013L67.4684 74.0706C67.7252 74.1834 68.0105 74.2399 68.2815 74.2399C72.3895 74.2399 75.7272 70.9378 75.7415 66.8596V59.4512C80.1348 58.3364 82.7879 53.9054 81.661 49.545C80.9193 46.6663 78.6514 44.4226 75.7415 43.6888" fill="#59137E"/>
</g>
<defs>
<clipPath id="clip0_6_2732">
<rect width="131" height="111" fill="white"/>
</clipPath>
</defs>
</svg>
