<svg width="131" height="99" viewBox="0 0 131 99" fill="none" xmlns="http://www.w3.org/2000/svg">
<g clip-path="url(#clip0_6_2679)">
<path d="M69.8278 86.3703H61.6799V78.2223H69.8278V86.3703ZM83.7485 94.534H47.7591C48.6243 92.0959 50.9365 90.46 53.5319 90.46H77.9915C80.5869 90.46 82.8834 92.0959 83.7643 94.534M124.881 0.753906H6.6419C3.26003 0.753906 0.523071 3.49086 0.523071 6.87273V72.1035C0.523071 75.4854 3.26003 78.2223 6.6419 78.2223H57.6059V86.3703H53.5319C47.9007 86.3703 43.3391 90.9319 43.3391 96.5631C43.3391 97.6956 44.2514 98.6079 45.384 98.6079H86.1552C87.2877 98.6079 88.2 97.6956 88.2 96.5631C88.2 90.9319 83.6384 86.3703 78.0072 86.3703H73.9332V78.2223H88.2C89.3325 78.2223 90.2449 77.31 90.2449 76.1775C90.2449 75.0449 89.3325 74.1326 88.2 74.1326H6.6419C5.50936 74.1326 4.59704 73.2203 4.59704 72.0878V6.87273C4.59704 5.7402 5.50936 4.82788 6.6419 4.82788H124.881C126.014 4.82788 126.926 5.7402 126.926 6.87273V23.1844C126.926 24.3169 127.839 25.2292 128.971 25.2292C130.104 25.2292 131.016 24.3169 131.016 23.1844V6.87273C131.016 3.49086 128.279 0.753906 124.897 0.753906" fill="white"/>
<path d="M100.406 33.3773C99.2737 33.3773 98.3613 34.2896 98.3613 35.4222V92.505C98.3613 93.6375 99.2737 94.5498 100.406 94.5498H124.866C125.998 94.5498 126.911 93.6375 126.911 92.505V35.4064C126.911 34.2739 125.998 33.3616 124.866 33.3616H100.406V33.3773ZM124.881 98.6081H100.422C97.0401 98.6081 94.3031 95.8711 94.3031 92.4892V35.4064C94.3031 32.0246 97.0401 29.2876 100.422 29.2876H124.881C128.263 29.2876 131 32.0246 131 35.4064V92.4892C131 95.8711 128.263 98.6081 124.881 98.6081Z" fill="white"/>
<path d="M112.644 65.9846C109.262 65.9846 106.525 68.7216 106.525 72.1034C106.525 75.4853 109.262 78.2223 112.644 78.2223C116.026 78.2223 118.763 75.4853 118.763 72.1034C118.763 68.7216 116.026 65.9846 112.644 65.9846ZM112.644 82.2962C107.013 82.2962 102.451 77.7347 102.451 72.1034C102.451 66.4722 107.013 61.9106 112.644 61.9106C118.275 61.9106 122.837 66.4722 122.837 72.1034C122.837 77.7347 118.275 82.2962 112.644 82.2962Z" fill="white"/>
<path d="M104.496 37.4512C105.628 37.4512 106.541 38.3635 106.541 39.496C106.541 40.6286 105.628 41.5409 104.496 41.5409C103.363 41.5409 102.451 40.6286 102.451 39.496C102.451 38.3635 103.363 37.4512 104.496 37.4512Z" fill="white"/>
<path d="M112.644 37.4512C113.776 37.4512 114.689 38.3635 114.689 39.496C114.689 40.6286 113.776 41.5409 112.644 41.5409C111.511 41.5409 110.599 40.6286 110.599 39.496C110.599 38.3635 111.511 37.4512 112.644 37.4512Z" fill="white"/>
<path d="M120.792 37.4512C121.924 37.4512 122.837 38.3635 122.837 39.496C122.837 40.6286 121.924 41.5409 120.792 41.5409C119.659 41.5409 118.747 40.6286 118.747 39.496C118.747 38.3635 119.659 37.4512 120.792 37.4512Z" fill="white"/>
<path d="M104.496 45.5991C105.628 45.5991 106.541 46.5114 106.541 47.644C106.541 48.7765 105.628 49.6888 104.496 49.6888C103.363 49.6888 102.451 48.7765 102.451 47.644C102.451 46.5114 103.363 45.5991 104.496 45.5991Z" fill="white"/>
<path d="M112.644 45.5991C113.776 45.5991 114.689 46.5114 114.689 47.644C114.689 48.7765 113.776 49.6888 112.644 49.6888C111.511 49.6888 110.599 48.7765 110.599 47.644C110.599 46.5114 111.511 45.5991 112.644 45.5991Z" fill="white"/>
<path d="M120.792 45.5991C121.924 45.5991 122.837 46.5114 122.837 47.644C122.837 48.7765 121.924 49.6888 120.792 49.6888C119.659 49.6888 118.747 48.7765 118.747 47.644C118.747 46.5114 119.659 45.5991 120.792 45.5991Z" fill="white"/>
<path d="M104.496 53.7627C105.628 53.7627 106.541 54.675 106.541 55.8075C106.541 56.9401 105.628 57.8524 104.496 57.8524C103.363 57.8524 102.451 56.9401 102.451 55.8075C102.451 54.675 103.363 53.7627 104.496 53.7627Z" fill="white"/>
<path d="M112.644 53.7627C113.776 53.7627 114.689 54.675 114.689 55.8075C114.689 56.9401 113.776 57.8524 112.644 57.8524C111.511 57.8524 110.599 56.9401 110.599 55.8075C110.599 54.675 111.511 53.7627 112.644 53.7627Z" fill="white"/>
<path d="M120.792 53.7627C121.924 53.7627 122.837 54.675 122.837 55.8075C122.837 56.9401 121.924 57.8524 120.792 57.8524C119.659 57.8524 118.747 56.9401 118.747 55.8075C118.747 54.675 119.659 53.7627 120.792 53.7627Z" fill="white"/>
<path d="M104.496 86.3701C105.628 86.3701 106.541 87.2824 106.541 88.415C106.541 89.5475 105.628 90.4598 104.496 90.4598C103.363 90.4598 102.451 89.5475 102.451 88.415C102.451 87.2824 103.363 86.3701 104.496 86.3701Z" fill="white"/>
<path d="M112.644 86.3701C113.776 86.3701 114.689 87.2824 114.689 88.415C114.689 89.5475 113.776 90.4598 112.644 90.4598C111.511 90.4598 110.599 89.5475 110.599 88.415C110.599 87.2824 111.511 86.3701 112.644 86.3701Z" fill="white"/>
<path d="M120.792 86.3701C121.924 86.3701 122.837 87.2824 122.837 88.415C122.837 89.5475 121.924 90.4598 120.792 90.4598C119.659 90.4598 118.747 89.5475 118.747 88.415C118.747 87.2824 119.659 86.3701 120.792 86.3701Z" fill="white"/>
<mask id="mask0_6_2679" style="mask-type:luminance" maskUnits="userSpaceOnUse" x="10" y="19" width="78" height="26">
<path d="M87.4135 19.1104H10.7473V44.3092H87.4135V19.1104Z" fill="white"/>
</mask>
<g mask="url(#mask0_6_2679)">
<path d="M80.461 44.3092L75.3489 31.1278H77.2365L80.6655 40.7071C80.9172 41.415 81.1531 42.1385 81.3576 42.8621C81.5621 42.1385 81.798 41.415 82.0655 40.7071L85.6204 31.1278H87.3978L82.2385 44.3092H80.4453H80.461ZM68.8054 44.3092V32.685H64.464V31.1278H74.9085V32.685H70.5514V44.3092H68.8054ZM55.8284 33.3614V42.0913H57.8104C58.5497 42.0913 59.0845 42.0442 59.4305 41.9655C59.8552 41.8554 60.217 41.6824 60.5001 41.415C60.7833 41.1633 61.0192 40.7386 61.1922 40.1409C61.3653 39.5589 61.4596 38.7409 61.4596 37.7185C61.4596 36.6961 61.3653 35.9253 61.1922 35.3748C61.0035 34.8243 60.7518 34.3996 60.4372 34.1007C60.1069 33.7861 59.6979 33.5816 59.2103 33.4872C58.8485 33.4086 58.1092 33.3614 57.0239 33.3614H55.8284ZM53.1701 31.1278H58.0306C59.1317 31.1278 59.9653 31.2064 60.5473 31.3795C61.3023 31.5997 61.9945 32.0244 62.5293 32.5906C63.0798 33.1726 63.5045 33.8805 63.7876 34.7299C64.0708 35.5635 64.2123 36.6017 64.2123 37.8443C64.2123 38.9297 64.0708 39.8577 63.8034 40.6442C63.473 41.6037 63.0012 42.3745 62.3877 42.9722C61.9315 43.4284 61.3023 43.7744 60.5159 44.0261C59.9339 44.2148 59.1474 44.3092 58.1564 44.3092H53.1544V31.1278H53.1701ZM41.4516 44.3092V31.1278H51.2197V33.3614H44.1099V36.2871H50.732V38.505H44.1099V42.0913H51.4713V44.3092H41.4516ZM26.6185 44.3092V31.1278H30.5981L32.989 40.1251L35.3485 31.1278H39.3438V44.3092H36.8742V33.9277L34.2631 44.3092H31.6992L29.0881 33.9277V44.3092H26.6185ZM26.5399 19.1104L22.3401 44.3092H13.4686L16.1111 30.0582H10.7316L26.5241 19.1104H26.5399Z" fill="white"/>
</g>
</g>
<defs>
<clipPath id="clip0_6_2679">
<rect width="130.462" height="97.854" fill="white" transform="translate(0.523071 0.753906)"/>
</clipPath>
</defs>
</svg>
